0
SECTION
2
HEADER
9
$INSUNITS
70
4
9
$ACADVER
1
AC1014
9
$HANDSEED
5
FFFF
0
ENDSEC
0
SECTION
2
TABLES
0
TABLE
2
VPORT
5
8
100
AcDbSymbolTable
0
ENDTAB
0
TABLE
2
LTYPE
5
5
100
AcDbSymbolTable
0
LTYPE
5
14
100
AcDbSymbolTableRecord
100
AcDbLinetypeTableRecord
2
BYBLOCK
70
0
0
LTYPE
5
15
100
AcDbSymbolTableRecord
100
AcDbLinetypeTableRecord
2
BYLAYER
70
0
0
ENDTAB
0
TABLE
2
LAYER
5
2
100
AcDbSymbolTable
70
2
0
LAYER
5
50
100
AcDbSymbolTableRecord
100
AcDbLayerTableRecord
2
0
70
0
6
CONTINUOUS
0
ENDTAB
0
TABLE
2
STYLE
5
3
100
AcDbSymbolTable
70
1
0
STYLE
5
11
100
AcDbSymbolTableRecord
100
AcDbTextStyleTableRecord
2
STANDARD
70
0
0
ENDTAB
0
TABLE
2
VIEW
5
6
100
AcDbSymbolTable
70
0
0
ENDTAB
0
TABLE
2
UCS
5
7
100
AcDbSymbolTable
70
0
0
ENDTAB
0
TABLE
2
APPID
5
9
100
AcDbSymbolTable
70
2
0
APPID
5
12
100
AcDbSymbolTableRecord
100
AcDbRegAppTableRecord
2
ACAD
70
0
0
ENDTAB
0
TABLE
2
DIMSTYLE
5
A
100
AcDbSymbolTable
70
1
0
ENDTAB
0
TABLE
2
BLOCK_RECORD
5
1
100
AcDbSymbolTable
70
1
0
BLOCK_RECORD
5
1F
100
AcDbSymbolTableRecord
100
AcDbBlockTableRecord
2
*MODEL_SPACE
0
BLOCK_RECORD
5
1B
100
AcDbSymbolTableRecord
100
AcDbBlockTableRecord
2
*PAPER_SPACE
0
ENDTAB
0
ENDSEC
0
SECTION
2
BLOCKS
0
BLOCK
5
20
100
AcDbEntity
100
AcDbBlockBegin
2
*MODEL_SPACE
0
ENDBLK
5
21
100
AcDbEntity
100
AcDbBlockEnd
0
BLOCK
5
1C
100
AcDbEntity
100
AcDbBlockBegin
2
*PAPER_SPACE
0
ENDBLK
5
1D
100
AcDbEntity
100
AcDbBlockEnd
0
ENDSEC
0
SECTION
2
ENTITIES
0
SPLINE
5
100
100
AcDbEntity
8
0
100
AcDbSpline
70
0
71
3
72
8
73
4
74
0
42
0.000000001
43
0.0000000001
44
0.0000000001
40
0
40
0
40
0
40
0
40
1
40
1
40
1
40
1
10
257.99999857916362
20
-373.99999422683953
30
0
10
257.99999857916362
20
-374.55228609681859
30
0
10
257.55226535716184
20
-375.00001931882036
30
0
10
257.00001655087601
20
-375.00001931882036
30
0
0
LINE
5
101
100
AcDbEntity
8
0
100
AcDbLine
10
257.00001655087601
20
-375.00001931882036
30
0
11
255.00000943060769
21
-375.00001931882036
31
0
0
SPLINE
5
102
100
AcDbEntity
8
0
100
AcDbSpline
70
0
71
3
72
8
73
4
74
0
42
0.000000001
43
0.0000000001
44
0.0000000001
40
2
40
2
40
2
40
2
40
3
40
3
40
3
40
3
10
255.00000943060769
20
-375.00001931882036
30
0
10
254.4477175606286
20
-375.00001931882036
30
0
10
254.0000274023204
20
-374.55228609681859
30
0
10
254.0000274023204
20
-373.99999422683953
30
0
0
LINE
5
103
100
AcDbEntity
8
0
100
AcDbLine
10
254.0000274023204
20
-373.99999422683953
30
0
11
254.0000274023204
21
-366.00000880946021
31
0
0
SPLINE
5
104
100
AcDbEntity
8
0
100
AcDbSpline
70
0
71
3
72
8
73
4
74
0
42
0.000000001
43
0.0000000001
44
0.0000000001
40
4
40
4
40
4
40
4
40
5
40
5
40
5
40
5
10
254.0000274023204
20
-366.00000880946021
30
0
10
254.0000274023204
20
-365.44771693948098
30
0
10
254.4477175606286
20
-365.00002678117278
30
0
10
255.00000943060769
20
-365.00002678117278
30
0
0
LINE
5
105
100
AcDbEntity
8
0
100
AcDbLine
10
255.00000943060769
20
-365.00002678117278
30
0
11
257.00001655087601
21
-365.00002678117278
31
0
0
SPLINE
5
106
100
AcDbEntity
8
0
100
AcDbSpline
70
0
71
3
72
8
73
4
74
0
42
0.000000001
43
0.0000000001
44
0.0000000001
40
6
40
6
40
6
40
6
40
7
40
7
40
7
40
7
10
257.00001655087601
20
-365.00002678117278
30
0
10
257.55226535716184
20
-365.00002678117278
30
0
10
257.99999857916362
20
-365.44771693948098
30
0
10
257.99999857916362
20
-366.00000880946021
30
0
0
LINE
5
107
100
AcDbEntity
8
0
100
AcDbLine
10
257.99999857916362
20
-366.00000880946021
30
0
11
257.99999857916362
21
-373.99999422683953
31
0
0
LINE
5
108
100
AcDbEntity
8
0
100
AcDbLine
10
630.99999780774488
20
-382.49999219020924
30
0
11
741.00000184925523
21
-382.49999219020924
31
0
0
SPLINE
5
109
100
AcDbEntity
8
0
100
AcDbSpline
70
0
71
3
72
8
73
4
74
0
42
0.000000001
43
0.0000000001
44
0.0000000001
40
1
40
1
40
1
40
1
40
2
40
2
40
2
40
2
10
741.00000184925523
20
-382.49999219020924
30
0
10
746.52283442165924
20
-382.49999219020924
30
0
10
750.99999438690293
20
-378.02283222496567
30
0
10
750.99999438690293
20
-372.4999781207149
30
0
0
LINE
5
110
100
AcDbEntity
8
0
100
AcDbLine
10
750.99999438690293
20
-372.4999781207149
30
0
11
750.99999438690293
21
-322.49999390063033
31
0
0
SPLINE
5
111
100
AcDbEntity
8
0
100
AcDbSpline
70
0
71
3
72
8
73
4
74
0
42
0.000000001
43
0.0000000001
44
0.0000000001
40
3
40
3
40
3
40
3
40
4
40
4
40
4
40
4
10
750.99999438690293
20
-322.49999390063033
30
0
10
750.99999438690293
20
-316.97713979637933
30
0
10
746.52283442165924
20
-312.49997983113587
30
0
10
741.00000184925523
20
-312.49997983113587
30
0
0
LINE
5
112
100
AcDbEntity
8
0
100
AcDbLine
10
741.00000184925523
20
-312.49997983113587
30
0
11
708.99997405235081
21
-312.49997983113587
31
0
0
SPLINE
5
113
100
AcDbEntity
8
0
100
AcDbSpline
70
0
71
3
72
8
73
4
74
0
42
0.000000001
43
0.0000000001
44
0.0000000001
40
5
40
5
40
5
40
5
40
6
40
6
40
6
40
6
10
708.99997405235081
20
-312.49997983113587
30
0
10
707.34314150610703
20
-312.49997983113587
30
0
10
705.99998490379539
20
-311.15684476067088
30
0
10
705.99998490379539
20
-309.49999068258029
30
0
0
LINE
5
114
100
AcDbEntity
8
0
100
AcDbLine
10
705.99998490379539
20
-309.49999068258029
30
0
11
705.99998490379539
21
-237.4999927350855
31
0
0
SPLINE
5
115
100
AcDbEntity
8
0
100
AcDbSpline
70
0
71
3
72
8
73
4
74
0
42
0.000000001
43
0.0000000001
44
0.0000000001
40
7
40
7
40
7
40
7
40
8
40
8
40
8
40
8
10
705.99998490379539
20
-237.4999927350855
30
0
10
705.99998490379539
20
-226.45428452658393
30
0
10
697.04566497330791
20
-217.50000765979041
30
0
10
685.99999982850011
20
-217.50000765979041
30
0
0
LINE
5
116
100
AcDbEntity
8
0
100
AcDbLine
10
685.99999982850011
20
-217.50000765979041
30
0
11
685.99991370111286
21
-217.50000765979041
31
0
0
SPLINE
5
117
100
AcDbEntity
8
0
100
AcDbSpline
70
0
71
3
72
8
73
4
74
0
42
0.000000001
43
0.0000000001
44
0.0000000001
40
9
40
9
40
9
40
9
40
10
40
10
40
10
40
10
10
685.99991370111286
20
-217.50000765979041
30
0
10
674.95424855630495
20
-217.50000765979041
30
0
10
666.00001475320471
20
-226.45428452658393
30
0
10
666.00001475320471
20
-237.49994967139202
30
0
0
LINE
5
118
100
AcDbEntity
8
0
100
AcDbLine
10
666.00001475320471
20
-237.49994967139202
30
0
11
666.00001475320471
21
-309.49999068258029
31
0
0
SPLINE
5
119
100
AcDbEntity
8
0
100
AcDbSpline
70
0
71
3
72
8
73
4
74
0
42
0.000000001
43
0.0000000001
44
0.0000000001
40
11
40
11
40
11
40
11
40
12
40
12
40
12
40
12
10
666.00001475320471
20
-309.49999068258029
30
0
10
666.00001475320471
20
-311.15684476067088
30
0
10
664.65685815089319
20
-312.49997983113587
30
0
10
662.9999825409559
20
-312.49997983113587
30
0
0
LINE
5
120
100
AcDbEntity
8
0
100
AcDbLine
10
662.9999825409559
20
-312.49997983113587
30
0
11
630.99999780774488
21
-312.49997983113587
31
0
0
SPLINE
5
121
100
AcDbEntity
8
0
100
AcDbSpline
70
0
71
3
72
8
73
4
74
0
42
0.000000001
43
0.0000000001
44
0.0000000001
40
13
40
13
40
13
40
13
40
14
40
14
40
14
40
14
10
630.99999780774488
20
-312.49997983113587
30
0
10
625.47716523534075
20
-312.49997983113587
30
0
10
621.00000527009729
20
-316.97713979637933
30
0
10
621.00000527009729
20
-322.49999390063033
30
0
0
LINE
5
122
100
AcDbEntity
8
0
100
AcDbLine
10
621.00000527009729
20
-322.49999390063033
30
0
11
621.00000527009729
21
-372.4999781207149
31
0
0
SPLINE
5
123
100
AcDbEntity
8
0
100
AcDbSpline
70
0
71
3
72
8
73
4
74
0
42
0.000000001
43
0.0000000001
44
0.0000000001
40
15
40
15
40
15
40
15
40
16
40
16
40
16
40
16
10
621.00000527009729
20
-372.4999781207149
30
0
10
621.00000527009729
20
-378.02283222496567
30
0
10
625.47716523534075
20
-382.49999219020924
30
0
10
630.99999780774488
20
-382.49999219020924
30
0
0
LINE
5
124
100
AcDbEntity
8
0
100
AcDbLine
10
1171.000027173071
20
-217.5000076597907
30
0
11
1061.0000231315598
21
-217.5000076597907
31
0
0
SPLINE
5
125
100
AcDbEntity
8
0
100
AcDbSpline
70
0
71
3
72
8
73
4
74
0
42
0.000000001
43
0.0000000001
44
0.0000000001
40
1
40
1
40
1
40
1
40
2
40
2
40
2
40
2
10
1061.0000231315598
20
-217.5000076597907
30
0
10
1055.477190559156
20
-217.5000076597907
30
0
10
1051.0000305939129
20
-221.97716762503433
30
0
10
1051.0000305939129
20
-227.50002172928509
30
0
0
LINE
5
126
100
AcDbEntity
8
0
100
AcDbLine
10
1051.0000305939129
20
-227.50002172928509
30
0
11
1051.0000305939129
21
-277.50000594936972
31
0
0
SPLINE
5
127
100
AcDbEntity
8
0
100
AcDbSpline
70
0
71
3
72
8
73
4
74
0
42
0.000000001
43
0.0000000001
44
0.0000000001
40
3
40
3
40
3
40
3
40
4
40
4
40
4
40
4
10
1051.0000305939129
20
-277.50000594936972
30
0
10
1051.0000305939129
20
-283.02286005362049
30
0
10
1055.477190559156
20
-287.50002001886412
30
0
10
1061.0000231315598
20
-287.50002001886412
30
0
0
LINE
5
128
100
AcDbEntity
8
0
100
AcDbLine
10
1061.0000231315598
20
-287.50002001886412
30
0
11
1093.000050928465
21
-287.50002001886412
31
0
0
SPLINE
5
129
100
AcDbEntity
8
0
100
AcDbSpline
70
0
71
3
72
8
73
4
74
0
42
0.000000001
43
0.0000000001
44
0.0000000001
40
5
40
5
40
5
40
5
40
6
40
6
40
6
40
6
10
1093.000050928465
20
-287.50002001886412
30
0
10
1094.656883474709
20
-287.50002001886412
30
0
10
1096.00004007702
20
-288.84315508932912
30
0
10
1096.00004007702
20
-290.50000916741965
30
0
0
LINE
5
130
100
AcDbEntity
8
0
100
AcDbLine
10
1096.00004007702
20
-290.50000916741965
30
0
11
1096.00004007702
21
-362.50000711491407
31
0
0
SPLINE
5
131
100
AcDbEntity
8
0
100
AcDbSpline
70
0
71
3
72
8
73
4
74
0
42
0.000000001
43
0.0000000001
44
0.0000000001
40
7
40
7
40
7
40
7
40
8
40
8
40
8
40
8
10
1096.00004007702
20
-362.50000711491407
30
0
10
1096.00004007702
20
-373.54571532341566
30
0
10
1104.9543600075078
20
-382.49999219020924
30
0
10
1116.0000251523161
20
-382.49999219020924
30
0
0
LINE
5
132
100
AcDbEntity
8
0
100
AcDbLine
10
1116.0000251523161
20
-382.49999219020924
30
0
11
1116.0001112797031
21
-382.49999219020924
31
0
0
SPLINE
5
133
100
AcDbEntity
8
0
100
AcDbSpline
70
0
71
3
72
8
73
4
74
0
42
0.000000001
43
0.0000000001
44
0.0000000001
40
9
40
9
40
9
40
9
40
10
40
10
40
10
40
10
10
1116.0001112797031
20
-382.49999219020924
30
0
10
1127.0457764245109
20
-382.49999219020924
30
0
10
1136.000010227611
20
-373.54571532341566
30
0
10
1136.000010227611
20
-362.50005017860769
30
0
0
LINE
5
134
100
AcDbEntity
8
0
100
AcDbLine
10
1136.000010227611
20
-362.50005017860769
30
0
11
1136.000010227611
21
-290.50000916741965
31
0
0
SPLINE
5
135
100
AcDbEntity
8
0
100
AcDbSpline
70
0
71
3
72
8
73
4
74
0
42
0.000000001
43
0.0000000001
44
0.0000000001
40
11
40
11
40
11
40
11
40
12
40
12
40
12
40
12
10
1136.000010227611
20
-290.50000916741965
30
0
10
1136.000010227611
20
-288.84315508932912
30
0
10
1137.343166829922
20
-287.50002001886412
30
0
10
1139.00004243986
20
-287.50002001886412
30
0
0
LINE
5
136
100
AcDbEntity
8
0
100
AcDbLine
10
1139.00004243986
20
-287.50002001886412
30
0
11
1171.000027173071
21
-287.50002001886412
31
0
0
SPLINE
5
137
100
AcDbEntity
8
0
100
AcDbSpline
70
0
71
3
72
8
73
4
74
0
42
0.000000001
43
0.0000000001
44
0.0000000001
40
13
40
13
40
13
40
13
40
14
40
14
40
14
40
14
10
1171.000027173071
20
-287.50002001886412
30
0
10
1176.5228597454752
20
-287.50002001886412
30
0
10
1181.0000197107179
20
-283.02286005362049
30
0
10
1181.0000197107179
20
-277.50000594936972
30
0
0
LINE
5
138
100
AcDbEntity
8
0
100
AcDbLine
10
1181.0000197107179
20
-277.50000594936972
30
0
11
1181.0000197107179
21
-227.50002172928509
31
0
0
SPLINE
5
139
100
AcDbEntity
8
0
100
AcDbSpline
70
0
71
3
72
8
73
4
74
0
42
0.000000001
43
0.0000000001
44
0.0000000001
40
15
40
15
40
15
40
15
40
16
40
16
40
16
40
16
10
1181.0000197107179
20
-227.50002172928509
30
0
10
1181.0000197107179
20
-221.97716762503433
30
0
10
1176.5228597454752
20
-217.5000076597907
30
0
10
1171.000027173071
20
-217.5000076597907
30
0
0
LINE
5
140
100
AcDbEntity
8
0
100
AcDbLine
10
655.00000187075545
20
-217.5000076597907
30
0
11
544.9999978292451
21
-217.5000076597907
31
0
0
SPLINE
5
141
100
AcDbEntity
8
0
100
AcDbSpline
70
0
71
3
72
8
73
4
74
0
42
0.000000001
43
0.0000000001
44
0.0000000001
40
1
40
1
40
1
40
1
40
2
40
2
40
2
40
2
10
544.9999978292451
20
-217.5000076597907
30
0
10
539.47716525684109
20
-217.5000076597907
30
0
10
535.00000529159752
20
-221.97716762503433
30
0
10
535.00000529159752
20
-227.50002172928509
30
0
0
LINE
5
142
100
AcDbEntity
8
0
100
AcDbLine
10
535.00000529159752
20
-227.50002172928509
30
0
11
535.00000529159752
21
-277.50000594936972
31
0
0
SPLINE
5
143
100
AcDbEntity
8
0
100
AcDbSpline
70
0
71
3
72
8
73
4
74
0
42
0.000000001
43
0.0000000001
44
0.0000000001
40
3
40
3
40
3
40
3
40
4
40
4
40
4
40
4
10
535.00000529159752
20
-277.50000594936972
30
0
10
535.00000529159752
20
-283.02286005362049
30
0
10
539.47716525684109
20
-287.50002001886412
30
0
10
544.9999978292451
20
-287.50002001886412
30
0
0
LINE
5
144
100
AcDbEntity
8
0
100
AcDbLine
10
544.9999978292451
20
-287.50002001886412
30
0
11
577.00002562614964
21
-287.50002001886412
31
0
0
SPLINE
5
145
100
AcDbEntity
8
0
100
AcDbSpline
70
0
71
3
72
8
73
4
74
0
42
0.000000001
43
0.0000000001
44
0.0000000001
40
5
40
5
40
5
40
5
40
6
40
6
40
6
40
6
10
577.00002562614964
20
-287.50002001886412
30
0
10
578.6568581723933
20
-287.50002001886412
30
0
10
580.00001477470528
20
-288.84315508932912
30
0
10
580.00001477470528
20
-290.50000916741965
30
0
0
LINE
5
146
100
AcDbEntity
8
0
100
AcDbLine
10
580.00001477470528
20
-290.50000916741965
30
0
11
580.00001477470528
21
-362.50000711491407
31
0
0
SPLINE
5
147
100
AcDbEntity
8
0
100
AcDbSpline
70
0
71
3
72
8
73
4
74
0
42
0.000000001
43
0.0000000001
44
0.0000000001
40
7
40
7
40
7
40
7
40
8
40
8
40
8
40
8
10
580.00001477470528
20
-362.50000711491407
30
0
10
580.00001477470528
20
-373.54571532341566
30
0
10
588.95433470519242
20
-382.49999219020924
30
0
10
599.99999985000022
20
-382.49999219020924
30
0
0
LINE
5
148
100
AcDbEntity
8
0
100
AcDbLine
10
599.99999985000022
20
-382.49999219020924
30
0
11
600.00008597738747
21
-382.49999219020924
31
0
0
SPLINE
5
149
100
AcDbEntity
8
0
100
AcDbSpline
70
0
71
3
72
8
73
4
74
0
42
0.000000001
43
0.0000000001
44
0.0000000001
40
9
40
9
40
9
40
9
40
10
40
10
40
10
40
10
10
600.00008597738747
20
-382.49999219020924
30
0
10
611.0457511221955
20
-382.49999219020924
30
0
10
619.99998492529539
20
-373.54571532341566
30
0
10
619.99998492529539
20
-362.50005017860769
30
0
0
LINE
5
150
100
AcDbEntity
8
0
100
AcDbLine
10
619.99998492529539
20
-362.50005017860769
30
0
11
619.99998492529539
21
-290.50000916741965
31
0
0
SPLINE
5
151
100
AcDbEntity
8
0
100
AcDbSpline
70
0
71
3
72
8
73
4
74
0
42
0.000000001
43
0.0000000001
44
0.0000000001
40
11
40
11
40
11
40
11
40
12
40
12
40
12
40
12
10
619.99998492529539
20
-290.50000916741965
30
0
10
619.99998492529539
20
-288.84315508932912
30
0
10
621.34314152760726
20
-287.50002001886412
30
0
10
623.00001713754443
20
-287.50002001886412
30
0
0
LINE
5
152
100
AcDbEntity
8
0
100
AcDbLine
10
623.00001713754443
20
-287.50002001886412
30
0
11
655.00000187075545
21
-287.50002001886412
31
0
0
SPLINE
5
153
100
AcDbEntity
8
0
100
AcDbSpline
70
0
71
3
72
8
73
4
74
0
42
0.000000001
43
0.0000000001
44
0.0000000001
40
13
40
13
40
13
40
13
40
14
40
14
40
14
40
14
10
655.00000187075545
20
-287.50002001886412
30
0
10
660.52283444315947
20
-287.50002001886412
30
0
10
664.99999440840315
20
-283.02286005362049
30
0
10
664.99999440840315
20
-277.50000594936972
30
0
0
LINE
5
154
100
AcDbEntity
8
0
100
AcDbLine
10
664.99999440840315
20
-277.50000594936972
30
0
11
664.99999440840315
21
-227.50002172928509
31
0
0
SPLINE
5
155
100
AcDbEntity
8
0
100
AcDbSpline
70
0
71
3
72
8
73
4
74
0
42
0.000000001
43
0.0000000001
44
0.0000000001
40
15
40
15
40
15
40
15
40
16
40
16
40
16
40
16
10
664.99999440840315
20
-227.50002172928509
30
0
10
664.99999440840315
20
-221.97716762503433
30
0
10
660.52283444315947
20
-217.5000076597907
30
0
10
655.00000187075545
20
-217.5000076597907
30
0
0
SPLINE
5
156
100
AcDbEntity
8
0
100
AcDbSpline
70
0
71
3
72
17
73
13
74
0
42
0.000000001
43
0.0000000001
44
0.0000000001
40
0
40
0
40
0
40
0
40
1
40
1
40
1
40
2
40
2
40
2
40
3
40
3
40
3
40
4
40
4
40
4
40
4
10
858.00000402405249
20
-279.49999153779078
30
0
10
859.93296097343898
20
-279.49999153779078
30
0
10
861.49996265490483
20
-281.06699321925669
30
0
10
861.49996265490483
20
-282.99999323233686
30
0
10
861.49996265490483
20
-284.93299324541698
30
0
10
859.93296097343898
20
-286.49999492688283
30
0
10
858.00000402405249
20
-286.49999492688283
30
0
10
856.06696094727886
20
-286.49999492688283
30
0
10
854.499959265813
20
-284.93299324541698
30
0
10
854.499959265813
20
-282.99999323233686
30
0
10
854.499959265813
20
-281.06699321925669
30
0
10
856.06696094727886
20
-279.49999153779078
30
0
10
858.00000402405249
20
-279.49999153779078
30
0
0
LINE
5
157
100
AcDbEntity
8
0
100
AcDbLine
10
999.00001026186033
20
-217.5000076597907
30
0
11
889.00000622035009
21
-217.5000076597907
31
0
0
SPLINE
5
158
100
AcDbEntity
8
0
100
AcDbSpline
70
0
71
3
72
8
73
4
74
0
42
0.000000001
43
0.0000000001
44
0.0000000001
40
1
40
1
40
1
40
1
40
2
40
2
40
2
40
2
10
889.00000622035009
20
-217.5000076597907
30
0
10
883.47717364794607
20
-217.5000076597907
30
0
10
879.00001368270239
20
-221.97716762503433
30
0
10
879.00001368270239
20
-227.50002172928509
30
0
0
LINE
5
159
100
AcDbEntity
8
0
100
AcDbLine
10
879.00001368270239
20
-227.50002172928509
30
0
11
879.00001368270239
21
-277.50000594936972
31
0
0
SPLINE
5
160
100
AcDbEntity
8
0
100
AcDbSpline
70
0
71
3
72
8
73
4
74
0
42
0.000000001
43
0.0000000001
44
0.0000000001
40
3
40
3
40
3
40
3
40
4
40
4
40
4
40
4
10
879.00001368270239
20
-277.50000594936972
30
0
10
879.00001368270239
20
-283.02286005362049
30
0
10
883.47717364794607
20
-287.50002001886412
30
0
10
889.00000622035009
20
-287.50002001886412
30
0
0
LINE
5
161
100
AcDbEntity
8
0
100
AcDbLine
10
889.00000622035009
20
-287.50002001886412
30
0
11
921.00003401725428
21
-287.50002001886412
31
0
0
SPLINE
5
162
100
AcDbEntity
8
0
100
AcDbSpline
70
0
71
3
72
8
73
4
74
0
42
0.000000001
43
0.0000000001
44
0.0000000001
40
5
40
5
40
5
40
5
40
6
40
6
40
6
40
6
10
921.00003401725428
20
-287.50002001886412
30
0
10
922.6568665634984
20
-287.50002001886412
30
0
10
924.00002316580992
20
-288.84315508932912
30
0
10
924.00002316580992
20
-290.50000916741965
30
0
0
LINE
5
163
100
AcDbEntity
8
0
100
AcDbLine
10
924.00002316580992
20
-290.50000916741965
30
0
11
924.00002316580992
21
-362.50000711491407
31
0
0
SPLINE
5
164
100
AcDbEntity
8
0
100
AcDbSpline
70
0
71
3
72
8
73
4
74
0
42
0.000000001
43
0.0000000001
44
0.0000000001
40
7
40
7
40
7
40
7
40
8
40
8
40
8
40
8
10
924.00002316580992
20
-362.50000711491407
30
0
10
924.00002316580992
20
-373.54571532341566
30
0
10
932.95434309629741
20
-382.49999219020924
30
0
10
944.00000824110521
20
-382.49999219020924
30
0
0
LINE
5
165
100
AcDbEntity
8
0
100
AcDbLine
10
944.00000824110521
20
-382.49999219020924
30
0
11
944.00009436849246
21
-382.49999219020924
31
0
0
SPLINE
5
166
100
AcDbEntity
8
0
100
AcDbSpline
70
0
71
3
72
8
73
4
74
0
42
0.000000001
43
0.0000000001
44
0.0000000001
40
9
40
9
40
9
40
9
40
10
40
10
40
10
40
10
10
944.00009436849246
20
-382.49999219020924
30
0
10
955.04575951330037
20
-382.49999219020924
30
0
10
963.99999331640038
20
-373.54571532341566
30
0
10
963.99999331640038
20
-362.50005017860769
30
0
0
LINE
5
167
100
AcDbEntity
8
0
100
AcDbLine
10
963.99999331640038
20
-362.50005017860769
30
0
11
963.99999331640038
21
-290.50000916741965
31
0
0
SPLINE
5
168
100
AcDbEntity
8
0
100
AcDbSpline
70
0
71
3
72
8
73
4
74
0
42
0.000000001
43
0.0000000001
44
0.0000000001
40
11
40
11
40
11
40
11
40
12
40
12
40
12
40
12
10
963.99999331640038
20
-290.50000916741965
30
0
10
963.99999331640038
20
-288.84315508932912
30
0
10
965.34314991871213
20
-287.50002001886412
30
0
10
967.00002552864976
20
-287.50002001886412
30
0
0
LINE
5
169
100
AcDbEntity
8
0
100
AcDbLine
10
967.00002552864976
20
-287.50002001886412
30
0
11
999.00001026186033
21
-287.50002001886412
31
0
0
SPLINE
5
170
100
AcDbEntity
8
0
100
AcDbSpline
70
0
71
3
72
8
73
4
74
0
42
0.000000001
43
0.0000000001
44
0.0000000001
40
13
40
13
40
13
40
13
40
14
40
14
40
14
40
14
10
999.00001026186033
20
-287.50002001886412
30
0
10
1004.5228428342642
20
-287.50002001886412
30
0
10
1009.000002799508
20
-283.02286005362049
30
0
10
1009.000002799508
20
-277.50000594936972
30
0
0
LINE
5
171
100
AcDbEntity
8
0
100
AcDbLine
10
1009.000002799508
20
-277.50000594936972
30
0
11
1009.000002799508
21
-227.50002172928509
31
0
0
SPLINE
5
172
100
AcDbEntity
8
0
100
AcDbSpline
70
0
71
3
72
8
73
4
74
0
42
0.000000001
43
0.0000000001
44
0.0000000001
40
15
40
15
40
15
40
15
40
16
40
16
40
16
40
16
10
1009.000002799508
20
-227.50002172928509
30
0
10
1009.000002799508
20
-221.97716762503433
30
0
10
1004.5228428342642
20
-217.5000076597907
30
0
10
999.00001026186033
20
-217.5000076597907
30
0
0
SPLINE
5
173
100
AcDbEntity
8
0
100
AcDbSpline
70
0
71
3
72
17
73
13
74
0
42
0.000000001
43
0.0000000001
44
0.0000000001
40
0
40
0
40
0
40
0
40
1
40
1
40
1
40
2
40
2
40
2
40
3
40
3
40
3
40
4
40
4
40
4
40
4
10
341.99999143739512
20
-279.49999153779078
30
0
10
343.93294838678167
20
-279.49999153779078
30
0
10
345.49995006824753
20
-281.06699321925669
30
0
10
345.49995006824753
20
-282.99999323233686
30
0
10
345.49995006824753
20
-284.93299324541698
30
0
10
343.93294838678167
20
-286.49999492688283
30
0
10
341.99999143739512
20
-286.49999492688283
30
0
10
340.06694836062138
20
-286.49999492688283
30
0
10
338.49994667915553
20
-284.93299324541698
30
0
10
338.49994667915553
20
-282.99999323233686
30
0
10
338.49994667915553
20
-281.06699321925669
30
0
10
340.06694836062138
20
-279.49999153779078
30
0
10
341.99999143739512
20
-279.49999153779078
30
0
0
SPLINE
5
174
100
AcDbEntity
8
0
100
AcDbSpline
70
0
71
3
72
8
73
4
74
0
42
0.000000001
43
0.0000000001
44
0.0000000001
40
0
40
0
40
0
40
0
40
1
40
1
40
1
40
1
10
773.99999845016293
20
-373.99999422683953
30
0
10
773.99999845016293
20
-374.55228609681859
30
0
10
773.55226522816133
20
-375.00001931882036
30
0
10
773.00001642187578
20
-375.00001931882036
30
0
0
LINE
5
175
100
AcDbEntity
8
0
100
AcDbLine
10
773.00001642187578
20
-375.00001931882036
30
0
11
771.00000930160763
21
-375.00001931882036
31
0
0
SPLINE
5
176
100
AcDbEntity
8
0
100
AcDbSpline
70
0
71
3
72
8
73
4
74
0
42
0.000000001
43
0.0000000001
44
0.0000000001
40
2
40
2
40
2
40
2
40
3
40
3
40
3
40
3
10
771.00000930160763
20
-375.00001931882036
30
0
10
770.44771743162823
20
-375.00001931882036
30
0
10
770.00002727332014
20
-374.55228609681859
30
0
10
770.00002727332014
20
-373.99999422683953
30
0
0
LINE
5
177
100
AcDbEntity
8
0
100
AcDbLine
10
770.00002727332014
20
-373.99999422683953
30
0
11
770.00002727332014
21
-366.00000880946021
31
0
0
SPLINE
5
178
100
AcDbEntity
8
0
100
AcDbSpline
70
0
71
3
72
8
73
4
74
0
42
0.000000001
43
0.0000000001
44
0.0000000001
40
4
40
4
40
4
40
4
40
5
40
5
40
5
40
5
10
770.00002727332014
20
-366.00000880946021
30
0
10
770.00002727332014
20
-365.44771693948098
30
0
10
770.44771743162823
20
-365.00002678117278
30
0
10
771.00000930160763
20
-365.00002678117278
30
0
0
LINE
5
179
100
AcDbEntity
8
0
100
AcDbLine
10
771.00000930160763
20
-365.00002678117278
30
0
11
773.00001642187578
21
-365.00002678117278
31
0
0
SPLINE
5
180
100
AcDbEntity
8
0
100
AcDbSpline
70
0
71
3
72
8
73
4
74
0
42
0.000000001
43
0.0000000001
44
0.0000000001
40
6
40
6
40
6
40
6
40
7
40
7
40
7
40
7
10
773.00001642187578
20
-365.00002678117278
30
0
10
773.55226522816133
20
-365.00002678117278
30
0
10
773.99999845016293
20
-365.44771693948098
30
0
10
773.99999845016293
20
-366.00000880946021
30
0
0
LINE
5
181
100
AcDbEntity
8
0
100
AcDbLine
10
773.99999845016293
20
-366.00000880946021
30
0
11
773.99999845016293
21
-373.99999422683953
31
0
0
LINE
5
182
100
AcDbEntity
8
0
100
AcDbLine
10
803.00000200329737
20
-382.49999219020924
30
0
11
913.00000604480772
21
-382.49999219020924
31
0
0
SPLINE
5
183
100
AcDbEntity
8
0
100
AcDbSpline
70
0
71
3
72
8
73
4
74
0
42
0.000000001
43
0.0000000001
44
0.0000000001
40
1
40
1
40
1
40
1
40
2
40
2
40
2
40
2
10
913.00000604480772
20
-382.49999219020924
30
0
10
918.52283861721162
20
-382.49999219020924
30
0
10
922.99999858245542
20
-378.02283222496567
30
0
10
922.99999858245542
20
-372.4999781207149
30
0
0
LINE
5
184
100
AcDbEntity
8
0
100
AcDbLine
10
922.99999858245542
20
-372.4999781207149
30
0
11
922.99999858245542
21
-322.49999390063033
31
0
0
SPLINE
5
185
100
AcDbEntity
8
0
100
AcDbSpline
70
0
71
3
72
8
73
4
74
0
42
0.000000001
43
0.0000000001
44
0.0000000001
40
3
40
3
40
3
40
3
40
4
40
4
40
4
40
4
10
922.99999858245542
20
-322.49999390063033
30
0
10
922.99999858245542
20
-316.97713979637933
30
0
10
918.52283861721162
20
-312.49997983113587
30
0
10
913.00000604480772
20
-312.49997983113587
30
0
0
LINE
5
186
100
AcDbEntity
8
0
100
AcDbLine
10
913.00000604480772
20
-312.49997983113587
30
0
11
880.9999782479033
21
-312.49997983113587
31
0
0
SPLINE
5
187
100
AcDbEntity
8
0
100
AcDbSpline
70
0
71
3
72
8
73
4
74
0
42
0.000000001
43
0.0000000001
44
0.0000000001
40
5
40
5
40
5
40
5
40
6
40
6
40
6
40
6
10
880.9999782479033
20
-312.49997983113587
30
0
10
879.34314570165952
20
-312.49997983113587
30
0
10
877.99998909934754
20
-311.15684476067088
30
0
10
877.99998909934754
20
-309.49999068258029
30
0
0
LINE
5
188
100
AcDbEntity
8
0
100
AcDbLine
10
877.99998909934754
20
-309.49999068258029
30
0
11
877.99998909934754
21
-237.4999927350855
31
0
0
SPLINE
5
189
100
AcDbEntity
8
0
100
AcDbSpline
70
0
71
3
72
8
73
4
74
0
42
0.000000001
43
0.0000000001
44
0.0000000001
40
7
40
7
40
7
40
7
40
8
40
8
40
8
40
8
10
877.99998909934754
20
-237.4999927350855
30
0
10
877.99998909934754
20
-226.45428452658393
30
0
10
869.04566916886051
20
-217.50000765979041
30
0
10
858.00000402405249
20
-217.50000765979041
30
0
0
LINE
5
190
100
AcDbEntity
8
0
100
AcDbLine
10
858.00000402405249
20
-217.50000765979041
30
0
11
857.99991789666535
21
-217.50000765979041
31
0
0
SPLINE
5
191
100
AcDbEntity
8
0
100
AcDbSpline
70
0
71
3
72
8
73
4
74
0
42
0.000000001
43
0.0000000001
44
0.0000000001
40
9
40
9
40
9
40
9
40
10
40
10
40
10
40
10
10
857.99991789666535
20
-217.50000765979041
30
0
10
846.95425275185744
20
-217.50000765979041
30
0
10
838.00001894875732
20
-226.45428452658393
30
0
10
838.00001894875732
20
-237.49994967139202
30
0
0
LINE
5
192
100
AcDbEntity
8
0
100
AcDbLine
10
838.00001894875732
20
-237.49994967139202
30
0
11
838.00001894875732
21
-309.49999068258029
31
0
0
SPLINE
5
193
100
AcDbEntity
8
0
100
AcDbSpline
70
0
71
3
72
8
73
4
74
0
42
0.000000001
43
0.0000000001
44
0.0000000001
40
11
40
11
40
11
40
11
40
12
40
12
40
12
40
12
10
838.00001894875732
20
-309.49999068258029
30
0
10
838.00001894875732
20
-311.15684476067088
30
0
10
836.65686234644568
20
-312.49997983113587
30
0
10
834.99998673650816
20
-312.49997983113587
30
0
0
LINE
5
194
100
AcDbEntity
8
0
100
AcDbLine
10
834.99998673650816
20
-312.49997983113587
30
0
11
803.00000200329737
21
-312.49997983113587
31
0
0
SPLINE
5
195
100
AcDbEntity
8
0
100
AcDbSpline
70
0
71
3
72
8
73
4
74
0
42
0.000000001
43
0.0000000001
44
0.0000000001
40
13
40
13
40
13
40
13
40
14
40
14
40
14
40
14
10
803.00000200329737
20
-312.49997983113587
30
0
10
797.47716943089335
20
-312.49997983113587
30
0
10
793.00000946564978
20
-316.97713979637933
30
0
10
793.00000946564978
20
-322.49999390063033
30
0
0
LINE
5
196
100
AcDbEntity
8
0
100
AcDbLine
10
793.00000946564978
20
-322.49999390063033
30
0
11
793.00000946564978
21
-372.4999781207149
31
0
0
SPLINE
5
197
100
AcDbEntity
8
0
100
AcDbSpline
70
0
71
3
72
8
73
4
74
0
42
0.000000001
43
0.0000000001
44
0.0000000001
40
15
40
15
40
15
40
15
40
16
40
16
40
16
40
16
10
793.00000946564978
20
-372.4999781207149
30
0
10
793.00000946564978
20
-378.02283222496567
30
0
10
797.47716943089335
20
-382.49999219020924
30
0
10
803.00000200329737
20
-382.49999219020924
30
0
0
SPLINE
5
198
100
AcDbEntity
8
0
100
AcDbSpline
70
0
71
3
72
17
73
13
74
0
42
0.000000001
43
0.0000000001
44
0.0000000001
40
0
40
0
40
0
40
0
40
1
40
1
40
1
40
2
40
2
40
2
40
3
40
3
40
3
40
4
40
4
40
4
40
4
10
944.00000824110521
20
-320.50000831220882
30
0
10
942.06705129171883
20
-320.50000831220882
30
0
10
940.50004961025263
20
-318.93300663074285
30
0
10
940.50004961025263
20
-317.00000661766285
30
0
10
940.50004961025263
20
-315.06700660458267
30
0
10
942.06705129171883
20
-313.50000492311682
30
0
10
944.00000824110521
20
-313.50000492311682
30
0
10
945.93305131787918
20
-313.50000492311682
30
0
10
947.50005299934492
20
-315.06700660458267
30
0
10
947.50005299934492
20
-317.00000661766285
30
0
10
947.50005299934492
20
-318.93300663074285
30
0
10
945.93305131787918
20
-320.50000831220882
30
0
10
944.00000824110521
20
-320.50000831220882
30
0
0
SPLINE
5
199
100
AcDbEntity
8
0
100
AcDbSpline
70
0
71
3
72
8
73
4
74
0
42
0.000000001
43
0.0000000001
44
0.0000000001
40
0
40
0
40
0
40
0
40
1
40
1
40
1
40
1
10
1028.0000010993372
20
-226.00000562316018
30
0
10
1028.0000010993372
20
-225.44771375318106
30
0
10
1028.447734321338
20
-224.99998053117935
30
0
10
1028.9999831276241
20
-224.99998053117935
30
0
0
LINE
5
200
100
AcDbEntity
8
0
100
AcDbLine
10
1028.9999831276241
20
-224.99998053117935
30
0
11
1030.9999902478919
21
-224.99998053117935
31
0
0
SPLINE
5
201
100
AcDbEntity
8
0
100
AcDbSpline
70
0
71
3
72
8
73
4
74
0
42
0.000000001
43
0.0000000001
44
0.0000000001
40
2
40
2
40
2
40
2
40
3
40
3
40
3
40
3
10
1030.9999902478919
20
-224.99998053117935
30
0
10
1031.5522821178708
20
-224.99998053117935
30
0
10
1031.9999722761802
20
-225.44771375318106
30
0
10
1031.9999722761802
20
-226.00000562316018
30
0
0
LINE
5
202
100
AcDbEntity
8
0
100
AcDbLine
10
1031.9999722761802
20
-226.00000562316018
30
0
11
1031.9999722761802
21
-233.9999910405395
31
0
0
SPLINE
5
203
100
AcDbEntity
8
0
100
AcDbSpline
70
0
71
3
72
8
73
4
74
0
42
0.000000001
43
0.0000000001
44
0.0000000001
40
4
40
4
40
4
40
4
40
5
40
5
40
5
40
5
10
1031.9999722761802
20
-233.9999910405395
30
0
10
1031.9999722761802
20
-234.55228291051864
30
0
10
1031.5522821178708
20
-234.9999730688269
30
0
10
1030.9999902478919
20
-234.9999730688269
30
0
0
LINE
5
204
100
AcDbEntity
8
0
100
AcDbLine
10
1030.9999902478919
20
-234.9999730688269
30
0
11
1028.9999831276241
21
-234.9999730688269
31
0
0
SPLINE
5
205
100
AcDbEntity
8
0
100
AcDbSpline
70
0
71
3
72
8
73
4
74
0
42
0.000000001
43
0.0000000001
44
0.0000000001
40
6
40
6
40
6
40
6
40
7
40
7
40
7
40
7
10
1028.9999831276241
20
-234.9999730688269
30
0
10
1028.447734321338
20
-234.9999730688269
30
0
10
1028.0000010993372
20
-234.55228291051864
30
0
10
1028.0000010993372
20
-233.9999910405395
30
0
0
LINE
5
206
100
AcDbEntity
8
0
100
AcDbLine
10
1028.0000010993372
20
-233.9999910405395
30
0
11
1028.0000010993372
21
-226.00000562316018
31
0
0
SPLINE
5
207
100
AcDbEntity
8
0
100
AcDbSpline
70
0
71
3
72
17
73
13
74
0
42
0.000000001
43
0.0000000001
44
0.0000000001
40
0
40
0
40
0
40
0
40
1
40
1
40
1
40
2
40
2
40
2
40
3
40
3
40
3
40
4
40
4
40
4
40
4
10
599.99999985000022
20
-320.50000831220882
30
0
10
598.06704290061373
20
-320.50000831220882
30
0
10
596.50004121914787
20
-318.93300663074285
30
0
10
596.50004121914787
20
-317.00000661766285
30
0
10
596.50004121914787
20
-315.06700660458267
30
0
10
598.06704290061373
20
-313.50000492311682
30
0
10
599.99999985000022
20
-313.50000492311682
30
0
10
601.93304292677396
20
-313.50000492311682
30
0
10
603.5000446082397
20
-315.06700660458267
30
0
10
603.5000446082397
20
-317.00000661766285
30
0
10
603.5000446082397
20
-318.93300663074285
30
0
10
601.93304292677396
20
-320.50000831220882
30
0
10
599.99999985000022
20
-320.50000831220882
30
0
0
SPLINE
5
208
100
AcDbEntity
8
0
100
AcDbSpline
70
0
71
3
72
8
73
4
74
0
42
0.000000001
43
0.0000000001
44
0.0000000001
40
0
40
0
40
0
40
0
40
1
40
1
40
1
40
1
10
683.99999270823173
20
-226.00000562316018
30
0
10
683.99999270823173
20
-225.44771375318106
30
0
10
684.44772593023356
20
-224.99998053117935
30
0
10
684.99997473651911
20
-224.99998053117935
30
0
0
LINE
5
209
100
AcDbEntity
8
0
100
AcDbLine
10
684.99997473651911
20
-224.99998053117935
30
0
11
686.99998185678737
21
-224.99998053117935
31
0
0
SPLINE
5
210
100
AcDbEntity
8
0
100
AcDbSpline
70
0
71
3
72
8
73
4
74
0
42
0.000000001
43
0.0000000001
44
0.0000000001
40
2
40
2
40
2
40
2
40
3
40
3
40
3
40
3
10
686.99998185678737
20
-224.99998053117935
30
0
10
687.55227372676632
20
-224.99998053117935
30
0
10
687.99996388507464
20
-225.44771375318106
30
0
10
687.99996388507464
20
-226.00000562316018
30
0
0
LINE
5
211
100
AcDbEntity
8
0
100
AcDbLine
10
687.99996388507464
20
-226.00000562316018
30
0
11
687.99996388507464
21
-233.9999910405395
31
0
0
SPLINE
5
212
100
AcDbEntity
8
0
100
AcDbSpline
70
0
71
3
72
8
73
4
74
0
42
0.000000001
43
0.0000000001
44
0.0000000001
40
4
40
4
40
4
40
4
40
5
40
5
40
5
40
5
10
687.99996388507464
20
-233.9999910405395
30
0
10
687.99996388507464
20
-234.55228291051864
30
0
10
687.55227372676632
20
-234.9999730688269
30
0
10
686.99998185678737
20
-234.9999730688269
30
0
0
LINE
5
213
100
AcDbEntity
8
0
100
AcDbLine
10
686.99998185678737
20
-234.9999730688269
30
0
11
684.99997473651911
21
-234.9999730688269
31
0
0
SPLINE
5
214
100
AcDbEntity
8
0
100
AcDbSpline
70
0
71
3
72
8
73
4
74
0
42
0.000000001
43
0.0000000001
44
0.0000000001
40
6
40
6
40
6
40
6
40
7
40
7
40
7
40
7
10
684.99997473651911
20
-234.9999730688269
30
0
10
684.44772593023356
20
-234.9999730688269
30
0
10
683.99999270823173
20
-234.55228291051864
30
0
10
683.99999270823173
20
-233.9999910405395
30
0
0
LINE
5
215
100
AcDbEntity
8
0
100
AcDbLine
10
683.99999270823173
20
-233.9999910405395
30
0
11
683.99999270823173
21
-226.00000562316018
31
0
0
SPLINE
5
216
100
AcDbEntity
8
0
100
AcDbSpline
70
0
71
3
72
8
73
4
74
0
42
0.000000001
43
0.0000000001
44
0.0000000001
40
0
40
0
40
0
40
0
40
1
40
1
40
1
40
1
10
946.0000153613737
20
-373.99999422683953
30
0
10
946.0000153613737
20
-374.55228609681859
30
0
10
945.55228213937175
20
-375.00001931882036
30
0
10
945.00003333308598
20
-375.00001931882036
30
0
0
LINE
5
217
100
AcDbEntity
8
0
100
AcDbLine
10
945.00003333308598
20
-375.00001931882036
30
0
11
943.00002621281783
21
-375.00001931882036
31
0
0
SPLINE
5
218
100
AcDbEntity
8
0
100
AcDbSpline
70
0
71
3
72
8
73
4
74
0
42
0.000000001
43
0.0000000001
44
0.0000000001
40
2
40
2
40
2
40
2
40
3
40
3
40
3
40
3
10
943.00002621281783
20
-375.00001931882036
30
0
10
942.44773434283888
20
-375.00001931882036
30
0
10
942.00004418453079
20
-374.55228609681859
30
0
10
942.00004418453079
20
-373.99999422683953
30
0
0
LINE
5
219
100
AcDbEntity
8
0
100
AcDbLine
10
942.00004418453079
20
-373.99999422683953
30
0
11
942.00004418453079
21
-366.00000880946021
31
0
0
SPLINE
5
220
100
AcDbEntity
8
0
100
AcDbSpline
70
0
71
3
72
8
73
4
74
0
42
0.000000001
43
0.0000000001
44
0.0000000001
40
4
40
4
40
4
40
4
40
5
40
5
40
5
40
5
10
942.00004418453079
20
-366.00000880946021
30
0
10
942.00004418453079
20
-365.44771693948098
30
0
10
942.44773434283888
20
-365.00002678117278
30
0
10
943.00002621281783
20
-365.00002678117278
30
0
0
LINE
5
221
100
AcDbEntity
8
0
100
AcDbLine
10
943.00002621281783
20
-365.00002678117278
30
0
11
945.00003333308598
21
-365.00002678117278
31
0
0
SPLINE
5
222
100
AcDbEntity
8
0
100
AcDbSpline
70
0
71
3
72
8
73
4
74
0
42
0.000000001
43
0.0000000001
44
0.0000000001
40
6
40
6
40
6
40
6
40
7
40
7
40
7
40
7
10
945.00003333308598
20
-365.00002678117278
30
0
10
945.55228213937175
20
-365.00002678117278
30
0
10
946.0000153613737
20
-365.44771693948098
30
0
10
946.0000153613737
20
-366.00000880946021
30
0
0
LINE
5
223
100
AcDbEntity
8
0
100
AcDbLine
10
946.0000153613737
20
-366.00000880946021
30
0
11
946.0000153613737
21
-373.99999422683953
31
0
0
SPLINE
5
224
100
AcDbEntity
8
0
100
AcDbSpline
70
0
71
3
72
17
73
13
74
0
42
0.000000001
43
0.0000000001
44
0.0000000001
40
0
40
0
40
0
40
0
40
1
40
1
40
1
40
2
40
2
40
2
40
3
40
3
40
3
40
4
40
4
40
4
40
4
10
685.99999982850011
20
-279.49999153779078
30
0
10
687.93295677788649
20
-279.49999153779078
30
0
10
689.49995845935268
20
-281.06699321925669
30
0
10
689.49995845935268
20
-282.99999323233686
30
0
10
689.49995845935268
20
-284.93299324541698
30
0
10
687.93295677788649
20
-286.49999492688283
30
0
10
685.99999982850011
20
-286.49999492688283
30
0
10
684.06695675172625
20
-286.49999492688283
30
0
10
682.4999550702604
20
-284.93299324541698
30
0
10
682.4999550702604
20
-282.99999323233686
30
0
10
682.4999550702604
20
-281.06699321925669
30
0
10
684.06695675172625
20
-279.49999153779078
30
0
10
685.99999982850011
20
-279.49999153779078
30
0
0
SPLINE
5
225
100
AcDbEntity
8
0
100
AcDbSpline
70
0
71
3
72
8
73
4
74
0
42
0.000000001
43
0.0000000001
44
0.0000000001
40
0
40
0
40
0
40
0
40
1
40
1
40
1
40
1
10
1118.0000322725841
20
-373.99999422683953
30
0
10
1118.0000322725841
20
-374.55228609681859
30
0
10
1117.552299050582
20
-375.00001931882036
30
0
10
1117.000050244297
20
-375.00001931882036
30
0
0
LINE
5
226
100
AcDbEntity
8
0
100
AcDbLine
10
1117.000050244297
20
-375.00001931882036
30
0
11
1115.000043124028
21
-375.00001931882036
31
0
0
SPLINE
5
227
100
AcDbEntity
8
0
100
AcDbSpline
70
0
71
3
72
8
73
4
74
0
42
0.000000001
43
0.0000000001
44
0.0000000001
40
2
40
2
40
2
40
2
40
3
40
3
40
3
40
3
10
1115.000043124028
20
-375.00001931882036
30
0
10
1114.4477512540491
20
-375.00001931882036
30
0
10
1114.0000610957409
20
-374.55228609681859
30
0
10
1114.0000610957409
20
-373.99999422683953
30
0
0
LINE
5
228
100
AcDbEntity
8
0
100
AcDbLine
10
1114.0000610957409
20
-373.99999422683953
30
0
11
1114.0000610957409
21
-366.00000880946021
31
0
0
SPLINE
5
229
100
AcDbEntity
8
0
100
AcDbSpline
70
0
71
3
72
8
73
4
74
0
42
0.000000001
43
0.0000000001
44
0.0000000001
40
4
40
4
40
4
40
4
40
5
40
5
40
5
40
5
10
1114.0000610957409
20
-366.00000880946021
30
0
10
1114.0000610957409
20
-365.44771693948098
30
0
10
1114.4477512540491
20
-365.00002678117278
30
0
10
1115.000043124028
20
-365.00002678117278
30
0
0
LINE
5
230
100
AcDbEntity
8
0
100
AcDbLine
10
1115.000043124028
20
-365.00002678117278
30
0
11
1117.000050244297
21
-365.00002678117278
31
0
0
SPLINE
5
231
100
AcDbEntity
8
0
100
AcDbSpline
70
0
71
3
72
8
73
4
74
0
42
0.000000001
43
0.0000000001
44
0.0000000001
40
6
40
6
40
6
40
6
40
7
40
7
40
7
40
7
10
1117.000050244297
20
-365.00002678117278
30
0
10
1117.552299050582
20
-365.00002678117278
30
0
10
1118.0000322725841
20
-365.44771693948098
30
0
10
1118.0000322725841
20
-366.00000880946021
30
0
0
LINE
5
232
100
AcDbEntity
8
0
100
AcDbLine
10
1118.0000322725841
20
-366.00000880946021
30
0
11
1118.0000322725841
21
-373.99999422683953
31
0
0
SPLINE
5
233
100
AcDbEntity
8
0
100
AcDbSpline
70
0
71
3
72
17
73
13
74
0
42
0.000000001
43
0.0000000001
44
0.0000000001
40
0
40
0
40
0
40
0
40
1
40
1
40
1
40
2
40
2
40
2
40
3
40
3
40
3
40
4
40
4
40
4
40
4
10
1030.000008219605
20
-279.49999153779078
30
0
10
1031.9329651689909
20
-279.49999153779078
30
0
10
1033.499966850457
20
-281.06699321925669
30
0
10
1033.499966850457
20
-282.99999323233686
30
0
10
1033.499966850457
20
-284.93299324541698
30
0
10
1031.9329651689909
20
-286.49999492688283
30
0
10
1030.000008219605
20
-286.49999492688283
30
0
10
1028.0669651428309
20
-286.49999492688283
30
0
10
1026.499963461365
20
-284.93299324541698
30
0
10
1026.499963461365
20
-282.99999323233686
30
0
10
1026.499963461365
20
-281.06699321925669
30
0
10
1028.0669651428309
20
-279.49999153779078
30
0
10
1030.000008219605
20
-279.49999153779078
30
0
0
LINE
5
234
100
AcDbEntity
8
0
100
AcDbLine
10
138.99997656843991
20
-217.5000076597907
30
0
11
28.999972526929465
21
-217.5000076597907
31
0
0
SPLINE
5
235
100
AcDbEntity
8
0
100
AcDbSpline
70
0
71
3
72
8
73
4
74
0
42
0.000000001
43
0.0000000001
44
0.0000000001
40
1
40
1
40
1
40
1
40
2
40
2
40
2
40
2
10
28.999972526929461
20
-217.5000076597907
30
0
10
23.477139954525441
20
-217.5000076597907
30
0
10
18.99997998928189
20
-221.97716762503433
30
0
10
18.99997998928189
20
-227.50002172928509
30
0
0
LINE
5
236
100
AcDbEntity
8
0
100
AcDbLine
10
18.99997998928189
20
-227.50002172928509
30
0
11
18.99997998928189
21
-277.50000594936972
31
0
0
SPLINE
5
237
100
AcDbEntity
8
0
100
AcDbSpline
70
0
71
3
72
8
73
4
74
0
42
0.000000001
43
0.0000000001
44
0.0000000001
40
3
40
3
40
3
40
3
40
4
40
4
40
4
40
4
10
18.99997998928189
20
-277.50000594936972
30
0
10
18.99997998928189
20
-283.02286005362049
30
0
10
23.477139954525441
20
-287.50002001886412
30
0
10
28.999972526929461
20
-287.50002001886412
30
0
0
LINE
5
238
100
AcDbEntity
8
0
100
AcDbLine
10
28.999972526929461
20
-287.50002001886412
30
0
11
61.00000032383398
21
-287.50002001886412
31
0
0
SPLINE
5
239
100
AcDbEntity
8
0
100
AcDbSpline
70
0
71
3
72
8
73
4
74
0
42
0.000000001
43
0.0000000001
44
0.0000000001
40
5
40
5
40
5
40
5
40
6
40
6
40
6
40
6
10
61.00000032383398
20
-287.50002001886412
30
0
10
62.65683287007775
20
-287.50002001886412
30
0
10
63.999989472389544
20
-288.84315508932912
30
0
10
63.999989472389544
20
-290.50000916741965
30
0
0
LINE
5
240
100
AcDbEntity
8
0
100
AcDbLine
10
63.999989472389544
20
-290.50000916741965
30
0
11
63.999989472389544
21
-362.50000711491407
31
0
0
SPLINE
5
241
100
AcDbEntity
8
0
100
AcDbSpline
70
0
71
3
72
8
73
4
74
0
42
0.000000001
43
0.0000000001
44
0.0000000001
40
7
40
7
40
7
40
7
40
8
40
8
40
8
40
8
10
63.999989472389544
20
-362.50000711491407
30
0
10
63.999989472389544
20
-373.54571532341566
30
0
10
72.95430940287666
20
-382.49999219020924
30
0
10
83.999974547684673
20
-382.49999219020924
30
0
0
LINE
5
242
100
AcDbEntity
8
0
100
AcDbLine
10
83.999974547684673
20
-382.49999219020924
30
0
11
84.000060675071808
21
-382.49999219020924
31
0
0
SPLINE
5
243
100
AcDbEntity
8
0
100
AcDbSpline
70
0
71
3
72
8
73
4
74
0
42
0.000000001
43
0.0000000001
44
0.0000000001
40
9
40
9
40
9
40
9
40
10
40
10
40
10
40
10
10
84.000060675071808
20
-382.49999219020924
30
0
10
95.045725819879848
20
-382.49999219020924
30
0
10
103.99995962297979
20
-373.54571532341566
30
0
10
103.99995962297979
20
-362.50005017860769
30
0
0
LINE
5
244
100
AcDbEntity
8
0
100
AcDbLine
10
103.99995962297979
20
-362.50005017860769
30
0
11
103.99995962297979
21
-290.50000916741965
31
0
0
SPLINE
5
245
100
AcDbEntity
8
0
100
AcDbSpline
70
0
71
3
72
8
73
4
74
0
42
0.000000001
43
0.0000000001
44
0.0000000001
40
11
40
11
40
11
40
11
40
12
40
12
40
12
40
12
10
103.99995962297979
20
-290.50000916741965
30
0
10
103.99995962297979
20
-288.84315508932912
30
0
10
105.3431162252916
20
-287.50002001886412
30
0
10
106.99999183522891
20
-287.50002001886412
30
0
0
LINE
5
246
100
AcDbEntity
8
0
100
AcDbLine
10
106.99999183522891
20
-287.50002001886412
30
0
11
138.99997656843991
21
-287.50002001886412
31
0
0
SPLINE
5
247
100
AcDbEntity
8
0
100
AcDbSpline
70
0
71
3
72
8
73
4
74
0
42
0.000000001
43
0.0000000001
44
0.0000000001
40
13
40
13
40
13
40
13
40
14
40
14
40
14
40
14
10
138.99997656843991
20
-287.50002001886412
30
0
10
144.52280914084392
20
-287.50002001886412
30
0
10
148.99996910608749
20
-283.02286005362049
30
0
10
148.99996910608749
20
-277.50000594936972
30
0
0
LINE
5
248
100
AcDbEntity
8
0
100
AcDbLine
10
148.99996910608749
20
-277.50000594936972
30
0
11
148.99996910608749
21
-227.50002172928509
31
0
0
SPLINE
5
249
100
AcDbEntity
8
0
100
AcDbSpline
70
0
71
3
72
8
73
4
74
0
42
0.000000001
43
0.0000000001
44
0.0000000001
40
15
40
15
40
15
40
15
40
16
40
16
40
16
40
16
10
148.99996910608749
20
-227.50002172928509
30
0
10
148.99996910608749
20
-221.97716762503433
30
0
10
144.52280914084392
20
-217.5000076597907
30
0
10
138.99997656843991
20
-217.5000076597907
30
0
0
LINE
5
250
100
AcDbEntity
8
0
100
AcDbLine
10
826.99999335065002
20
-217.5000076597907
30
0
11
716.99998930913966
21
-217.5000076597907
31
0
0
SPLINE
5
251
100
AcDbEntity
8
0
100
AcDbSpline
70
0
71
3
72
8
73
4
74
0
42
0.000000001
43
0.0000000001
44
0.0000000001
40
1
40
1
40
1
40
1
40
2
40
2
40
2
40
2
10
716.99998930913966
20
-217.5000076597907
30
0
10
711.47715673673576
20
-217.5000076597907
30
0
10
706.99999677149219
20
-221.97716762503433
30
0
10
706.99999677149219
20
-227.50002172928509
30
0
0
LINE
5
252
100
AcDbEntity
8
0
100
AcDbLine
10
706.99999677149219
20
-227.50002172928509
30
0
11
706.99999677149219
21
-277.50000594936972
31
0
0
SPLINE
5
253
100
AcDbEntity
8
0
100
AcDbSpline
70
0
71
3
72
8
73
4
74
0
42
0.000000001
43
0.0000000001
44
0.0000000001
40
3
40
3
40
3
40
3
40
4
40
4
40
4
40
4
10
706.99999677149219
20
-277.50000594936972
30
0
10
706.99999677149219
20
-283.02286005362049
30
0
10
711.47715673673576
20
-287.50002001886412
30
0
10
716.99998930913966
20
-287.50002001886412
30
0
0
LINE
5
254
100
AcDbEntity
8
0
100
AcDbLine
10
716.99998930913966
20
-287.50002001886412
30
0
11
749.00001710604431
21
-287.50002001886412
31
0
0
SPLINE
5
255
100
AcDbEntity
8
0
100
AcDbSpline
70
0
71
3
72
8
73
4
74
0
42
0.000000001
43
0.0000000001
44
0.0000000001
40
5
40
5
40
5
40
5
40
6
40
6
40
6
40
6
10
749.00001710604431
20
-287.50002001886412
30
0
10
750.65684965228809
20
-287.50002001886412
30
0
10
752.00000625459984
20
-288.84315508932912
30
0
10
752.00000625459984
20
-290.50000916741965
30
0
0
LINE
5
256
100
AcDbEntity
8
0
100
AcDbLine
10
752.00000625459984
20
-290.50000916741965
30
0
11
752.00000625459984
21
-362.50000711491407
31
0
0
SPLINE
5
257
100
AcDbEntity
8
0
100
AcDbSpline
70
0
71
3
72
8
73
4
74
0
42
0.000000001
43
0.0000000001
44
0.0000000001
40
7
40
7
40
7
40
7
40
8
40
8
40
8
40
8
10
752.00000625459984
20
-362.50000711491407
30
0
10
752.00000625459984
20
-373.54571532341566
30
0
10
760.95432618508698
20
-382.49999219020924
30
0
10
771.9999913298949
20
-382.49999219020924
30
0
0
LINE
5
258
100
AcDbEntity
8
0
100
AcDbLine
10
771.9999913298949
20
-382.49999219020924
30
0
11
772.00007745728203
21
-382.49999219020924
31
0
0
SPLINE
5
259
100
AcDbEntity
8
0
100
AcDbSpline
70
0
71
3
72
8
73
4
74
0
42
0.000000001
43
0.0000000001
44
0.0000000001
40
9
40
9
40
9
40
9
40
10
40
10
40
10
40
10
10
772.00007745728203
20
-382.49999219020924
30
0
10
783.04574260209029
20
-382.49999219020924
30
0
10
791.99997640518995
20
-373.54571532341566
30
0
10
791.99997640518995
20
-362.50005017860769
30
0
0
LINE
5
260
100
AcDbEntity
8
0
100
AcDbLine
10
791.99997640518995
20
-362.50005017860769
30
0
11
791.99997640518995
21
-290.50000916741965
31
0
0
SPLINE
5
261
100
AcDbEntity
8
0
100
AcDbSpline
70
0
71
3
72
8
73
4
74
0
42
0.000000001
43
0.0000000001
44
0.0000000001
40
11
40
11
40
11
40
11
40
12
40
12
40
12
40
12
10
791.99997640518995
20
-290.50000916741965
30
0
10
791.99997640518995
20
-288.84315508932912
30
0
10
793.34313300750182
20
-287.50002001886412
30
0
10
795.00000861743911
20
-287.50002001886412
30
0
0
LINE
5
262
100
AcDbEntity
8
0
100
AcDbLine
10
795.00000861743911
20
-287.50002001886412
30
0
11
826.99999335065002
21
-287.50002001886412
31
0
0
SPLINE
5
263
100
AcDbEntity
8
0
100
AcDbSpline
70
0
71
3
72
8
73
4
74
0
42
0.000000001
43
0.0000000001
44
0.0000000001
40
13
40
13
40
13
40
13
40
14
40
14
40
14
40
14
10
826.99999335065002
20
-287.50002001886412
30
0
10
832.52282592305403
20
-287.50002001886412
30
0
10
836.99998588829772
20
-283.02286005362049
30
0
10
836.99998588829772
20
-277.50000594936972
30
0
0
LINE
5
264
100
AcDbEntity
8
0
100
AcDbLine
10
836.99998588829772
20
-277.50000594936972
30
0
11
836.99998588829772
21
-227.50002172928509
31
0
0
SPLINE
5
265
100
AcDbEntity
8
0
100
AcDbSpline
70
0
71
3
72
8
73
4
74
0
42
0.000000001
43
0.0000000001
44
0.0000000001
40
15
40
15
40
15
40
15
40
16
40
16
40
16
40
16
10
836.99998588829772
20
-227.50002172928509
30
0
10
836.99998588829772
20
-221.97716762503433
30
0
10
832.52282592305403
20
-217.5000076597907
30
0
10
826.99999335065002
20
-217.5000076597907
30
0
0
LINE
5
266
100
AcDbEntity
8
0
100
AcDbLine
10
114.9999852210871
20
-382.49999219020924
30
0
11
224.9999892625975
21
-382.49999219020924
31
0
0
SPLINE
5
267
100
AcDbEntity
8
0
100
AcDbSpline
70
0
71
3
72
8
73
4
74
0
42
0.000000001
43
0.0000000001
44
0.0000000001
40
1
40
1
40
1
40
1
40
2
40
2
40
2
40
2
10
224.9999892625975
20
-382.49999219020924
30
0
10
230.52282183500151
20
-382.49999219020924
30
0
10
234.99998180024508
20
-378.02283222496567
30
0
10
234.99998180024508
20
-372.4999781207149
30
0
0
LINE
5
268
100
AcDbEntity
8
0
100
AcDbLine
10
234.99998180024508
20
-372.4999781207149
30
0
11
234.99998180024508
21
-322.49999390063033
31
0
0
SPLINE
5
269
100
AcDbEntity
8
0
100
AcDbSpline
70
0
71
3
72
8
73
4
74
0
42
0.000000001
43
0.0000000001
44
0.0000000001
40
3
40
3
40
3
40
3
40
4
40
4
40
4
40
4
10
234.99998180024508
20
-322.49999390063033
30
0
10
234.99998180024508
20
-316.97713979637933
30
0
10
230.52282183500151
20
-312.49997983113587
30
0
10
224.9999892625975
20
-312.49997983113587
30
0
0
LINE
5
270
100
AcDbEntity
8
0
100
AcDbLine
10
224.9999892625975
20
-312.49997983113587
30
0
11
192.99996146569302
21
-312.49997983113587
31
0
0
SPLINE
5
271
100
AcDbEntity
8
0
100
AcDbSpline
70
0
71
3
72
8
73
4
74
0
42
0.000000001
43
0.0000000001
44
0.0000000001
40
5
40
5
40
5
40
5
40
6
40
6
40
6
40
6
10
192.99996146569302
20
-312.49997983113587
30
0
10
191.34312891944919
20
-312.49997983113587
30
0
10
189.99997231713741
20
-311.15684476067088
30
0
10
189.99997231713741
20
-309.49999068258029
30
0
0
LINE
5
272
100
AcDbEntity
8
0
100
AcDbLine
10
189.99997231713741
20
-309.49999068258029
30
0
11
189.99997231713741
21
-237.4999927350855
31
0
0
SPLINE
5
273
100
AcDbEntity
8
0
100
AcDbSpline
70
0
71
3
72
8
73
4
74
0
42
0.000000001
43
0.0000000001
44
0.0000000001
40
7
40
7
40
7
40
7
40
8
40
8
40
8
40
8
10
189.99997231713741
20
-237.4999927350855
30
0
10
189.99997231713741
20
-226.45428452658393
30
0
10
181.04565238665032
20
-217.50000765979041
30
0
10
169.99998724184235
20
-217.50000765979041
30
0
0
LINE
5
274
100
AcDbEntity
8
0
100
AcDbLine
10
169.99998724184235
20
-217.50000765979041
30
0
11
169.99990111445521
21
-217.50000765979041
31
0
0
SPLINE
5
275
100
AcDbEntity
8
0
100
AcDbSpline
70
0
71
3
72
8
73
4
74
0
42
0.000000001
43
0.0000000001
44
0.0000000001
40
9
40
9
40
9
40
9
40
10
40
10
40
10
40
10
10
169.99990111445521
20
-217.50000765979041
30
0
10
158.95423596964713
20
-217.50000765979041
30
0
10
150.00000216654709
20
-226.45428452658393
30
0
10
150.00000216654709
20
-237.49994967139202
30
0
0
LINE
5
276
100
AcDbEntity
8
0
100
AcDbLine
10
150.00000216654709
20
-237.49994967139202
30
0
11
150.00000216654709
21
-309.49999068258029
31
0
0
SPLINE
5
277
100
AcDbEntity
8
0
100
AcDbSpline
70
0
71
3
72
8
73
4
74
0
42
0.000000001
43
0.0000000001
44
0.0000000001
40
11
40
11
40
11
40
11
40
12
40
12
40
12
40
12
10
150.00000216654709
20
-309.49999068258029
30
0
10
150.00000216654709
20
-311.15684476067088
30
0
10
148.65684556423531
20
-312.49997983113587
30
0
10
146.999969954298
20
-312.49997983113587
30
0
0
LINE
5
278
100
AcDbEntity
8
0
100
AcDbLine
10
146.999969954298
20
-312.49997983113587
30
0
11
114.9999852210871
21
-312.49997983113587
31
0
0
SPLINE
5
279
100
AcDbEntity
8
0
100
AcDbSpline
70
0
71
3
72
8
73
4
74
0
42
0.000000001
43
0.0000000001
44
0.0000000001
40
13
40
13
40
13
40
13
40
14
40
14
40
14
40
14
10
114.9999852210871
20
-312.49997983113587
30
0
10
109.477152648683
20
-312.49997983113587
30
0
10
104.9999926834395
20
-316.97713979637933
30
0
10
104.9999926834395
20
-322.49999390063033
30
0
0
LINE
5
280
100
AcDbEntity
8
0
100
AcDbLine
10
104.9999926834395
20
-322.49999390063033
30
0
11
104.9999926834395
21
-372.4999781207149
31
0
0
SPLINE
5
281
100
AcDbEntity
8
0
100
AcDbSpline
70
0
71
3
72
8
73
4
74
0
42
0.000000001
43
0.0000000001
44
0.0000000001
40
15
40
15
40
15
40
15
40
16
40
16
40
16
40
16
10
104.9999926834395
20
-372.4999781207149
30
0
10
104.9999926834395
20
-378.02283222496567
30
0
10
109.477152648683
20
-382.49999219020924
30
0
10
114.9999852210871
20
-382.49999219020924
30
0
0
SPLINE
5
282
100
AcDbEntity
8
0
100
AcDbSpline
70
0
71
3
72
8
73
4
74
0
42
0.000000001
43
0.0000000001
44
0.0000000001
40
0
40
0
40
0
40
0
40
1
40
1
40
1
40
1
10
167.99998012157408
20
-226.00000562316018
30
0
10
167.99998012157408
20
-225.44771375318106
30
0
10
168.44771334357586
20
-224.99998053117935
30
0
10
168.99996214986143
20
-224.99998053117935
30
0
0
LINE
5
283
100
AcDbEntity
8
0
100
AcDbLine
10
168.99996214986143
20
-224.99998053117935
30
0
11
170.99996927012961
21
-224.99998053117935
31
0
0
SPLINE
5
284
100
AcDbEntity
8
0
100
AcDbSpline
70
0
71
3
72
8
73
4
74
0
42
0.000000001
43
0.0000000001
44
0.0000000001
40
2
40
2
40
2
40
2
40
3
40
3
40
3
40
3
10
170.99996927012961
20
-224.99998053117935
30
0
10
171.5522611401087
20
-224.99998053117935
30
0
10
171.99995129841693
20
-225.44771375318106
30
0
10
171.99995129841693
20
-226.00000562316018
30
0
0
LINE
5
285
100
AcDbEntity
8
0
100
AcDbLine
10
171.99995129841693
20
-226.00000562316018
30
0
11
171.99995129841693
21
-233.9999910405395
31
0
0
SPLINE
5
286
100
AcDbEntity
8
0
100
AcDbSpline
70
0
71
3
72
8
73
4
74
0
42
0.000000001
43
0.0000000001
44
0.0000000001
40
4
40
4
40
4
40
4
40
5
40
5
40
5
40
5
10
171.99995129841693
20
-233.9999910405395
30
0
10
171.99995129841693
20
-234.55228291051864
30
0
10
171.5522611401087
20
-234.9999730688269
30
0
10
170.99996927012961
20
-234.9999730688269
30
0
0
LINE
5
287
100
AcDbEntity
8
0
100
AcDbLine
10
170.99996927012961
20
-234.9999730688269
30
0
11
168.99996214986143
21
-234.9999730688269
31
0
0
SPLINE
5
288
100
AcDbEntity
8
0
100
AcDbSpline
70
0
71
3
72
8
73
4
74
0
42
0.000000001
43
0.0000000001
44
0.0000000001
40
6
40
6
40
6
40
6
40
7
40
7
40
7
40
7
10
168.99996214986143
20
-234.9999730688269
30
0
10
168.44771334357586
20
-234.9999730688269
30
0
10
167.99998012157408
20
-234.55228291051864
30
0
10
167.99998012157408
20
-233.9999910405395
30
0
0
LINE
5
289
100
AcDbEntity
8
0
100
AcDbLine
10
167.99998012157408
20
-233.9999910405395
30
0
11
167.99998012157408
21
-226.00000562316018
31
0
0
SPLINE
5
290
100
AcDbEntity
8
0
100
AcDbSpline
70
0
71
3
72
17
73
13
74
0
42
0.000000001
43
0.0000000001
44
0.0000000001
40
0
40
0
40
0
40
0
40
1
40
1
40
1
40
2
40
2
40
2
40
3
40
3
40
3
40
4
40
4
40
4
40
4
10
169.99998724184235
20
-279.49999153779078
30
0
10
171.93294419122884
20
-279.49999153779078
30
0
10
173.4999458726947
20
-281.06699321925669
30
0
10
173.4999458726947
20
-282.99999323233686
30
0
10
173.4999458726947
20
-284.93299324541698
30
0
10
171.93294419122884
20
-286.49999492688283
30
0
10
169.99998724184235
20
-286.49999492688283
30
0
10
168.06694416506858
20
-286.49999492688283
30
0
10
166.49994248360269
20
-284.93299324541698
30
0
10
166.49994248360269
20
-282.99999323233686
30
0
10
166.49994248360269
20
-281.06699321925669
30
0
10
168.06694416506858
20
-279.49999153779078
30
0
10
169.99998724184235
20
-279.49999153779078
30
0
0
SPLINE
5
291
100
AcDbEntity
8
0
100
AcDbSpline
70
0
71
3
72
8
73
4
74
0
42
0.000000001
43
0.0000000001
44
0.0000000001
40
0
40
0
40
0
40
0
40
1
40
1
40
1
40
1
10
855.99999690378422
20
-226.00000562316018
30
0
10
855.99999690378422
20
-225.44771375318106
30
0
10
856.44773012578594
20
-224.99998053117935
30
0
10
856.99997893207183
20
-224.99998053117935
30
0
0
LINE
5
292
100
AcDbEntity
8
0
100
AcDbLine
10
856.99997893207183
20
-224.99998053117935
30
0
11
858.99998605233975
21
-224.99998053117935
31
0
0
SPLINE
5
293
100
AcDbEntity
8
0
100
AcDbSpline
70
0
71
3
72
8
73
4
74
0
42
0.000000001
43
0.0000000001
44
0.0000000001
40
2
40
2
40
2
40
2
40
3
40
3
40
3
40
3
10
858.99998605233975
20
-224.99998053117935
30
0
10
859.55227792231892
20
-224.99998053117935
30
0
10
859.99996808062724
20
-225.44771375318106
30
0
10
859.99996808062724
20
-226.00000562316018
30
0
0
LINE
5
294
100
AcDbEntity
8
0
100
AcDbLine
10
859.99996808062724
20
-226.00000562316018
30
0
11
859.99996808062724
21
-233.9999910405395
31
0
0
SPLINE
5
295
100
AcDbEntity
8
0
100
AcDbSpline
70
0
71
3
72
8
73
4
74
0
42
0.000000001
43
0.0000000001
44
0.0000000001
40
4
40
4
40
4
40
4
40
5
40
5
40
5
40
5
10
859.99996808062724
20
-233.9999910405395
30
0
10
859.99996808062724
20
-234.55228291051864
30
0
10
859.55227792231892
20
-234.9999730688269
30
0
10
858.99998605233975
20
-234.9999730688269
30
0
0
LINE
5
296
100
AcDbEntity
8
0
100
AcDbLine
10
858.99998605233975
20
-234.9999730688269
30
0
11
856.99997893207183
21
-234.9999730688269
31
0
0
SPLINE
5
297
100
AcDbEntity
8
0
100
AcDbSpline
70
0
71
3
72
8
73
4
74
0
42
0.000000001
43
0.0000000001
44
0.0000000001
40
6
40
6
40
6
40
6
40
7
40
7
40
7
40
7
10
856.99997893207183
20
-234.9999730688269
30
0
10
856.44773012578594
20
-234.9999730688269
30
0
10
855.99999690378422
20
-234.55228291051864
30
0
10
855.99999690378422
20
-233.9999910405395
30
0
0
LINE
5
298
100
AcDbEntity
8
0
100
AcDbLine
10
855.99999690378422
20
-233.9999910405395
30
0
11
855.99999690378422
21
-226.00000562316018
31
0
0
SPLINE
5
299
100
AcDbEntity
8
0
100
AcDbSpline
70
0
71
3
72
17
73
13
74
0
42
0.000000001
43
0.0000000001
44
0.0000000001
40
0
40
0
40
0
40
0
40
1
40
1
40
1
40
2
40
2
40
2
40
3
40
3
40
3
40
4
40
4
40
4
40
4
10
1116.0000251523161
20
-320.50000831220882
30
0
10
1114.067068202929
20
-320.50000831220882
30
0
10
1112.5000665214629
20
-318.93300663074285
30
0
10
1112.5000665214629
20
-317.00000661766285
30
0
10
1112.5000665214629
20
-315.06700660458267
30
0
10
1114.067068202929
20
-313.50000492311682
30
0
10
1116.0000251523161
20
-313.50000492311682
30
0
10
1117.933068229089
20
-313.50000492311682
30
0
10
1119.5000699105549
20
-315.06700660458267
30
0
10
1119.5000699105549
20
-317.00000661766285
30
0
10
1119.5000699105549
20
-318.93300663074285
30
0
10
1117.933068229089
20
-320.50000831220882
30
0
10
1116.0000251523161
20
-320.50000831220882
30
0
0
LINE
5
300
100
AcDbEntity
8
0
100
AcDbLine
10
310.99999347965058
20
-217.5000076597907
30
0
11
200.99998943813983
21
-217.5000076597907
31
0
0
SPLINE
5
301
100
AcDbEntity
8
0
100
AcDbSpline
70
0
71
3
72
8
73
4
74
0
42
0.000000001
43
0.0000000001
44
0.0000000001
40
1
40
1
40
1
40
1
40
2
40
2
40
2
40
2
10
200.99998943813983
20
-217.5000076597907
30
0
10
195.47715686573582
20
-217.5000076597907
30
0
10
190.99999690049216
20
-221.97716762503433
30
0
10
190.99999690049216
20
-227.50002172928509
30
0
0
LINE
5
302
100
AcDbEntity
8
0
100
AcDbLine
10
190.99999690049216
20
-227.50002172928509
30
0
11
190.99999690049216
21
-277.50000594936972
31
0
0
SPLINE
5
303
100
AcDbEntity
8
0
100
AcDbSpline
70
0
71
3
72
8
73
4
74
0
42
0.000000001
43
0.0000000001
44
0.0000000001
40
3
40
3
40
3
40
3
40
4
40
4
40
4
40
4
10
190.99999690049216
20
-277.50000594936972
30
0
10
190.99999690049216
20
-283.02286005362049
30
0
10
195.47715686573582
20
-287.50002001886412
30
0
10
200.99998943813983
20
-287.50002001886412
30
0
0
LINE
5
304
100
AcDbEntity
8
0
100
AcDbLine
10
200.99998943813983
20
-287.50002001886412
30
0
11
233.00001723504437
21
-287.50002001886412
31
0
0
SPLINE
5
305
100
AcDbEntity
8
0
100
AcDbSpline
70
0
71
3
72
8
73
4
74
0
42
0.000000001
43
0.0000000001
44
0.0000000001
40
5
40
5
40
5
40
5
40
6
40
6
40
6
40
6
10
233.00001723504437
20
-287.50002001886412
30
0
10
234.65684978128814
20
-287.50002001886412
30
0
10
236.0000063835999
20
-288.84315508932912
30
0
10
236.0000063835999
20
-290.50000916741965
30
0
0
LINE
5
306
100
AcDbEntity
8
0
100
AcDbLine
10
236.0000063835999
20
-290.50000916741965
30
0
11
236.0000063835999
21
-362.50000711491407
31
0
0
SPLINE
5
307
100
AcDbEntity
8
0
100
AcDbSpline
70
0
71
3
72
8
73
4
74
0
42
0.000000001
43
0.0000000001
44
0.0000000001
40
7
40
7
40
7
40
7
40
8
40
8
40
8
40
8
10
236.0000063835999
20
-362.50000711491407
30
0
10
236.0000063835999
20
-373.54571532341566
30
0
10
244.95432631408701
20
-382.49999219020924
30
0
10
255.99999145889501
20
-382.49999219020924
30
0
0
LINE
5
308
100
AcDbEntity
8
0
100
AcDbLine
10
255.99999145889501
20
-382.49999219020924
30
0
11
256.00007758628209
21
-382.49999219020924
31
0
0
SPLINE
5
309
100
AcDbEntity
8
0
100
AcDbSpline
70
0
71
3
72
8
73
4
74
0
42
0.000000001
43
0.0000000001
44
0.0000000001
40
9
40
9
40
9
40
9
40
10
40
10
40
10
40
10
10
256.00007758628209
20
-382.49999219020924
30
0
10
267.04574273109051
20
-382.49999219020924
30
0
10
275.99997653419047
20
-373.54571532341566
30
0
10
275.99997653419047
20
-362.50005017860769
30
0
0
LINE
5
310
100
AcDbEntity
8
0
100
AcDbLine
10
275.99997653419047
20
-362.50005017860769
30
0
11
275.99997653419047
21
-290.50000916741965
31
0
0
SPLINE
5
311
100
AcDbEntity
8
0
100
AcDbSpline
70
0
71
3
72
8
73
4
74
0
42
0.000000001
43
0.0000000001
44
0.0000000001
40
11
40
11
40
11
40
11
40
12
40
12
40
12
40
12
10
275.99997653419047
20
-290.50000916741965
30
0
10
275.99997653419047
20
-288.84315508932912
30
0
10
277.34313313650233
20
-287.50002001886412
30
0
10
279.00000874643968
20
-287.50002001886412
30
0
0
LINE
5
312
100
AcDbEntity
8
0
100
AcDbLine
10
279.00000874643968
20
-287.50002001886412
30
0
11
310.99999347965058
21
-287.50002001886412
31
0
0
SPLINE
5
313
100
AcDbEntity
8
0
100
AcDbSpline
70
0
71
3
72
8
73
4
74
0
42
0.000000001
43
0.0000000001
44
0.0000000001
40
13
40
13
40
13
40
13
40
14
40
14
40
14
40
14
10
310.99999347965058
20
-287.50002001886412
30
0
10
316.52282605205465
20
-287.50002001886412
30
0
10
320.99998601729817
20
-283.02286005362049
30
0
10
320.99998601729817
20
-277.50000594936972
30
0
0
LINE
5
314
100
AcDbEntity
8
0
100
AcDbLine
10
320.99998601729817
20
-277.50000594936972
30
0
11
320.99998601729817
21
-227.50002172928509
31
0
0
SPLINE
5
315
100
AcDbEntity
8
0
100
AcDbSpline
70
0
71
3
72
8
73
4
74
0
42
0.000000001
43
0.0000000001
44
0.0000000001
40
15
40
15
40
15
40
15
40
16
40
16
40
16
40
16
10
320.99998601729817
20
-227.50002172928509
30
0
10
320.99998601729817
20
-221.97716762503433
30
0
10
316.52282605205465
20
-217.5000076597907
30
0
10
310.99999347965058
20
-217.5000076597907
30
0
0
SPLINE
5
316
100
AcDbEntity
8
0
100
AcDbSpline
70
0
71
3
72
8
73
4
74
0
42
0.000000001
43
0.0000000001
44
0.0000000001
40
0
40
0
40
0
40
0
40
1
40
1
40
1
40
1
10
85.999981667952895
20
-373.99999422683953
30
0
10
85.999981667952895
20
-374.55228609681859
30
0
10
85.552248445951136
20
-375.00001931882036
30
0
10
84.999999639665575
20
-375.00001931882036
30
0
0
LINE
5
317
100
AcDbEntity
8
0
100
AcDbLine
10
84.999999639665575
20
-375.00001931882036
30
0
11
82.999992519397352
21
-375.00001931882036
31
0
0
SPLINE
5
318
100
AcDbEntity
8
0
100
AcDbSpline
70
0
71
3
72
8
73
4
74
0
42
0.000000001
43
0.0000000001
44
0.0000000001
40
2
40
2
40
2
40
2
40
3
40
3
40
3
40
3
10
82.999992519397352
20
-375.00001931882036
30
0
10
82.447700649418238
20
-375.00001931882036
30
0
10
82.000010491110004
20
-374.55228609681859
30
0
10
82.000010491110004
20
-373.99999422683953
30
0
0
LINE
5
319
100
AcDbEntity
8
0
100
AcDbLine
10
82.000010491110004
20
-373.99999422683953
30
0
11
82.000010491110004
21
-366.00000880946021
31
0
0
SPLINE
5
320
100
AcDbEntity
8
0
100
AcDbSpline
70
0
71
3
72
8
73
4
74
0
42
0.000000001
43
0.0000000001
44
0.0000000001
40
4
40
4
40
4
40
4
40
5
40
5
40
5
40
5
10
82.000010491110004
20
-366.00000880946021
30
0
10
82.000010491110004
20
-365.44771693948098
30
0
10
82.447700649418238
20
-365.00002678117278
30
0
10
82.999992519397352
20
-365.00002678117278
30
0
0
LINE
5
321
100
AcDbEntity
8
0
100
AcDbLine
10
82.999992519397352
20
-365.00002678117278
30
0
11
84.999999639665575
21
-365.00002678117278
31
0
0
SPLINE
5
322
100
AcDbEntity
8
0
100
AcDbSpline
70
0
71
3
72
8
73
4
74
0
42
0.000000001
43
0.0000000001
44
0.0000000001
40
6
40
6
40
6
40
6
40
7
40
7
40
7
40
7
10
84.999999639665575
20
-365.00002678117278
30
0
10
85.552248445951136
20
-365.00002678117278
30
0
10
85.999981667952895
20
-365.44771693948098
30
0
10
85.999981667952895
20
-366.00000880946021
30
0
0
LINE
5
323
100
AcDbEntity
8
0
100
AcDbLine
10
85.999981667952895
20
-366.00000880946021
30
0
11
85.999981667952895
21
-373.99999422683953
31
0
0
SPLINE
5
324
100
AcDbEntity
8
0
100
AcDbSpline
70
0
71
3
72
17
73
13
74
0
42
0.000000001
43
0.0000000001
44
0.0000000001
40
0
40
0
40
0
40
0
40
1
40
1
40
1
40
2
40
2
40
2
40
3
40
3
40
3
40
4
40
4
40
4
40
4
10
255.99999145889501
20
-320.50000831220882
30
0
10
254.06703450950855
20
-320.50000831220882
30
0
10
252.50003282804261
20
-318.93300663074285
30
0
10
252.50003282804261
20
-317.00000661766285
30
0
10
252.50003282804261
20
-315.06700660458267
30
0
10
254.06703450950855
20
-313.50000492311682
30
0
10
255.99999145889501
20
-313.50000492311682
30
0
10
257.93303453566898
20
-313.50000492311682
30
0
10
259.50003621713495
20
-315.06700660458267
30
0
10
259.50003621713495
20
-317.00000661766285
30
0
10
259.50003621713495
20
-318.93300663074285
30
0
10
257.93303453566898
20
-320.50000831220882
30
0
10
255.99999145889501
20
-320.50000831220882
30
0
0
LINE
5
325
100
AcDbEntity
8
0
100
AcDbLine
10
975.00000619884975
20
-382.49999219020924
30
0
11
1085.0000102403599
21
-382.49999219020924
31
0
0
SPLINE
5
326
100
AcDbEntity
8
0
100
AcDbSpline
70
0
71
3
72
8
73
4
74
0
42
0.000000001
43
0.0000000001
44
0.0000000001
40
1
40
1
40
1
40
1
40
2
40
2
40
2
40
2
10
1085.0000102403599
20
-382.49999219020924
30
0
10
1090.5228428127639
20
-382.49999219020924
30
0
10
1095.0000027780079
20
-378.02283222496567
30
0
10
1095.0000027780079
20
-372.4999781207149
30
0
0
LINE
5
327
100
AcDbEntity
8
0
100
AcDbLine
10
1095.0000027780079
20
-372.4999781207149
30
0
11
1095.0000027780079
21
-322.49999390063033
31
0
0
SPLINE
5
328
100
AcDbEntity
8
0
100
AcDbSpline
70
0
71
3
72
8
73
4
74
0
42
0.000000001
43
0.0000000001
44
0.0000000001
40
3
40
3
40
3
40
3
40
4
40
4
40
4
40
4
10
1095.0000027780079
20
-322.49999390063033
30
0
10
1095.0000027780079
20
-316.97713979637933
30
0
10
1090.5228428127639
20
-312.49997983113587
30
0
10
1085.0000102403599
20
-312.49997983113587
30
0
0
LINE
5
329
100
AcDbEntity
8
0
100
AcDbLine
10
1085.0000102403599
20
-312.49997983113587
30
0
11
1052.999982443456
21
-312.49997983113587
31
0
0
SPLINE
5
330
100
AcDbEntity
8
0
100
AcDbSpline
70
0
71
3
72
8
73
4
74
0
42
0.000000001
43
0.0000000001
44
0.0000000001
40
5
40
5
40
5
40
5
40
6
40
6
40
6
40
6
10
1052.999982443456
20
-312.49997983113587
30
0
10
1051.343149897212
20
-312.49997983113587
30
0
10
1049.9999932949002
20
-311.15684476067088
30
0
10
1049.9999932949002
20
-309.49999068258029
30
0
0
LINE
5
331
100
AcDbEntity
8
0
100
AcDbLine
10
1049.9999932949002
20
-309.49999068258029
30
0
11
1049.9999932949002
21
-237.4999927350855
31
0
0
SPLINE
5
332
100
AcDbEntity
8
0
100
AcDbSpline
70
0
71
3
72
8
73
4
74
0
42
0.000000001
43
0.0000000001
44
0.0000000001
40
7
40
7
40
7
40
7
40
8
40
8
40
8
40
8
10
1049.9999932949002
20
-237.4999927350855
30
0
10
1049.9999932949002
20
-226.45428452658393
30
0
10
1041.045673364413
20
-217.50000765979041
30
0
10
1030.000008219605
20
-217.50000765979041
30
0
0
LINE
5
333
100
AcDbEntity
8
0
100
AcDbLine
10
1030.000008219605
20
-217.50000765979041
30
0
11
1029.999922092218
21
-217.50000765979041
31
0
0
SPLINE
5
334
100
AcDbEntity
8
0
100
AcDbSpline
70
0
71
3
72
8
73
4
74
0
42
0.000000001
43
0.0000000001
44
0.0000000001
40
9
40
9
40
9
40
9
40
10
40
10
40
10
40
10
10
1029.999922092218
20
-217.50000765979041
30
0
10
1018.9542569474099
20
-217.50000765979041
30
0
10
1010.0000231443101
20
-226.45428452658393
30
0
10
1010.0000231443101
20
-237.49994967139202
30
0
0
LINE
5
335
100
AcDbEntity
8
0
100
AcDbLine
10
1010.0000231443101
20
-237.49994967139202
30
0
11
1010.0000231443101
21
-309.49999068258029
31
0
0
SPLINE
5
336
100
AcDbEntity
8
0
100
AcDbSpline
70
0
71
3
72
8
73
4
74
0
42
0.000000001
43
0.0000000001
44
0.0000000001
40
11
40
11
40
11
40
11
40
12
40
12
40
12
40
12
10
1010.0000231443101
20
-309.49999068258029
30
0
10
1010.0000231443101
20
-311.15684476067088
30
0
10
1008.6568665419981
20
-312.49997983113587
30
0
10
1006.999990932061
20
-312.49997983113587
30
0
0
LINE
5
337
100
AcDbEntity
8
0
100
AcDbLine
10
1006.999990932061
20
-312.49997983113587
30
0
11
975.00000619884975
21
-312.49997983113587
31
0
0
SPLINE
5
338
100
AcDbEntity
8
0
100
AcDbSpline
70
0
71
3
72
8
73
4
74
0
42
0.000000001
43
0.0000000001
44
0.0000000001
40
13
40
13
40
13
40
13
40
14
40
14
40
14
40
14
10
975.00000619884975
20
-312.49997983113587
30
0
10
969.47717362644562
20
-312.49997983113587
30
0
10
965.00001366120227
20
-316.97713979637933
30
0
10
965.00001366120227
20
-322.49999390063033
30
0
0
LINE
5
339
100
AcDbEntity
8
0
100
AcDbLine
10
965.00001366120227
20
-322.49999390063033
30
0
11
965.00001366120227
21
-372.4999781207149
31
0
0
SPLINE
5
340
100
AcDbEntity
8
0
100
AcDbSpline
70
0
71
3
72
8
73
4
74
0
42
0.000000001
43
0.0000000001
44
0.0000000001
40
15
40
15
40
15
40
15
40
16
40
16
40
16
40
16
10
965.00001366120227
20
-372.4999781207149
30
0
10
965.00001366120227
20
-378.02283222496567
30
0
10
969.47717362644562
20
-382.49999219020924
30
0
10
975.00000619884975
20
-382.49999219020924
30
0
0
SPLINE
5
341
100
AcDbEntity
8
0
100
AcDbSpline
70
0
71
3
72
8
73
4
74
0
42
0.000000001
43
0.0000000001
44
0.0000000001
40
0
40
0
40
0
40
0
40
1
40
1
40
1
40
1
10
339.99998431712692
20
-226.00000562316018
30
0
10
339.99998431712692
20
-225.44771375318106
30
0
10
340.44771753912863
20
-224.99998053117935
30
0
10
340.99996634541418
20
-224.99998053117935
30
0
0
LINE
5
342
100
AcDbEntity
8
0
100
AcDbLine
10
340.99996634541418
20
-224.99998053117935
30
0
11
342.99997346568239
21
-224.99998053117935
31
0
0
SPLINE
5
343
100
AcDbEntity
8
0
100
AcDbSpline
70
0
71
3
72
8
73
4
74
0
42
0.000000001
43
0.0000000001
44
0.0000000001
40
2
40
2
40
2
40
2
40
3
40
3
40
3
40
3
10
342.99997346568239
20
-224.99998053117935
30
0
10
343.55226533566156
20
-224.99998053117935
30
0
10
343.99995549396971
20
-225.44771375318106
30
0
10
343.99995549396971
20
-226.00000562316018
30
0
0
LINE
5
344
100
AcDbEntity
8
0
100
AcDbLine
10
343.99995549396971
20
-226.00000562316018
30
0
11
343.99995549396971
21
-233.9999910405395
31
0
0
SPLINE
5
345
100
AcDbEntity
8
0
100
AcDbSpline
70
0
71
3
72
8
73
4
74
0
42
0.000000001
43
0.0000000001
44
0.0000000001
40
4
40
4
40
4
40
4
40
5
40
5
40
5
40
5
10
343.99995549396971
20
-233.9999910405395
30
0
10
343.99995549396971
20
-234.55228291051864
30
0
10
343.55226533566156
20
-234.9999730688269
30
0
10
342.99997346568239
20
-234.9999730688269
30
0
0
LINE
5
346
100
AcDbEntity
8
0
100
AcDbLine
10
342.99997346568239
20
-234.9999730688269
30
0
11
340.99996634541418
21
-234.9999730688269
31
0
0
SPLINE
5
347
100
AcDbEntity
8
0
100
AcDbSpline
70
0
71
3
72
8
73
4
74
0
42
0.000000001
43
0.0000000001
44
0.0000000001
40
6
40
6
40
6
40
6
40
7
40
7
40
7
40
7
10
340.99996634541418
20
-234.9999730688269
30
0
10
340.44771753912863
20
-234.9999730688269
30
0
10
339.99998431712692
20
-234.55228291051864
30
0
10
339.99998431712692
20
-233.9999910405395
30
0
0
LINE
5
348
100
AcDbEntity
8
0
100
AcDbLine
10
339.99998431712692
20
-233.9999910405395
30
0
11
339.99998431712692
21
-226.00000562316018
31
0
0
LINE
5
349
100
AcDbEntity
8
0
100
AcDbLine
10
286.99998941663983
20
-382.49999219020924
30
0
11
396.99999345815024
21
-382.49999219020924
31
0
0
SPLINE
5
350
100
AcDbEntity
8
0
100
AcDbSpline
70
0
71
3
72
8
73
4
74
0
42
0.000000001
43
0.0000000001
44
0.0000000001
40
1
40
1
40
1
40
1
40
2
40
2
40
2
40
2
10
396.99999345815024
20
-382.49999219020924
30
0
10
402.52282603055426
20
-382.49999219020924
30
0
10
406.99998599579783
20
-378.02283222496567
30
0
10
406.99998599579783
20
-372.4999781207149
30
0
0
LINE
5
351
100
AcDbEntity
8
0
100
AcDbLine
10
406.99998599579783
20
-372.4999781207149
30
0
11
406.99998599579783
21
-322.49999390063033
31
0
0
SPLINE
5
352
100
AcDbEntity
8
0
100
AcDbSpline
70
0
71
3
72
8
73
4
74
0
42
0.000000001
43
0.0000000001
44
0.0000000001
40
3
40
3
40
3
40
3
40
4
40
4
40
4
40
4
10
406.99998599579783
20
-322.49999390063033
30
0
10
406.99998599579783
20
-316.97713979637933
30
0
10
402.52282603055426
20
-312.49997983113587
30
0
10
396.99999345815024
20
-312.49997983113587
30
0
0
LINE
5
353
100
AcDbEntity
8
0
100
AcDbLine
10
396.99999345815024
20
-312.49997983113587
30
0
11
364.99996566124588
21
-312.49997983113587
31
0
0
SPLINE
5
354
100
AcDbEntity
8
0
100
AcDbSpline
70
0
71
3
72
8
73
4
74
0
42
0.000000001
43
0.0000000001
44
0.0000000001
40
5
40
5
40
5
40
5
40
6
40
6
40
6
40
6
10
364.99996566124588
20
-312.49997983113587
30
0
10
363.34313311500205
20
-312.49997983113587
30
0
10
361.99997651269024
20
-311.15684476067088
30
0
10
361.99997651269024
20
-309.49999068258029
30
0
0
LINE
5
355
100
AcDbEntity
8
0
100
AcDbLine
10
361.99997651269024
20
-309.49999068258029
30
0
11
361.99997651269024
21
-237.4999927350855
31
0
0
SPLINE
5
356
100
AcDbEntity
8
0
100
AcDbSpline
70
0
71
3
72
8
73
4
74
0
42
0.000000001
43
0.0000000001
44
0.0000000001
40
7
40
7
40
7
40
7
40
8
40
8
40
8
40
8
10
361.99997651269024
20
-237.4999927350855
30
0
10
361.99997651269024
20
-226.45428452658393
30
0
10
353.04565658220321
20
-217.50000765979041
30
0
10
341.99999143739512
20
-217.50000765979041
30
0
0
LINE
5
357
100
AcDbEntity
8
0
100
AcDbLine
10
341.99999143739512
20
-217.50000765979041
30
0
11
341.99990531000788
21
-217.50000765979041
31
0
0
SPLINE
5
358
100
AcDbEntity
8
0
100
AcDbSpline
70
0
71
3
72
8
73
4
74
0
42
0.000000001
43
0.0000000001
44
0.0000000001
40
9
40
9
40
9
40
9
40
10
40
10
40
10
40
10
10
341.99990531000788
20
-217.50000765979041
30
0
10
330.95424016519991
20
-217.50000765979041
30
0
10
322.00000636209995
20
-226.45428452658393
30
0
10
322.00000636209995
20
-237.49994967139202
30
0
0
LINE
5
359
100
AcDbEntity
8
0
100
AcDbLine
10
322.00000636209995
20
-237.49994967139202
30
0
11
322.00000636209995
21
-309.49999068258029
31
0
0
SPLINE
5
360
100
AcDbEntity
8
0
100
AcDbSpline
70
0
71
3
72
8
73
4
74
0
42
0.000000001
43
0.0000000001
44
0.0000000001
40
11
40
11
40
11
40
11
40
12
40
12
40
12
40
12
10
322.00000636209995
20
-309.49999068258029
30
0
10
322.00000636209995
20
-311.15684476067088
30
0
10
320.6568497597882
20
-312.49997983113587
30
0
10
318.9999741498508
20
-312.49997983113587
30
0
0
LINE
5
361
100
AcDbEntity
8
0
100
AcDbLine
10
318.9999741498508
20
-312.49997983113587
30
0
11
286.99998941663983
21
-312.49997983113587
31
0
0
SPLINE
5
362
100
AcDbEntity
8
0
100
AcDbSpline
70
0
71
3
72
8
73
4
74
0
42
0.000000001
43
0.0000000001
44
0.0000000001
40
13
40
13
40
13
40
13
40
14
40
14
40
14
40
14
10
286.99998941663983
20
-312.49997983113587
30
0
10
281.47715684423582
20
-312.49997983113587
30
0
10
276.99999687899219
20
-316.97713979637933
30
0
10
276.99999687899219
20
-322.49999390063033
30
0
0
LINE
5
363
100
AcDbEntity
8
0
100
AcDbLine
10
276.99999687899219
20
-322.49999390063033
30
0
11
276.99999687899219
21
-372.4999781207149
31
0
0
SPLINE
5
364
100
AcDbEntity
8
0
100
AcDbSpline
70
0
71
3
72
8
73
4
74
0
42
0.000000001
43
0.0000000001
44
0.0000000001
40
15
40
15
40
15
40
15
40
16
40
16
40
16
40
16
10
276.99999687899219
20
-372.4999781207149
30
0
10
276.99999687899219
20
-378.02283222496567
30
0
10
281.47715684423582
20
-382.49999219020924
30
0
10
286.99998941663983
20
-382.49999219020924
30
0
0
SPLINE
5
365
100
AcDbEntity
8
0
100
AcDbSpline
70
0
71
3
72
17
73
13
74
0
42
0.000000001
43
0.0000000001
44
0.0000000001
40
0
40
0
40
0
40
0
40
1
40
1
40
1
40
2
40
2
40
2
40
3
40
3
40
3
40
4
40
4
40
4
40
4
10
771.9999913298949
20
-320.50000831220882
30
0
10
770.0670343805084
20
-320.50000831220882
30
0
10
768.50003269904232
20
-318.93300663074285
30
0
10
768.50003269904232
20
-317.00000661766285
30
0
10
768.50003269904232
20
-315.06700660458267
30
0
10
770.0670343805084
20
-313.50000492311682
30
0
10
771.9999913298949
20
-313.50000492311682
30
0
10
773.93303440666853
20
-313.50000492311682
30
0
10
775.50003608813427
20
-315.06700660458267
30
0
10
775.50003608813427
20
-317.00000661766285
30
0
10
775.50003608813427
20
-318.93300663074285
30
0
10
773.93303440666853
20
-320.50000831220882
30
0
10
771.9999913298949
20
-320.50000831220882
30
0
0
SPLINE
5
366
100
AcDbEntity
8
0
100
AcDbSpline
70
0
71
3
72
17
73
13
74
0
42
0.000000001
43
0.0000000001
44
0.0000000001
40
0
40
0
40
0
40
0
40
1
40
1
40
1
40
2
40
2
40
2
40
3
40
3
40
3
40
4
40
4
40
4
40
4
10
83.999974547684673
20
-320.50000831220882
30
0
10
82.067017598298122
20
-320.50000831220882
30
0
10
80.500015916832254
20
-318.93300663074285
30
0
10
80.500015916832254
20
-317.00000661766285
30
0
10
80.500015916832254
20
-315.06700660458267
30
0
10
82.067017598298122
20
-313.50000492311682
30
0
10
83.999974547684673
20
-313.50000492311682
30
0
10
85.933017624458344
20
-313.50000492311682
30
0
10
87.500019305924241
20
-315.06700660458267
30
0
10
87.500019305924241
20
-317.00000661766285
30
0
10
87.500019305924241
20
-318.93300663074285
30
0
10
85.933017624458344
20
-320.50000831220882
30
0
10
83.999974547684673
20
-320.50000831220882
30
0
0
SPLINE
5
367
100
AcDbEntity
8
0
100
AcDbSpline
70
0
71
3
72
17
73
13
74
0
42
0.000000001
43
0.0000000001
44
0.0000000001
40
0
40
0
40
0
40
0
40
1
40
1
40
1
40
2
40
2
40
2
40
3
40
3
40
3
40
4
40
4
40
4
40
4
10
513.9999956329475
20
-279.49999153779078
30
0
10
515.93295258233411
20
-279.49999153779078
30
0
10
517.49995426379996
20
-281.06699321925669
30
0
10
517.49995426379996
20
-282.99999323233686
30
0
10
517.49995426379996
20
-284.93299324541698
30
0
10
515.93295258233411
20
-286.49999492688283
30
0
10
513.9999956329475
20
-286.49999492688283
30
0
10
512.06695255617387
20
-286.49999492688283
30
0
10
510.49995087470802
20
-284.93299324541698
30
0
10
510.49995087470802
20
-282.99999323233686
30
0
10
510.49995087470802
20
-281.06699321925669
30
0
10
512.06695255617387
20
-279.49999153779078
30
0
10
513.9999956329475
20
-279.49999153779078
30
0
0
SPLINE
5
368
100
AcDbEntity
8
0
100
AcDbSpline
70
0
71
3
72
8
73
4
74
0
42
0.000000001
43
0.0000000001
44
0.0000000001
40
0
40
0
40
0
40
0
40
1
40
1
40
1
40
1
10
602.00000697026849
20
-373.99999422683953
30
0
10
602.00000697026849
20
-374.55228609681859
30
0
10
601.55227374826677
20
-375.00001931882036
30
0
10
601.00002494198122
20
-375.00001931882036
30
0
0
LINE
5
369
100
AcDbEntity
8
0
100
AcDbLine
10
601.00002494198122
20
-375.00001931882036
30
0
11
599.00001782171307
21
-375.00001931882036
31
0
0
SPLINE
5
370
100
AcDbEntity
8
0
100
AcDbSpline
70
0
71
3
72
8
73
4
74
0
42
0.000000001
43
0.0000000001
44
0.0000000001
40
2
40
2
40
2
40
2
40
3
40
3
40
3
40
3
10
599.00001782171307
20
-375.00001931882036
30
0
10
598.44772595173379
20
-375.00001931882036
30
0
10
598.00003579342558
20
-374.55228609681859
30
0
10
598.00003579342558
20
-373.99999422683953
30
0
0
LINE
5
371
100
AcDbEntity
8
0
100
AcDbLine
10
598.00003579342558
20
-373.99999422683953
30
0
11
598.00003579342558
21
-366.00000880946021
31
0
0
SPLINE
5
372
100
AcDbEntity
8
0
100
AcDbSpline
70
0
71
3
72
8
73
4
74
0
42
0.000000001
43
0.0000000001
44
0.0000000001
40
4
40
4
40
4
40
4
40
5
40
5
40
5
40
5
10
598.00003579342558
20
-366.00000880946021
30
0
10
598.00003579342558
20
-365.44771693948098
30
0
10
598.44772595173379
20
-365.00002678117278
30
0
10
599.00001782171307
20
-365.00002678117278
30
0
0
LINE
5
373
100
AcDbEntity
8
0
100
AcDbLine
10
599.00001782171307
20
-365.00002678117278
30
0
11
601.00002494198122
21
-365.00002678117278
31
0
0
SPLINE
5
374
100
AcDbEntity
8
0
100
AcDbSpline
70
0
71
3
72
8
73
4
74
0
42
0.000000001
43
0.0000000001
44
0.0000000001
40
6
40
6
40
6
40
6
40
7
40
7
40
7
40
7
10
601.00002494198122
20
-365.00002678117278
30
0
10
601.55227374826677
20
-365.00002678117278
30
0
10
602.00000697026849
20
-365.44771693948098
30
0
10
602.00000697026849
20
-366.00000880946021
30
0
0
LINE
5
375
100
AcDbEntity
8
0
100
AcDbLine
10
602.00000697026849
20
-366.00000880946021
30
0
11
602.00000697026849
21
-373.99999422683953
31
0
0
LINE
5
376
100
AcDbEntity
8
0
100
AcDbLine
10
482.9999849595452
20
-217.5000076597907
30
0
11
372.99998091803468
21
-217.5000076597907
31
0
0
SPLINE
5
377
100
AcDbEntity
8
0
100
AcDbSpline
70
0
71
3
72
8
73
4
74
0
42
0.000000001
43
0.0000000001
44
0.0000000001
40
1
40
1
40
1
40
1
40
2
40
2
40
2
40
2
10
372.99998091803468
20
-217.5000076597907
30
0
10
367.47714834563078
20
-217.5000076597907
30
0
10
362.99998838038726
20
-221.97716762503433
30
0
10
362.99998838038726
20
-227.50002172928509
30
0
0
LINE
5
378
100
AcDbEntity
8
0
100
AcDbLine
10
362.99998838038726
20
-227.50002172928509
30
0
11
362.99998838038726
21
-277.50000594936972
31
0
0
SPLINE
5
379
100
AcDbEntity
8
0
100
AcDbSpline
70
0
71
3
72
8
73
4
74
0
42
0.000000001
43
0.0000000001
44
0.0000000001
40
3
40
3
40
3
40
3
40
4
40
4
40
4
40
4
10
362.99998838038726
20
-277.50000594936972
30
0
10
362.99998838038726
20
-283.02286005362049
30
0
10
367.47714834563078
20
-287.50002001886412
30
0
10
372.99998091803468
20
-287.50002001886412
30
0
0
LINE
5
380
100
AcDbEntity
8
0
100
AcDbLine
10
372.99998091803468
20
-287.50002001886412
30
0
11
405.00000871493921
21
-287.50002001886412
31
0
0
SPLINE
5
381
100
AcDbEntity
8
0
100
AcDbSpline
70
0
71
3
72
8
73
4
74
0
42
0.000000001
43
0.0000000001
44
0.0000000001
40
5
40
5
40
5
40
5
40
6
40
6
40
6
40
6
10
405.00000871493921
20
-287.50002001886412
30
0
10
406.65684126118299
20
-287.50002001886412
30
0
10
407.9999978634948
20
-288.84315508932912
30
0
10
407.9999978634948
20
-290.50000916741965
30
0
0
LINE
5
382
100
AcDbEntity
8
0
100
AcDbLine
10
407.9999978634948
20
-290.50000916741965
30
0
11
407.9999978634948
21
-362.50000711491407
31
0
0
SPLINE
5
383
100
AcDbEntity
8
0
100
AcDbSpline
70
0
71
3
72
8
73
4
74
0
42
0.000000001
43
0.0000000001
44
0.0000000001
40
7
40
7
40
7
40
7
40
8
40
8
40
8
40
8
10
407.9999978634948
20
-362.50000711491407
30
0
10
407.9999978634948
20
-373.54571532341566
30
0
10
416.95431779398183
20
-382.49999219020924
30
0
10
427.99998293878991
20
-382.49999219020924
30
0
0
LINE
5
384
100
AcDbEntity
8
0
100
AcDbLine
10
427.99998293878991
20
-382.49999219020924
30
0
11
428.00006906617705
21
-382.49999219020924
31
0
0
SPLINE
5
385
100
AcDbEntity
8
0
100
AcDbSpline
70
0
71
3
72
8
73
4
74
0
42
0.000000001
43
0.0000000001
44
0.0000000001
40
9
40
9
40
9
40
9
40
10
40
10
40
10
40
10
10
428.00006906617705
20
-382.49999219020924
30
0
10
439.04573421098519
20
-382.49999219020924
30
0
10
447.9999680140852
20
-373.54571532341566
30
0
10
447.9999680140852
20
-362.50005017860769
30
0
0
LINE
5
386
100
AcDbEntity
8
0
100
AcDbLine
10
447.9999680140852
20
-362.50005017860769
30
0
11
447.9999680140852
21
-290.50000916741965
31
0
0
SPLINE
5
387
100
AcDbEntity
8
0
100
AcDbSpline
70
0
71
3
72
8
73
4
74
0
42
0.000000001
43
0.0000000001
44
0.0000000001
40
11
40
11
40
11
40
11
40
12
40
12
40
12
40
12
10
447.9999680140852
20
-290.50000916741965
30
0
10
447.9999680140852
20
-288.84315508932912
30
0
10
449.34312461639678
20
-287.50002001886412
30
0
10
451.00000022633424
20
-287.50002001886412
30
0
0
LINE
5
388
100
AcDbEntity
8
0
100
AcDbLine
10
451.00000022633424
20
-287.50002001886412
30
0
11
482.9999849595452
21
-287.50002001886412
31
0
0
SPLINE
5
389
100
AcDbEntity
8
0
100
AcDbSpline
70
0
71
3
72
8
73
4
74
0
42
0.000000001
43
0.0000000001
44
0.0000000001
40
13
40
13
40
13
40
13
40
14
40
14
40
14
40
14
10
482.9999849595452
20
-287.50002001886412
30
0
10
488.52281753194916
20
-287.50002001886412
30
0
10
492.99997749719267
20
-283.02286005362049
30
0
10
492.99997749719267
20
-277.50000594936972
30
0
0
LINE
5
390
100
AcDbEntity
8
0
100
AcDbLine
10
492.99997749719267
20
-277.50000594936972
30
0
11
492.99997749719267
21
-227.50002172928509
31
0
0
SPLINE
5
391
100
AcDbEntity
8
0
100
AcDbSpline
70
0
71
3
72
8
73
4
74
0
42
0.000000001
43
0.0000000001
44
0.0000000001
40
15
40
15
40
15
40
15
40
16
40
16
40
16
40
16
10
492.99997749719267
20
-227.50002172928509
30
0
10
492.99997749719267
20
-221.97716762503433
30
0
10
488.52281753194916
20
-217.5000076597907
30
0
10
482.9999849595452
20
-217.5000076597907
30
0
0
SPLINE
5
392
100
AcDbEntity
8
0
100
AcDbSpline
70
0
71
3
72
8
73
4
74
0
42
0.000000001
43
0.0000000001
44
0.0000000001
40
0
40
0
40
0
40
0
40
1
40
1
40
1
40
1
10
511.99998851267935
20
-226.00000562316018
30
0
10
511.99998851267935
20
-225.44771375318106
30
0
10
512.44772173468107
20
-224.99998053117935
30
0
10
512.99997054096661
20
-224.99998053117935
30
0
0
LINE
5
393
100
AcDbEntity
8
0
100
AcDbLine
10
512.99997054096661
20
-224.99998053117935
30
0
11
514.99997766123488
21
-224.99998053117935
31
0
0
SPLINE
5
394
100
AcDbEntity
8
0
100
AcDbSpline
70
0
71
3
72
8
73
4
74
0
42
0.000000001
43
0.0000000001
44
0.0000000001
40
2
40
2
40
2
40
2
40
3
40
3
40
3
40
3
10
514.99997766123488
20
-224.99998053117935
30
0
10
515.55226953121394
20
-224.99998053117935
30
0
10
515.99995968952214
20
-225.44771375318106
30
0
10
515.99995968952214
20
-226.00000562316018
30
0
0
LINE
5
395
100
AcDbEntity
8
0
100
AcDbLine
10
515.99995968952214
20
-226.00000562316018
30
0
11
515.99995968952214
21
-233.9999910405395
31
0
0
SPLINE
5
396
100
AcDbEntity
8
0
100
AcDbSpline
70
0
71
3
72
8
73
4
74
0
42
0.000000001
43
0.0000000001
44
0.0000000001
40
4
40
4
40
4
40
4
40
5
40
5
40
5
40
5
10
515.99995968952214
20
-233.9999910405395
30
0
10
515.99995968952214
20
-234.55228291051864
30
0
10
515.55226953121394
20
-234.9999730688269
30
0
10
514.99997766123488
20
-234.9999730688269
30
0
0
LINE
5
397
100
AcDbEntity
8
0
100
AcDbLine
10
514.99997766123488
20
-234.9999730688269
30
0
11
512.99997054096661
21
-234.9999730688269
31
0
0
SPLINE
5
398
100
AcDbEntity
8
0
100
AcDbSpline
70
0
71
3
72
8
73
4
74
0
42
0.000000001
43
0.0000000001
44
0.0000000001
40
6
40
6
40
6
40
6
40
7
40
7
40
7
40
7
10
512.99997054096661
20
-234.9999730688269
30
0
10
512.44772173468107
20
-234.9999730688269
30
0
10
511.99998851267935
20
-234.55228291051864
30
0
10
511.99998851267935
20
-233.9999910405395
30
0
0
LINE
5
399
100
AcDbEntity
8
0
100
AcDbLine
10
511.99998851267935
20
-233.9999910405395
30
0
11
511.99998851267935
21
-226.00000562316018
31
0
0
SPLINE
5
400
100
AcDbEntity
8
0
100
AcDbSpline
70
0
71
3
72
17
73
13
74
0
42
0.000000001
43
0.0000000001
44
0.0000000001
40
0
40
0
40
0
40
0
40
1
40
1
40
1
40
2
40
2
40
2
40
3
40
3
40
3
40
4
40
4
40
4
40
4
10
427.99998293878991
20
-320.50000831220882
30
0
10
426.06702598940336
20
-320.50000831220882
30
0
10
424.50002430793745
20
-318.93300663074285
30
0
10
424.50002430793745
20
-317.00000661766285
30
0
10
424.50002430793745
20
-315.06700660458267
30
0
10
426.06702598940336
20
-313.50000492311682
30
0
10
427.99998293878991
20
-313.50000492311682
30
0
10
429.93302601556366
20
-313.50000492311682
30
0
10
431.50002769702951
20
-315.06700660458267
30
0
10
431.50002769702951
20
-317.00000661766285
30
0
10
431.50002769702951
20
-318.93300663074285
30
0
10
429.93302601556366
20
-320.50000831220882
30
0
10
427.99998293878991
20
-320.50000831220882
30
0
0
LINE
5
401
100
AcDbEntity
8
0
100
AcDbLine
10
458.99999361219238
20
-382.49999219020924
30
0
11
568.99999765370274
21
-382.49999219020924
31
0
0
SPLINE
5
402
100
AcDbEntity
8
0
100
AcDbSpline
70
0
71
3
72
8
73
4
74
0
42
0.000000001
43
0.0000000001
44
0.0000000001
40
1
40
1
40
1
40
1
40
2
40
2
40
2
40
2
10
568.99999765370274
20
-382.49999219020924
30
0
10
574.52283022610675
20
-382.49999219020924
30
0
10
578.99999019135021
20
-378.02283222496567
30
0
10
578.99999019135021
20
-372.4999781207149
30
0
0
LINE
5
403
100
AcDbEntity
8
0
100
AcDbLine
10
578.99999019135021
20
-372.4999781207149
30
0
11
578.99999019135021
21
-322.49999390063033
31
0
0
SPLINE
5
404
100
AcDbEntity
8
0
100
AcDbSpline
70
0
71
3
72
8
73
4
74
0
42
0.000000001
43
0.0000000001
44
0.0000000001
40
3
40
3
40
3
40
3
40
4
40
4
40
4
40
4
10
578.99999019135021
20
-322.49999390063033
30
0
10
578.99999019135021
20
-316.97713979637933
30
0
10
574.52283022610675
20
-312.49997983113587
30
0
10
568.99999765370274
20
-312.49997983113587
30
0
0
LINE
5
405
100
AcDbEntity
8
0
100
AcDbLine
10
568.99999765370274
20
-312.49997983113587
30
0
11
536.9999698567982
21
-312.49997983113587
31
0
0
SPLINE
5
406
100
AcDbEntity
8
0
100
AcDbSpline
70
0
71
3
72
8
73
4
74
0
42
0.000000001
43
0.0000000001
44
0.0000000001
40
5
40
5
40
5
40
5
40
6
40
6
40
6
40
6
10
536.9999698567982
20
-312.49997983113587
30
0
10
535.34313731055431
20
-312.49997983113587
30
0
10
533.99998070824267
20
-311.15684476067088
30
0
10
533.99998070824267
20
-309.49999068258029
30
0
0
LINE
5
407
100
AcDbEntity
8
0
100
AcDbLine
10
533.99998070824267
20
-309.49999068258029
30
0
11
533.99998070824267
21
-237.4999927350855
31
0
0
SPLINE
5
408
100
AcDbEntity
8
0
100
AcDbSpline
70
0
71
3
72
8
73
4
74
0
42
0.000000001
43
0.0000000001
44
0.0000000001
40
7
40
7
40
7
40
7
40
8
40
8
40
8
40
8
10
533.99998070824267
20
-237.4999927350855
30
0
10
533.99998070824267
20
-226.45428452658393
30
0
10
525.04566077775553
20
-217.50000765979041
30
0
10
513.9999956329475
20
-217.50000765979041
30
0
0
LINE
5
409
100
AcDbEntity
8
0
100
AcDbLine
10
513.9999956329475
20
-217.50000765979041
30
0
11
513.99990950556037
21
-217.50000765979041
31
0
0
SPLINE
5
410
100
AcDbEntity
8
0
100
AcDbSpline
70
0
71
3
72
8
73
4
74
0
42
0.000000001
43
0.0000000001
44
0.0000000001
40
9
40
9
40
9
40
9
40
10
40
10
40
10
40
10
10
513.99990950556037
20
-217.50000765979041
30
0
10
502.95424436075234
20
-217.50000765979041
30
0
10
494.00001055765239
20
-226.45428452658393
30
0
10
494.00001055765239
20
-237.49994967139202
30
0
0
LINE
5
411
100
AcDbEntity
8
0
100
AcDbLine
10
494.00001055765239
20
-237.49994967139202
30
0
11
494.00001055765239
21
-309.49999068258029
31
0
0
SPLINE
5
412
100
AcDbEntity
8
0
100
AcDbSpline
70
0
71
3
72
8
73
4
74
0
42
0.000000001
43
0.0000000001
44
0.0000000001
40
11
40
11
40
11
40
11
40
12
40
12
40
12
40
12
10
494.00001055765239
20
-309.49999068258029
30
0
10
494.00001055765239
20
-311.15684476067088
30
0
10
492.65685395534064
20
-312.49997983113587
30
0
10
490.99997834540324
20
-312.49997983113587
30
0
0
LINE
5
413
100
AcDbEntity
8
0
100
AcDbLine
10
490.99997834540324
20
-312.49997983113587
30
0
11
458.99999361219238
21
-312.49997983113587
31
0
0
SPLINE
5
414
100
AcDbEntity
8
0
100
AcDbSpline
70
0
71
3
72
8
73
4
74
0
42
0.000000001
43
0.0000000001
44
0.0000000001
40
13
40
13
40
13
40
13
40
14
40
14
40
14
40
14
10
458.99999361219238
20
-312.49997983113587
30
0
10
453.47716103978826
20
-312.49997983113587
30
0
10
449.00000107454474
20
-316.97713979637933
30
0
10
449.00000107454474
20
-322.49999390063033
30
0
0
LINE
5
415
100
AcDbEntity
8
0
100
AcDbLine
10
449.00000107454474
20
-322.49999390063033
30
0
11
449.00000107454474
21
-372.4999781207149
31
0
0
SPLINE
5
416
100
AcDbEntity
8
0
100
AcDbSpline
70
0
71
3
72
8
73
4
74
0
42
0.000000001
43
0.0000000001
44
0.0000000001
40
15
40
15
40
15
40
15
40
16
40
16
40
16
40
16
10
449.00000107454474
20
-372.4999781207149
30
0
10
449.00000107454474
20
-378.02283222496567
30
0
10
453.47716103978826
20
-382.49999219020924
30
0
10
458.99999361219238
20
-382.49999219020924
30
0
0
SPLINE
5
417
100
AcDbEntity
8
0
100
AcDbSpline
70
0
71
3
72
8
73
4
74
0
42
0.000000001
43
0.0000000001
44
0.0000000001
40
0
40
0
40
0
40
0
40
1
40
1
40
1
40
1
10
429.99999005905818
20
-373.99999422683953
30
0
10
429.99999005905818
20
-374.55228609681859
30
0
10
429.55225683705635
20
-375.00001931882036
30
0
10
429.00000803077086
20
-375.00001931882036
30
0
0
LINE
5
418
100
AcDbEntity
8
0
100
AcDbLine
10
429.00000803077086
20
-375.00001931882036
30
0
11
427.00000091050271
21
-375.00001931882036
31
0
0
SPLINE
5
419
100
AcDbEntity
8
0
100
AcDbSpline
70
0
71
3
72
8
73
4
74
0
42
0.000000001
43
0.0000000001
44
0.0000000001
40
2
40
2
40
2
40
2
40
3
40
3
40
3
40
3
10
427.00000091050271
20
-375.00001931882036
30
0
10
426.44770904052359
20
-375.00001931882036
30
0
10
426.00001888221533
20
-374.55228609681859
30
0
10
426.00001888221533
20
-373.99999422683953
30
0
0
LINE
5
420
100
AcDbEntity
8
0
100
AcDbLine
10
426.00001888221533
20
-373.99999422683953
30
0
11
426.00001888221533
21
-366.00000880946021
31
0
0
SPLINE
5
421
100
AcDbEntity
8
0
100
AcDbSpline
70
0
71
3
72
8
73
4
74
0
42
0.000000001
43
0.0000000001
44
0.0000000001
40
4
40
4
40
4
40
4
40
5
40
5
40
5
40
5
10
426.00001888221533
20
-366.00000880946021
30
0
10
426.00001888221533
20
-365.44771693948098
30
0
10
426.44770904052359
20
-365.00002678117278
30
0
10
427.00000091050271
20
-365.00002678117278
30
0
0
LINE
5
422
100
AcDbEntity
8
0
100
AcDbLine
10
427.00000091050271
20
-365.00002678117278
30
0
11
429.00000803077086
21
-365.00002678117278
31
0
0
SPLINE
5
423
100
AcDbEntity
8
0
100
AcDbSpline
70
0
71
3
72
8
73
4
74
0
42
0.000000001
43
0.0000000001
44
0.0000000001
40
6
40
6
40
6
40
6
40
7
40
7
40
7
40
7
10
429.00000803077086
20
-365.00002678117278
30
0
10
429.55225683705635
20
-365.00002678117278
30
0
10
429.99999005905818
20
-365.44771693948098
30
0
10
429.99999005905818
20
-366.00000880946021
30
0
0
LINE
5
424
100
AcDbEntity
8
0
100
AcDbLine
10
429.99999005905818
20
-366.00000880946021
30
0
11
429.99999005905818
21
-373.99999422683953
31
0
0
ENDSEC
0
SECTION
2
OBJECTS
0
DICTIONARY
5
C
100
AcDbDictionary
3
ACAD_GROUP
350
D
3
ACAD_MLINESTYLE
350
17
0
DICTIONARY
5
D
100
AcDbDictionary
0
DICTIONARY
5
1A
330
C
100
AcDbDictionary
0
DICTIONARY
5
17
100
AcDbDictionary
0
ENDSEC
0
EOF
