0
SECTION
2
HEADER
9
$INSUNITS
70
4
9
$ACADVER
1
AC1014
9
$HANDSEED
5
FFFF
0
ENDSEC
0
SECTION
2
TABLES
0
TABLE
2
VPORT
5
8
100
AcDbSymbolTable
0
ENDTAB
0
TABLE
2
LTYPE
5
5
100
AcDbSymbolTable
0
LTYPE
5
14
100
AcDbSymbolTableRecord
100
AcDbLinetypeTableRecord
2
BYBLOCK
70
0
0
LTYPE
5
15
100
AcDbSymbolTableRecord
100
AcDbLinetypeTableRecord
2
BYLAYER
70
0
0
ENDTAB
0
TABLE
2
LAYER
5
2
100
AcDbSymbolTable
70
2
0
LAYER
5
50
100
AcDbSymbolTableRecord
100
AcDbLayerTableRecord
2
0
70
0
6
CONTINUOUS
0
ENDTAB
0
TABLE
2
STYLE
5
3
100
AcDbSymbolTable
70
1
0
STYLE
5
11
100
AcDbSymbolTableRecord
100
AcDbTextStyleTableRecord
2
STANDARD
70
0
0
ENDTAB
0
TABLE
2
VIEW
5
6
100
AcDbSymbolTable
70
0
0
ENDTAB
0
TABLE
2
UCS
5
7
100
AcDbSymbolTable
70
0
0
ENDTAB
0
TABLE
2
APPID
5
9
100
AcDbSymbolTable
70
2
0
APPID
5
12
100
AcDbSymbolTableRecord
100
AcDbRegAppTableRecord
2
ACAD
70
0
0
ENDTAB
0
TABLE
2
DIMSTYLE
5
A
100
AcDbSymbolTable
70
1
0
ENDTAB
0
TABLE
2
BLOCK_RECORD
5
1
100
AcDbSymbolTable
70
1
0
BLOCK_RECORD
5
1F
100
AcDbSymbolTableRecord
100
AcDbBlockTableRecord
2
*MODEL_SPACE
0
BLOCK_RECORD
5
1B
100
AcDbSymbolTableRecord
100
AcDbBlockTableRecord
2
*PAPER_SPACE
0
ENDTAB
0
ENDSEC
0
SECTION
2
BLOCKS
0
BLOCK
5
20
100
AcDbEntity
100
AcDbBlockBegin
2
*MODEL_SPACE
0
ENDBLK
5
21
100
AcDbEntity
100
AcDbBlockEnd
0
BLOCK
5
1C
100
AcDbEntity
100
AcDbBlockBegin
2
*PAPER_SPACE
0
ENDBLK
5
1D
100
AcDbEntity
100
AcDbBlockEnd
0
ENDSEC
0
SECTION
2
ENTITIES
0
LINE
5
100
100
AcDbEntity
8
0
100
AcDbLine
10
138.99997656843991
20
-217.5000076597907
30
0
11
28.999972526929465
21
-217.5000076597907
31
0
0
SPLINE
5
101
100
AcDbEntity
8
0
100
AcDbSpline
70
0
71
3
72
8
73
4
74
0
42
0.000000001
43
0.0000000001
44
0.0000000001
40
1
40
1
40
1
40
1
40
2
40
2
40
2
40
2
10
28.999972526929461
20
-217.5000076597907
30
0
10
23.477139954525441
20
-217.5000076597907
30
0
10
18.99997998928189
20
-221.97716762503433
30
0
10
18.99997998928189
20
-227.50002172928509
30
0
0
LINE
5
102
100
AcDbEntity
8
0
100
AcDbLine
10
18.99997998928189
20
-227.50002172928509
30
0
11
18.99997998928189
21
-277.50000594936972
31
0
0
SPLINE
5
103
100
AcDbEntity
8
0
100
AcDbSpline
70
0
71
3
72
8
73
4
74
0
42
0.000000001
43
0.0000000001
44
0.0000000001
40
3
40
3
40
3
40
3
40
4
40
4
40
4
40
4
10
18.99997998928189
20
-277.50000594936972
30
0
10
18.99997998928189
20
-283.02286005362049
30
0
10
23.477139954525441
20
-287.50002001886412
30
0
10
28.999972526929461
20
-287.50002001886412
30
0
0
LINE
5
104
100
AcDbEntity
8
0
100
AcDbLine
10
28.999972526929461
20
-287.50002001886412
30
0
11
61.00000032383398
21
-287.50002001886412
31
0
0
SPLINE
5
105
100
AcDbEntity
8
0
100
AcDbSpline
70
0
71
3
72
8
73
4
74
0
42
0.000000001
43
0.0000000001
44
0.0000000001
40
5
40
5
40
5
40
5
40
6
40
6
40
6
40
6
10
61.00000032383398
20
-287.50002001886412
30
0
10
62.65683287007775
20
-287.50002001886412
30
0
10
63.999989472389544
20
-288.84315508932912
30
0
10
63.999989472389544
20
-290.50000916741965
30
0
0
LINE
5
106
100
AcDbEntity
8
0
100
AcDbLine
10
63.999989472389544
20
-290.50000916741965
30
0
11
63.999989472389544
21
-362.50000711491407
31
0
0
SPLINE
5
107
100
AcDbEntity
8
0
100
AcDbSpline
70
0
71
3
72
8
73
4
74
0
42
0.000000001
43
0.0000000001
44
0.0000000001
40
7
40
7
40
7
40
7
40
8
40
8
40
8
40
8
10
63.999989472389544
20
-362.50000711491407
30
0
10
63.999989472389544
20
-373.54571532341566
30
0
10
72.95430940287666
20
-382.49999219020924
30
0
10
83.999974547684673
20
-382.49999219020924
30
0
0
LINE
5
108
100
AcDbEntity
8
0
100
AcDbLine
10
83.999974547684673
20
-382.49999219020924
30
0
11
84.000060675071808
21
-382.49999219020924
31
0
0
SPLINE
5
109
100
AcDbEntity
8
0
100
AcDbSpline
70
0
71
3
72
8
73
4
74
0
42
0.000000001
43
0.0000000001
44
0.0000000001
40
9
40
9
40
9
40
9
40
10
40
10
40
10
40
10
10
84.000060675071808
20
-382.49999219020924
30
0
10
95.045725819879848
20
-382.49999219020924
30
0
10
103.99995962297979
20
-373.54571532341566
30
0
10
103.99995962297979
20
-362.50005017860769
30
0
0
LINE
5
110
100
AcDbEntity
8
0
100
AcDbLine
10
103.99995962297979
20
-362.50005017860769
30
0
11
103.99995962297979
21
-290.50000916741965
31
0
0
SPLINE
5
111
100
AcDbEntity
8
0
100
AcDbSpline
70
0
71
3
72
8
73
4
74
0
42
0.000000001
43
0.0000000001
44
0.0000000001
40
11
40
11
40
11
40
11
40
12
40
12
40
12
40
12
10
103.99995962297979
20
-290.50000916741965
30
0
10
103.99995962297979
20
-288.84315508932912
30
0
10
105.3431162252916
20
-287.50002001886412
30
0
10
106.99999183522891
20
-287.50002001886412
30
0
0
LINE
5
112
100
AcDbEntity
8
0
100
AcDbLine
10
106.99999183522891
20
-287.50002001886412
30
0
11
138.99997656843991
21
-287.50002001886412
31
0
0
SPLINE
5
113
100
AcDbEntity
8
0
100
AcDbSpline
70
0
71
3
72
8
73
4
74
0
42
0.000000001
43
0.0000000001
44
0.0000000001
40
13
40
13
40
13
40
13
40
14
40
14
40
14
40
14
10
138.99997656843991
20
-287.50002001886412
30
0
10
144.52280914084392
20
-287.50002001886412
30
0
10
148.99996910608749
20
-283.02286005362049
30
0
10
148.99996910608749
20
-277.50000594936972
30
0
0
LINE
5
114
100
AcDbEntity
8
0
100
AcDbLine
10
148.99996910608749
20
-277.50000594936972
30
0
11
148.99996910608749
21
-227.50002172928509
31
0
0
SPLINE
5
115
100
AcDbEntity
8
0
100
AcDbSpline
70
0
71
3
72
8
73
4
74
0
42
0.000000001
43
0.0000000001
44
0.0000000001
40
15
40
15
40
15
40
15
40
16
40
16
40
16
40
16
10
148.99996910608749
20
-227.50002172928509
30
0
10
148.99996910608749
20
-221.97716762503433
30
0
10
144.52280914084392
20
-217.5000076597907
30
0
10
138.99997656843991
20
-217.5000076597907
30
0
0
SPLINE
5
116
100
AcDbEntity
8
0
100
AcDbSpline
70
0
71
3
72
8
73
4
74
0
42
0.000000001
43
0.0000000001
44
0.0000000001
40
0
40
0
40
0
40
0
40
1
40
1
40
1
40
1
10
85.999981667952895
20
-373.99999422683953
30
0
10
85.999981667952895
20
-374.55228609681859
30
0
10
85.552248445951136
20
-375.00001931882036
30
0
10
84.999999639665575
20
-375.00001931882036
30
0
0
LINE
5
117
100
AcDbEntity
8
0
100
AcDbLine
10
84.999999639665575
20
-375.00001931882036
30
0
11
82.999992519397352
21
-375.00001931882036
31
0
0
SPLINE
5
118
100
AcDbEntity
8
0
100
AcDbSpline
70
0
71
3
72
8
73
4
74
0
42
0.000000001
43
0.0000000001
44
0.0000000001
40
2
40
2
40
2
40
2
40
3
40
3
40
3
40
3
10
82.999992519397352
20
-375.00001931882036
30
0
10
82.447700649418238
20
-375.00001931882036
30
0
10
82.000010491110004
20
-374.55228609681859
30
0
10
82.000010491110004
20
-373.99999422683953
30
0
0
LINE
5
119
100
AcDbEntity
8
0
100
AcDbLine
10
82.000010491110004
20
-373.99999422683953
30
0
11
82.000010491110004
21
-366.00000880946021
31
0
0
SPLINE
5
120
100
AcDbEntity
8
0
100
AcDbSpline
70
0
71
3
72
8
73
4
74
0
42
0.000000001
43
0.0000000001
44
0.0000000001
40
4
40
4
40
4
40
4
40
5
40
5
40
5
40
5
10
82.000010491110004
20
-366.00000880946021
30
0
10
82.000010491110004
20
-365.44771693948098
30
0
10
82.447700649418238
20
-365.00002678117278
30
0
10
82.999992519397352
20
-365.00002678117278
30
0
0
LINE
5
121
100
AcDbEntity
8
0
100
AcDbLine
10
82.999992519397352
20
-365.00002678117278
30
0
11
84.999999639665575
21
-365.00002678117278
31
0
0
SPLINE
5
122
100
AcDbEntity
8
0
100
AcDbSpline
70
0
71
3
72
8
73
4
74
0
42
0.000000001
43
0.0000000001
44
0.0000000001
40
6
40
6
40
6
40
6
40
7
40
7
40
7
40
7
10
84.999999639665575
20
-365.00002678117278
30
0
10
85.552248445951136
20
-365.00002678117278
30
0
10
85.999981667952895
20
-365.44771693948098
30
0
10
85.999981667952895
20
-366.00000880946021
30
0
0
LINE
5
123
100
AcDbEntity
8
0
100
AcDbLine
10
85.999981667952895
20
-366.00000880946021
30
0
11
85.999981667952895
21
-373.99999422683953
31
0
0
SPLINE
5
124
100
AcDbEntity
8
0
100
AcDbSpline
70
0
71
3
72
17
73
13
74
0
42
0.000000001
43
0.0000000001
44
0.0000000001
40
0
40
0
40
0
40
0
40
1
40
1
40
1
40
2
40
2
40
2
40
3
40
3
40
3
40
4
40
4
40
4
40
4
10
83.999974547684673
20
-320.50000831220882
30
0
10
82.067017598298122
20
-320.50000831220882
30
0
10
80.500015916832254
20
-318.93300663074285
30
0
10
80.500015916832254
20
-317.00000661766285
30
0
10
80.500015916832254
20
-315.06700660458267
30
0
10
82.067017598298122
20
-313.50000492311682
30
0
10
83.999974547684673
20
-313.50000492311682
30
0
10
85.933017624458344
20
-313.50000492311682
30
0
10
87.500019305924241
20
-315.06700660458267
30
0
10
87.500019305924241
20
-317.00000661766285
30
0
10
87.500019305924241
20
-318.93300663074285
30
0
10
85.933017624458344
20
-320.50000831220882
30
0
10
83.999974547684673
20
-320.50000831220882
30
0
0
ENDSEC
0
SECTION
2
OBJECTS
0
DICTIONARY
5
C
100
AcDbDictionary
3
ACAD_GROUP
350
D
3
ACAD_MLINESTYLE
350
17
0
DICTIONARY
5
D
100
AcDbDictionary
0
DICTIONARY
5
1A
330
C
100
AcDbDictionary
0
DICTIONARY
5
17
100
AcDbDictionary
0
ENDSEC
0
EOF
