0
SECTION
2
HEADER
9
$INSUNITS
70
4
9
$ACADVER
1
AC1014
9
$HANDSEED
5
FFFF
0
ENDSEC
0
SECTION
2
TABLES
0
TABLE
2
VPORT
5
8
100
AcDbSymbolTable
0
ENDTAB
0
TABLE
2
LTYPE
5
5
100
AcDbSymbolTable
0
LTYPE
5
14
100
AcDbSymbolTableRecord
100
AcDbLinetypeTableRecord
2
BYBLOCK
70
0
0
LTYPE
5
15
100
AcDbSymbolTableRecord
100
AcDbLinetypeTableRecord
2
BYLAYER
70
0
0
ENDTAB
0
TABLE
2
LAYER
5
2
100
AcDbSymbolTable
70
2
0
LAYER
5
50
100
AcDbSymbolTableRecord
100
AcDbLayerTableRecord
2
0
70
0
6
CONTINUOUS
0
ENDTAB
0
TABLE
2
STYLE
5
3
100
AcDbSymbolTable
70
1
0
STYLE
5
11
100
AcDbSymbolTableRecord
100
AcDbTextStyleTableRecord
2
STANDARD
70
0
0
ENDTAB
0
TABLE
2
VIEW
5
6
100
AcDbSymbolTable
70
0
0
ENDTAB
0
TABLE
2
UCS
5
7
100
AcDbSymbolTable
70
0
0
ENDTAB
0
TABLE
2
APPID
5
9
100
AcDbSymbolTable
70
2
0
APPID
5
12
100
AcDbSymbolTableRecord
100
AcDbRegAppTableRecord
2
ACAD
70
0
0
ENDTAB
0
TABLE
2
DIMSTYLE
5
A
100
AcDbSymbolTable
70
1
0
ENDTAB
0
TABLE
2
BLOCK_RECORD
5
1
100
AcDbSymbolTable
70
1
0
BLOCK_RECORD
5
1F
100
AcDbSymbolTableRecord
100
AcDbBlockTableRecord
2
*MODEL_SPACE
0
BLOCK_RECORD
5
1B
100
AcDbSymbolTableRecord
100
AcDbBlockTableRecord
2
*PAPER_SPACE
0
ENDTAB
0
ENDSEC
0
SECTION
2
BLOCKS
0
BLOCK
5
20
100
AcDbEntity
100
AcDbBlockBegin
2
*MODEL_SPACE
0
ENDBLK
5
21
100
AcDbEntity
100
AcDbBlockEnd
0
BLOCK
5
1C
100
AcDbEntity
100
AcDbBlockBegin
2
*PAPER_SPACE
0
ENDBLK
5
1D
100
AcDbEntity
100
AcDbBlockEnd
0
ENDSEC
0
SECTION
2
ENTITIES
0
LWPOLYLINE
5
100
100
AcDbEntity
8
0
100
AcDbPolyline
90
4
70
1
43
0.0
10
-151.7498126468019
20
-106.0000000000062
10
-151.7498126467751
20
-70.000000000004675
42
0.99999999999999989
10
-164.24981264688194
20
-69.999999999995438
10
-164.24981264690868
20
-105.99999999999395
42
0.99999999999999989
0
LWPOLYLINE
5
101
100
AcDbEntity
8
0
100
AcDbPolyline
90
4
70
1
43
0.0
10
-161.24981264682845
20
-70.000000000000071
42
-0.99999999999999989
10
-154.74981264677518
20
-70.000000000000071
10
-154.74981264683754
20
-76.000000000000099
42
-0.99999786140011226
10
-161.24981264688785
20
-76.000013900821301
0
LWPOLYLINE
5
102
100
AcDbEntity
8
0
100
AcDbPolyline
90
4
70
1
43
0.0
10
-154.74981264681082
20
-100.00000000000007
42
1.000001788140942
10
-161.24981264687005
20
-100.00001162290576
10
-161.24981264682845
20
-106.00000000000007
42
0.99999999999999989
10
-154.74981264688216
20
-106.00000000000007
0
LWPOLYLINE
5
103
100
AcDbEntity
8
0
100
AcDbPolyline
90
4
70
1
43
0.0
10
-147.04691409610379
20
-106.00000000000007
42
0.99999999999999989
10
-140.54691409615754
20
-106.00000000000007
10
-140.5469140960862
20
-100.00000000000007
42
1.000001788140942
10
-147.0469140961454
20
-100.00001162290576
0
LWPOLYLINE
5
104
100
AcDbEntity
8
0
100
AcDbPolyline
90
4
70
1
43
0.0
10
-147.04691409616319
20
-76.000013900821301
10
-147.04691409610379
20
-70.000000000000071
42
-0.99999999999999989
10
-140.54691409605053
20
-70.000000000000071
10
-140.54691409611291
20
-76.000000000000099
42
-0.99999786140011226
0
LWPOLYLINE
5
105
100
AcDbEntity
8
0
100
AcDbPolyline
90
4
70
1
43
0.0
10
-150.04691409618405
20
-105.99999999999395
42
0.99999999999999989
10
-137.54691409607727
20
-106.0000000000062
10
-137.54691409605047
20
-70.000000000004675
42
0.99999999999999989
10
-150.04691409615728
20
-69.999999999995438
0
LWPOLYLINE
5
106
100
AcDbEntity
8
0
100
AcDbPolyline
90
4
70
1
43
0.0
10
-132.84401554537916
20
-106.00000000000007
42
0.99999999999999989
10
-126.3440155454329
20
-106.00000000000007
10
-126.34401554536156
20
-100.00000000000007
42
1.000001788140942
10
-132.84401554542077
20
-100.00001162290576
0
LWPOLYLINE
5
107
100
AcDbEntity
8
0
100
AcDbPolyline
90
4
70
1
43
0.0
10
-132.84401554543857
20
-76.000013900821301
10
-132.84401554537916
20
-70.000000000000071
42
-0.99999999999999989
10
-126.34401554532589
20
-70.000000000000071
10
-126.34401554538827
20
-76.000000000000099
42
-0.99999786140011226
0
LWPOLYLINE
5
108
100
AcDbEntity
8
0
100
AcDbPolyline
90
4
70
1
43
0.0
10
-135.8440155454594
20
-105.99999999999395
42
0.99999999999999989
10
-123.34401554535263
20
-106.0000000000062
10
-123.34401554532583
20
-70.000000000004675
42
0.99999999999999989
10
-135.84401554543265
20
-69.999999999995438
0
LWPOLYLINE
5
109
100
AcDbEntity
8
0
100
AcDbPolyline
90
4
70
1
43
0.0
10
-118.64111699465454
20
-106.00000000000007
42
0.99999999999999989
10
-112.14111699470827
20
-106.00000000000007
10
-112.14111699463693
20
-100.00000000000007
42
1.000001788140942
10
-118.64111699469615
20
-100.00001162290576
0
LWPOLYLINE
5
110
100
AcDbEntity
8
0
100
AcDbPolyline
90
4
70
1
43
0.0
10
-118.64111699471394
20
-76.000013900821301
10
-118.64111699465454
20
-70.000000000000071
42
-0.99999999999999989
10
-112.14111699460126
20
-70.000000000000071
10
-112.14111699466365
20
-76.000000000000099
42
-0.99999786140011226
0
LWPOLYLINE
5
111
100
AcDbEntity
8
0
100
AcDbPolyline
90
4
70
1
43
0.0
10
-121.64111699473474
20
-105.99999999999395
42
0.99999999999999989
10
-109.14111699462801
20
-106.0000000000062
10
-109.14111699460121
20
-70.000000000004675
42
0.99999999999999989
10
-121.64111699470801
20
-69.999999999995438
0
LWPOLYLINE
5
112
100
AcDbEntity
8
0
100
AcDbPolyline
90
4
70
1
43
0.0
10
-104.43821844392988
20
-106.00000000000007
42
0.99999999999999989
10
-97.938218443983629
20
-106.00000000000007
10
-97.938218443912291
20
-100.00000000000007
42
1.000001788140942
10
-104.43821844397149
20
-100.00001162290576
0
LWPOLYLINE
5
113
100
AcDbEntity
8
0
100
AcDbPolyline
90
4
70
1
43
0.0
10
-104.43821844398929
20
-76.000013900821301
10
-104.43821844392988
20
-70.000000000000071
42
-0.99999999999999989
10
-97.938218443876622
20
-70.000000000000071
10
-97.938218443939007
20
-76.000000000000099
42
-0.99999786140011226
0
LWPOLYLINE
5
114
100
AcDbEntity
8
0
100
AcDbPolyline
90
4
70
1
43
0.0
10
-107.43821844401012
20
-105.99999999999395
42
0.99999999999999989
10
-94.938218443903367
20
-106.0000000000062
10
-94.938218443876551
20
-70.000000000004675
42
0.99999999999999989
10
-107.43821844398337
20
-69.999999999995438
0
LWPOLYLINE
5
115
100
AcDbEntity
8
0
100
AcDbPolyline
90
4
70
1
43
0.0
10
-90.235319893205244
20
-106.00000000000007
42
0.99999999999999989
10
-83.735319893258975
20
-106.00000000000007
10
-83.735319893187636
20
-100.00000000000007
42
1.000001788140942
10
-90.235319893246839
20
-100.00001162290576
0
LWPOLYLINE
5
116
100
AcDbEntity
8
0
100
AcDbPolyline
90
4
70
1
43
0.0
10
-90.235319893264645
20
-76.000013900821301
10
-90.235319893205244
20
-70.000000000000071
42
-0.99999999999999989
10
-83.735319893151967
20
-70.000000000000071
10
-83.735319893214353
20
-76.000000000000099
42
-0.99999786140011226
0
LWPOLYLINE
5
117
100
AcDbEntity
8
0
100
AcDbPolyline
90
4
70
1
43
0.0
10
-93.235319893285492
20
-105.99999999999395
42
0.99999999999999989
10
-80.735319893178712
20
-106.0000000000062
10
-80.73531989315191
20
-70.000000000004675
42
0.99999999999999989
10
-93.235319893258719
20
-69.999999999995438
0
LWPOLYLINE
5
118
100
AcDbEntity
8
0
100
AcDbPolyline
90
4
70
1
43
0.0
10
-76.032421342480617
20
-106.00000000000007
42
0.99999999999999989
10
-69.532421342534349
20
-106.00000000000007
10
-69.53242134246301
20
-100.00000000000007
42
1.000001788140942
10
-76.032421342522213
20
-100.00001162290576
0
LWPOLYLINE
5
119
100
AcDbEntity
8
0
100
AcDbPolyline
90
4
70
1
43
0.0
10
-76.032421342540019
20
-76.000013900821301
10
-76.032421342480603
20
-70.000000000000071
42
-0.99999999999999989
10
-69.532421342427341
20
-70.000000000000071
10
-69.532421342489727
20
-76.000000000000099
42
-0.99999786140011226
0
LWPOLYLINE
5
120
100
AcDbEntity
8
0
100
AcDbPolyline
90
4
70
1
43
0.0
10
-79.032421342560838
20
-105.99999999999395
42
0.99999999999999989
10
-66.532421342454086
20
-106.0000000000062
10
-66.532421342427284
20
-70.000000000004675
42
0.99999999999999989
10
-79.032421342534093
20
-69.999999999995438
0
LWPOLYLINE
5
121
100
AcDbEntity
8
0
100
AcDbPolyline
90
4
70
1
43
0.0
10
-61.829522791755984
20
-106.00000000000007
42
0.99999999999999989
10
-55.329522791809715
20
-106.00000000000007
10
-55.329522791738377
20
-100.00000000000007
42
1.000001788140942
10
-61.829522791797586
20
-100.00001162290576
0
LWPOLYLINE
5
122
100
AcDbEntity
8
0
100
AcDbPolyline
90
4
70
1
43
0.0
10
-61.829522791815386
20
-76.000013900821301
10
-61.829522791755977
20
-70.000000000000071
42
-0.99999999999999989
10
-55.329522791702708
20
-70.000000000000071
10
-55.329522791765093
20
-76.000000000000099
42
-0.99999786140011226
0
LWPOLYLINE
5
123
100
AcDbEntity
8
0
100
AcDbPolyline
90
4
70
1
43
0.0
10
-64.829522791836197
20
-105.99999999999395
42
0.99999999999999989
10
-52.329522791729453
20
-106.0000000000062
10
-52.329522791702658
20
-70.000000000004675
42
0.99999999999999989
10
-64.829522791809467
20
-69.999999999995438
0
LWPOLYLINE
5
124
100
AcDbEntity
8
0
100
AcDbPolyline
90
4
70
1
43
0.0
10
-47.626624241031337
20
-106.00000000000007
42
0.99999999999999989
10
-41.126624241085068
20
-106.00000000000007
10
-41.126624241013729
20
-100.00000000000007
42
1.000001788140942
10
-47.626624241072939
20
-100.00001162290576
0
LWPOLYLINE
5
125
100
AcDbEntity
8
0
100
AcDbPolyline
90
4
70
1
43
0.0
10
-47.626624241090738
20
-76.000013900821301
10
-47.62662424103133
20
-70.000000000000071
42
-0.99999999999999989
10
-41.12662424097806
20
-70.000000000000071
10
-41.126624241040446
20
-76.000000000000099
42
-0.99999786140011226
0
LWPOLYLINE
5
126
100
AcDbEntity
8
0
100
AcDbPolyline
90
4
70
1
43
0.0
10
-50.626624241111557
20
-105.99999999999395
42
0.99999999999999989
10
-38.126624241004805
20
-106.0000000000062
10
-38.126624240978011
20
-70.000000000004675
42
0.99999999999999989
10
-50.626624241084812
20
-69.999999999995438
0
LWPOLYLINE
5
127
100
AcDbEntity
8
0
100
AcDbPolyline
90
4
70
1
43
0.0
10
-33.423725690306689
20
-106.00000000000007
42
0.99999999999999989
10
-26.923725690360421
20
-106.00000000000007
10
-26.923725690289082
20
-100.00000000000007
42
1.000001788140942
10
-33.423725690348292
20
-100.00001162290576
0
LWPOLYLINE
5
128
100
AcDbEntity
8
0
100
AcDbPolyline
90
4
70
1
43
0.0
10
-33.423725690366091
20
-76.000013900821301
10
-33.423725690306682
20
-70.000000000000071
42
-0.99999999999999989
10
-26.923725690253413
20
-70.000000000000071
10
-26.923725690315798
20
-76.000000000000099
42
-0.99999786140011226
0
LWPOLYLINE
5
129
100
AcDbEntity
8
0
100
AcDbPolyline
90
4
70
1
43
0.0
10
-36.42372569038691
20
-105.99999999999395
42
0.99999999999999989
10
-23.923725690280158
20
-106.0000000000062
10
-23.923725690253363
20
-70.000000000004675
42
0.99999999999999989
10
-36.423725690360165
20
-69.999999999995438
0
LWPOLYLINE
5
130
100
AcDbEntity
8
0
100
AcDbPolyline
90
4
70
1
43
0.0
10
-19.22082713958206
20
-106.00000000000007
42
0.99999999999999989
10
-12.720827139635791
20
-106.00000000000007
10
-12.720827139564452
20
-100.00000000000007
42
1.000001788140942
10
-19.220827139623662
20
-100.00001162290576
0
LWPOLYLINE
5
131
100
AcDbEntity
8
0
100
AcDbPolyline
90
4
70
1
43
0.0
10
-19.220827139641461
20
-76.000013900821301
10
-19.220827139582049
20
-70.000000000000071
42
-0.99999999999999989
10
-12.720827139528783
20
-70.000000000000071
10
-12.720827139591167
20
-76.000000000000099
42
-0.99999786140011226
0
LWPOLYLINE
5
132
100
AcDbEntity
8
0
100
AcDbPolyline
90
4
70
1
43
0.0
10
-22.220827139662276
20
-105.99999999999395
42
0.99999999999999989
10
-9.7208271395555279
20
-106.0000000000062
10
-9.7208271395287298
20
-70.000000000004675
42
0.99999999999999989
10
-22.220827139635535
20
-69.999999999995438
0
LWPOLYLINE
5
133
100
AcDbEntity
8
0
100
AcDbPolyline
90
4
70
1
43
0.0
10
-5.0179285888574299
20
-106.00000000000007
42
0.99999999999999989
10
1.4820714110888389
20
-106.00000000000007
10
1.4820714111601778
20
-100.00000000000007
42
1.000001788140942
10
-5.0179285888990321
20
-100.00001162290576
0
LWPOLYLINE
5
134
100
AcDbEntity
8
0
100
AcDbPolyline
90
4
70
1
43
0.0
10
-5.0179285889168312
20
-76.000013900821301
10
-5.017928588857421
20
-70.000000000000071
42
-0.99999999999999989
10
1.4820714111958466
20
-70.000000000000071
10
1.4820714111334627
20
-76.000000000000099
42
-0.99999786140011226
0
LWPOLYLINE
5
135
100
AcDbEntity
8
0
100
AcDbPolyline
90
4
70
1
43
0.0
10
-8.0179285889376501
20
-105.99999999999395
42
0.99999999999999989
10
4.4820714111691018
20
-106.0000000000062
10
4.482071411195899
20
-70.000000000004675
42
0.99999999999999989
10
-8.0179285889109053
20
-69.999999999995438
0
LWPOLYLINE
5
136
100
AcDbEntity
8
0
100
AcDbPolyline
90
4
70
1
43
0.0
10
9.1849699618672176
20
-106.00000000000007
42
0.99999999999999989
10
15.684969961813486
20
-106.00000000000007
10
15.684969961884825
20
-100.00000000000007
42
1.000001788140942
10
9.1849699618256153
20
-100.00001162290576
0
LWPOLYLINE
5
137
100
AcDbEntity
8
0
100
AcDbPolyline
90
4
70
1
43
0.0
10
9.1849699618078162
20
-76.000013900821301
10
9.1849699618672265
20
-70.000000000000071
42
-0.99999999999999989
10
15.684969961920494
20
-70.000000000000071
10
15.68496996185811
20
-76.000000000000099
42
-0.99999786140011226
0
LWPOLYLINE
5
138
100
AcDbEntity
8
0
100
AcDbPolyline
90
4
70
1
43
0.0
10
6.1849699617869982
20
-105.99999999999395
42
0.99999999999999989
10
18.684969961893749
20
-106.0000000000062
10
18.684969961920544
20
-70.000000000004675
42
0.99999999999999989
10
6.1849699618137421
20
-69.999999999995438
0
LWPOLYLINE
5
139
100
AcDbEntity
8
0
100
AcDbPolyline
90
4
70
1
43
0.0
10
23.387868512591865
20
-106.00000000000007
42
0.99999999999999989
10
29.887868512538134
20
-106.00000000000007
10
29.887868512609472
20
-100.00000000000007
42
1.000001788140942
10
23.387868512550263
20
-100.00001162290576
0
LWPOLYLINE
5
140
100
AcDbEntity
8
0
100
AcDbPolyline
90
4
70
1
43
0.0
10
23.387868512532464
20
-76.000013900821301
10
23.387868512591872
20
-70.000000000000071
42
-0.99999999999999989
10
29.887868512645142
20
-70.000000000000071
10
29.887868512582756
20
-76.000000000000099
42
-0.99999786140011226
0
LWPOLYLINE
5
141
100
AcDbEntity
8
0
100
AcDbPolyline
90
4
70
1
43
0.0
10
20.387868512511645
20
-105.99999999999395
42
0.99999999999999989
10
32.887868512618397
20
-106.0000000000062
10
32.887868512645191
20
-70.000000000004675
42
0.99999999999999989
10
20.38786851253839
20
-69.999999999995438
0
LWPOLYLINE
5
142
100
AcDbEntity
8
0
100
AcDbPolyline
90
4
70
1
43
0.0
10
37.590767063316477
20
-106.00000000000007
42
0.99999999999999989
10
44.090767063262746
20
-106.00000000000007
10
44.090767063334084
20
-100.00000000000007
42
1.000001788140942
10
37.590767063274875
20
-100.00001162290576
0
LWPOLYLINE
5
143
100
AcDbEntity
8
0
100
AcDbPolyline
90
4
70
1
43
0.0
10
37.590767063257076
20
-76.000013900821301
10
37.590767063316484
20
-70.000000000000071
42
-0.99999999999999989
10
44.090767063369753
20
-70.000000000000071
10
44.090767063307368
20
-76.000000000000099
42
-0.99999786140011226
0
LWPOLYLINE
5
144
100
AcDbEntity
8
0
100
AcDbPolyline
90
4
70
1
43
0.0
10
34.590767063236257
20
-105.99999999999395
42
0.99999999999999989
10
47.090767063343009
20
-106.0000000000062
10
47.090767063369803
20
-70.000000000004675
42
0.99999999999999989
10
34.590767063263002
20
-69.999999999995438
0
LWPOLYLINE
5
145
100
AcDbEntity
8
0
100
AcDbPolyline
90
4
70
1
43
0.0
10
51.793665614041124
20
-106.00000000000007
42
0.99999999999999989
10
58.293665613987393
20
-106.00000000000007
10
58.293665614058732
20
-100.00000000000007
42
1.000001788140942
10
51.793665613999522
20
-100.00001162290576
0
LWPOLYLINE
5
146
100
AcDbEntity
8
0
100
AcDbPolyline
90
4
70
1
43
0.0
10
51.793665613981723
20
-76.000013900821301
10
51.793665614041132
20
-70.000000000000071
42
-0.99999999999999989
10
58.293665614094401
20
-70.000000000000071
10
58.293665614032015
20
-76.000000000000099
42
-0.99999786140011226
0
LWPOLYLINE
5
147
100
AcDbEntity
8
0
100
AcDbPolyline
90
4
70
1
43
0.0
10
48.793665613960904
20
-105.99999999999395
42
0.99999999999999989
10
61.293665614067656
20
-106.0000000000062
10
61.293665614094451
20
-70.000000000004675
42
0.99999999999999989
10
48.793665613987649
20
-69.999999999995438
0
LWPOLYLINE
5
148
100
AcDbEntity
8
0
100
AcDbPolyline
90
4
70
1
43
0.0
10
65.996564164765772
20
-106.00000000000007
42
0.99999999999999989
10
72.496564164712041
20
-106.00000000000007
10
72.496564164783379
20
-100.00000000000007
42
1.000001788140942
10
65.996564164724163
20
-100.00001162290576
0
LWPOLYLINE
5
149
100
AcDbEntity
8
0
100
AcDbPolyline
90
4
70
1
43
0.0
10
65.996564164706371
20
-76.000013900821301
10
65.996564164765786
20
-70.000000000000071
42
-0.99999999999999989
10
72.496564164819048
20
-70.000000000000071
10
72.496564164756663
20
-76.000000000000099
42
-0.99999786140011226
0
LWPOLYLINE
5
150
100
AcDbEntity
8
0
100
AcDbPolyline
90
4
70
1
43
0.0
10
62.996564164685552
20
-105.99999999999395
42
0.99999999999999989
10
75.496564164792304
20
-106.0000000000062
10
75.496564164819105
20
-70.000000000004675
42
0.99999999999999989
10
62.996564164712296
20
-69.999999999995438
0
LWPOLYLINE
5
151
100
AcDbEntity
8
0
100
AcDbPolyline
90
4
70
1
43
0.0
10
80.199462715490426
20
-106.00000000000007
42
0.99999999999999989
10
86.699462715436681
20
-106.00000000000007
10
86.69946271550802
20
-100.00000000000007
42
1.000001788140942
10
80.199462715448817
20
-100.00001162290576
0
LWPOLYLINE
5
152
100
AcDbEntity
8
0
100
AcDbPolyline
90
4
70
1
43
0.0
10
80.199462715431025
20
-76.000013900821301
10
80.199462715490426
20
-70.000000000000071
42
-0.99999999999999989
10
86.699462715543689
20
-70.000000000000071
10
86.699462715481303
20
-76.000000000000099
42
-0.99999786140011226
0
LWPOLYLINE
5
153
100
AcDbEntity
8
0
100
AcDbPolyline
90
4
70
1
43
0.0
10
77.199462715410206
20
-105.99999999999395
42
0.99999999999999989
10
89.699462715516944
20
-106.0000000000062
10
89.69946271554376
20
-70.000000000004675
42
0.99999999999999989
10
77.199462715436937
20
-69.999999999995438
0
LWPOLYLINE
5
154
100
AcDbEntity
8
0
100
AcDbPolyline
90
4
70
1
43
0.0
10
94.402361266215067
20
-106.00000000000007
42
0.99999999999999989
10
100.90236126616134
20
-106.00000000000007
10
100.90236126623267
20
-100.00000000000007
42
1.000001788140942
10
94.402361266173472
20
-100.00001162290576
0
LWPOLYLINE
5
155
100
AcDbEntity
8
0
100
AcDbPolyline
90
4
70
1
43
0.0
10
94.402361266155665
20
-76.000013900821301
10
94.402361266215067
20
-70.000000000000071
42
-0.99999999999999989
10
100.90236126626834
20
-70.000000000000071
10
100.90236126620596
20
-76.000000000000099
42
-0.99999786140011226
0
LWPOLYLINE
5
156
100
AcDbEntity
8
0
100
AcDbPolyline
90
4
70
1
43
0.0
10
91.402361266134847
20
-105.99999999999395
42
0.99999999999999989
10
103.9023612662416
20
-106.0000000000062
10
103.9023612662684
20
-70.000000000004675
42
0.99999999999999989
10
91.402361266161591
20
-69.999999999995438
0
LWPOLYLINE
5
157
100
AcDbEntity
8
0
100
AcDbPolyline
90
4
70
1
43
0.0
10
108.60525981693968
20
-106.00000000000007
42
0.99999999999999989
10
115.10525981688595
20
-106.00000000000007
10
115.10525981695729
20
-100.00000000000007
42
1.000001788140942
10
108.60525981689807
20
-100.00001162290576
0
LWPOLYLINE
5
158
100
AcDbEntity
8
0
100
AcDbPolyline
90
4
70
1
43
0.0
10
108.60525981688028
20
-76.000013900821301
10
108.60525981693968
20
-70.000000000000071
42
-0.99999999999999989
10
115.10525981699296
20
-70.000000000000071
10
115.10525981693057
20
-76.000000000000099
42
-0.99999786140011226
0
LWPOLYLINE
5
159
100
AcDbEntity
8
0
100
AcDbPolyline
90
4
70
1
43
0.0
10
105.60525981685944
20
-105.99999999999395
42
0.99999999999999989
10
118.10525981696621
20
-106.0000000000062
10
118.10525981699301
20
-70.000000000004675
42
0.99999999999999989
10
105.6052598168862
20
-69.999999999995438
0
LWPOLYLINE
5
160
100
AcDbEntity
8
0
100
AcDbPolyline
90
4
70
1
43
0.0
10
122.80815836766433
20
-106.00000000000007
42
0.99999999999999989
10
129.30815836761059
20
-106.00000000000007
10
129.30815836768193
20
-100.00000000000007
42
1.000001788140942
10
122.80815836762272
20
-100.00001162290576
0
LWPOLYLINE
5
161
100
AcDbEntity
8
0
100
AcDbPolyline
90
4
70
1
43
0.0
10
122.80815836760493
20
-76.000013900821301
10
122.80815836766433
20
-70.000000000000071
42
-0.99999999999999989
10
129.3081583677176
20
-70.000000000000071
10
129.30815836765521
20
-76.000000000000099
42
-0.99999786140011226
0
LWPOLYLINE
5
162
100
AcDbEntity
8
0
100
AcDbPolyline
90
4
70
1
43
0.0
10
119.8081583675841
20
-105.99999999999395
42
0.99999999999999989
10
132.30815836769085
20
-106.0000000000062
10
132.30815836771765
20
-70.000000000004675
42
0.99999999999999989
10
119.80815836761084
20
-69.999999999995438
0
LWPOLYLINE
5
163
100
AcDbEntity
8
0
100
AcDbPolyline
90
4
70
1
43
0.0
10
137.01105691838899
20
-106.00000000000007
42
0.99999999999999989
10
143.51105691833524
20
-106.00000000000007
10
143.51105691840658
20
-100.00000000000007
42
1.000001788140942
10
137.01105691834738
20
-100.00001162290576
0
LWPOLYLINE
5
164
100
AcDbEntity
8
0
100
AcDbPolyline
90
4
70
1
43
0.0
10
137.01105691832959
20
-76.000013900821301
10
137.01105691838899
20
-70.000000000000071
42
-0.99999999999999989
10
143.51105691844225
20
-70.000000000000071
10
143.51105691837986
20
-76.000000000000099
42
-0.99999786140011226
0
LWPOLYLINE
5
165
100
AcDbEntity
8
0
100
AcDbPolyline
90
4
70
1
43
0.0
10
134.01105691830875
20
-105.99999999999395
42
0.99999999999999989
10
146.51105691841551
20
-106.0000000000062
10
146.51105691844231
20
-70.000000000004675
42
0.99999999999999989
10
134.0110569183355
20
-69.999999999995438
0
LWPOLYLINE
5
166
100
AcDbEntity
8
0
100
AcDbPolyline
90
4
70
1
43
0.0
10
151.21395546911359
20
-106.00000000000007
42
0.99999999999999989
10
157.71395546905984
20
-106.00000000000007
10
157.71395546913118
20
-100.00000000000007
42
1.000001788140942
10
151.21395546907198
20
-100.00001162290576
0
LWPOLYLINE
5
167
100
AcDbEntity
8
0
100
AcDbPolyline
90
4
70
1
43
0.0
10
151.21395546905418
20
-76.000013900821301
10
151.21395546911359
20
-70.000000000000071
42
-0.99999999999999989
10
157.71395546916688
20
-70.000000000000071
10
157.71395546910446
20
-76.000000000000099
42
-0.99999786140011226
0
LWPOLYLINE
5
168
100
AcDbEntity
8
0
100
AcDbPolyline
90
4
70
1
43
0.0
10
148.21395546903335
20
-105.99999999999395
42
0.99999999999999989
10
160.7139554691401
20
-106.0000000000062
10
160.7139554691669
20
-70.000000000004675
42
0.99999999999999989
10
148.21395546906012
20
-69.999999999995438
0
LWPOLYLINE
5
169
100
AcDbEntity
8
0
100
AcDbPolyline
90
4
70
1
43
0.0
10
165.41685401983827
20
-106.00000000000007
42
0.99999999999999989
10
171.91685401978452
20
-106.00000000000007
10
171.91685401985586
20
-100.00000000000007
42
1.000001788140942
10
165.41685401979666
20
-100.00001162290576
0
LWPOLYLINE
5
170
100
AcDbEntity
8
0
100
AcDbPolyline
90
4
70
1
43
0.0
10
165.41685401977887
20
-76.000013900821301
10
165.41685401983827
20
-70.000000000000071
42
-0.99999999999999989
10
171.91685401989156
20
-70.000000000000071
10
171.91685401982915
20
-76.000000000000099
42
-0.99999786140011226
0
LWPOLYLINE
5
171
100
AcDbEntity
8
0
100
AcDbPolyline
90
4
70
1
43
0.0
10
162.41685401975809
20
-105.99999999999395
42
0.99999999999999989
10
174.91685401986479
20
-106.0000000000062
10
174.91685401989159
20
-70.000000000004675
42
0.99999999999999989
10
162.41685401978481
20
-69.999999999995438
0
LWPOLYLINE
5
172
100
AcDbEntity
8
0
100
AcDbPolyline
90
4
70
1
43
0.0
10
179.61975257056287
20
-106.00000000000007
42
0.99999999999999989
10
186.11975257050915
20
-106.00000000000007
10
186.11975257058049
20
-100.00000000000007
42
1.000001788140942
10
179.61975257052129
20
-100.00001162290576
0
LWPOLYLINE
5
173
100
AcDbEntity
8
0
100
AcDbPolyline
90
4
70
1
43
0.0
10
179.61975257050346
20
-76.000013900821301
10
179.61975257056287
20
-70.000000000000071
42
-0.99999999999999989
10
186.11975257061616
20
-70.000000000000071
10
186.11975257055377
20
-76.000000000000099
42
-0.99999786140011226
0
LWPOLYLINE
5
174
100
AcDbEntity
8
0
100
AcDbPolyline
90
4
70
1
43
0.0
10
176.61975257048269
20
-105.99999999999395
42
0.99999999999999989
10
189.11975257058941
20
-106.0000000000062
10
189.11975257061619
20
-70.000000000004675
42
0.99999999999999989
10
176.61975257050941
20
-69.999999999995438
0
LWPOLYLINE
5
175
100
AcDbEntity
8
0
100
AcDbPolyline
90
4
70
1
43
0.0
10
193.82265112128749
20
-106.00000000000007
42
0.99999999999999989
10
200.32265112123378
20
-106.00000000000007
10
200.32265112130511
20
-100.00000000000007
42
1.000001788140942
10
193.82265112124588
20
-100.00001162290576
0
LWPOLYLINE
5
176
100
AcDbEntity
8
0
100
AcDbPolyline
90
4
70
1
43
0.0
10
193.82265112122809
20
-76.000013900821301
10
193.82265112128749
20
-70.000000000000071
42
-0.99999999999999989
10
200.32265112134075
20
-70.000000000000071
10
200.3226511212784
20
-76.000000000000099
42
-0.99999786140011226
0
LWPOLYLINE
5
177
100
AcDbEntity
8
0
100
AcDbPolyline
90
4
70
1
43
0.0
10
190.82265112120729
20
-105.99999999999395
42
0.99999999999999989
10
203.32265112131404
20
-106.0000000000062
10
203.32265112134081
20
-70.000000000004675
42
0.99999999999999989
10
190.822651121234
20
-69.999999999995438
0
LWPOLYLINE
5
178
100
AcDbEntity
8
0
100
AcDbPolyline
90
4
70
1
43
0.0
10
208.02554967201218
20
-106.00000000000007
42
0.99999999999999989
10
214.52554967195846
20
-106.00000000000007
10
214.5255496720298
20
-100.00000000000007
42
1.000001788140942
10
208.02554967197057
20
-100.00001162290576
0
LWPOLYLINE
5
179
100
AcDbEntity
8
0
100
AcDbPolyline
90
4
70
1
43
0.0
10
208.02554967195277
20
-76.000013900821301
10
208.02554967201218
20
-70.000000000000071
42
-0.99999999999999989
10
214.52554967206544
20
-70.000000000000071
10
214.52554967200308
20
-76.000000000000099
42
-0.99999786140011226
0
LWPOLYLINE
5
180
100
AcDbEntity
8
0
100
AcDbPolyline
90
4
70
1
43
0.0
10
205.02554967193197
20
-105.99999999999395
42
0.99999999999999989
10
217.52554967203872
20
-106.0000000000062
10
217.52554967206549
20
-70.000000000004675
42
0.99999999999999989
10
205.02554967195869
20
-69.999999999995438
0
LWPOLYLINE
5
181
100
AcDbEntity
8
0
100
AcDbPolyline
90
4
70
1
43
0.0
10
222.2284482227368
20
-106.00000000000007
42
0.99999999999999989
10
228.72844822268306
20
-106.00000000000007
10
228.72844822275439
20
-100.00000000000007
42
1.000001788140942
10
222.22844822269519
20
-100.00001162290576
0
LWPOLYLINE
5
182
100
AcDbEntity
8
0
100
AcDbPolyline
90
4
70
1
43
0.0
10
222.2284482226774
20
-76.000013900821301
10
222.2284482227368
20
-70.000000000000071
42
-0.99999999999999989
10
228.72844822279006
20
-70.000000000000071
10
228.72844822272768
20
-76.000000000000099
42
-0.99999786140011226
0
LWPOLYLINE
5
183
100
AcDbEntity
8
0
100
AcDbPolyline
90
4
70
1
43
0.0
10
219.2284482226566
20
-105.99999999999395
42
0.99999999999999989
10
231.72844822276332
20
-106.0000000000062
10
231.72844822279012
20
-70.000000000004675
42
0.99999999999999989
10
219.22844822268331
20
-69.999999999995438
0
LWPOLYLINE
5
184
100
AcDbEntity
8
0
100
AcDbPolyline
90
4
70
1
43
0.0
10
236.4313467734614
20
-106.00000000000007
42
0.99999999999999989
10
242.93134677340765
20
-106.00000000000007
10
242.93134677347899
20
-100.00000000000007
42
1.000001788140942
10
236.43134677341979
20
-100.00001162290576
0
LWPOLYLINE
5
185
100
AcDbEntity
8
0
100
AcDbPolyline
90
4
70
1
43
0.0
10
236.431346773402
20
-76.000013900821301
10
236.4313467734614
20
-70.000000000000071
42
-0.99999999999999989
10
242.93134677351469
20
-70.000000000000071
10
242.93134677345228
20
-76.000000000000099
42
-0.99999786140011226
0
LWPOLYLINE
5
186
100
AcDbEntity
8
0
100
AcDbPolyline
90
4
70
1
43
0.0
10
233.43134677338122
20
-105.99999999999395
42
0.99999999999999989
10
245.93134677348792
20
-106.0000000000062
10
245.93134677351472
20
-70.000000000004675
42
0.99999999999999989
10
233.43134677340794
20
-69.999999999995438
0
LWPOLYLINE
5
187
100
AcDbEntity
8
0
100
AcDbPolyline
90
4
70
1
43
0.0
10
250.63424532418608
20
-106.00000000000007
42
0.99999999999999989
10
257.13424532413234
20
-106.00000000000007
10
257.13424532420368
20
-100.00000000000007
42
1.000001788140942
10
250.63424532414447
20
-100.00001162290576
0
LWPOLYLINE
5
188
100
AcDbEntity
8
0
100
AcDbPolyline
90
4
70
1
43
0.0
10
250.63424532412668
20
-76.000013900821301
10
250.63424532418608
20
-70.000000000000071
42
-0.99999999999999989
10
257.13424532423937
20
-70.000000000000071
10
257.13424532417696
20
-76.000000000000099
42
-0.99999786140011226
0
LWPOLYLINE
5
189
100
AcDbEntity
8
0
100
AcDbPolyline
90
4
70
1
43
0.0
10
247.6342453241059
20
-105.99999999999395
42
0.99999999999999989
10
260.1342453242126
20
-106.0000000000062
10
260.13424532423937
20
-70.000000000004675
42
0.99999999999999989
10
247.63424532413262
20
-69.999999999995438
0
LWPOLYLINE
5
190
100
AcDbEntity
8
0
100
AcDbPolyline
90
4
70
1
43
0.0
10
264.83714387491068
20
-106.00000000000007
42
0.99999999999999989
10
271.33714387485696
20
-106.00000000000007
10
271.3371438749283
20
-100.00000000000007
42
1.000001788140942
10
264.83714387486907
20
-100.00001162290576
0
LWPOLYLINE
5
191
100
AcDbEntity
8
0
100
AcDbPolyline
90
4
70
1
43
0.0
10
264.83714387485128
20
-76.000013900821301
10
264.83714387491068
20
-70.000000000000071
42
-0.99999999999999989
10
271.337143874964
20
-70.000000000000071
10
271.33714387490159
20
-76.000000000000099
42
-0.99999786140011226
0
LWPOLYLINE
5
192
100
AcDbEntity
8
0
100
AcDbPolyline
90
4
70
1
43
0.0
10
261.83714387483053
20
-105.99999999999395
42
0.99999999999999989
10
274.33714387493723
20
-106.0000000000062
10
274.337143874964
20
-70.000000000004675
42
0.99999999999999989
10
261.83714387485725
20
-69.999999999995438
0
LWPOLYLINE
5
193
100
AcDbEntity
8
0
100
AcDbPolyline
90
4
70
1
43
0.0
10
279.04004242563536
20
-106.00000000000007
42
0.99999999999999989
10
285.54004242558165
20
-106.00000000000007
10
285.54004242565298
20
-100.00000000000007
42
1.000001788140942
10
279.04004242559375
20
-100.00001162290576
0
LWPOLYLINE
5
194
100
AcDbEntity
8
0
100
AcDbPolyline
90
4
70
1
43
0.0
10
279.04004242557596
20
-76.000013900821301
10
279.04004242563536
20
-70.000000000000071
42
-0.99999999999999989
10
285.54004242568863
20
-70.000000000000071
10
285.54004242562627
20
-76.000000000000099
42
-0.99999786140011226
0
LWPOLYLINE
5
195
100
AcDbEntity
8
0
100
AcDbPolyline
90
4
70
1
43
0.0
10
276.04004242555516
20
-105.99999999999395
42
0.99999999999999989
10
288.54004242566191
20
-106.0000000000062
10
288.54004242568868
20
-70.000000000004675
42
0.99999999999999989
10
276.04004242558187
20
-69.999999999995438
0
LWPOLYLINE
5
196
100
AcDbEntity
8
0
100
AcDbPolyline
90
4
70
1
43
0.0
10
293.24294097635999
20
-106.00000000000007
42
0.99999999999999989
10
299.74294097630627
20
-106.00000000000007
10
299.74294097637761
20
-100.00000000000007
42
1.000001788140942
10
293.24294097631838
20
-100.00001162290576
0
LWPOLYLINE
5
197
100
AcDbEntity
8
0
100
AcDbPolyline
90
4
70
1
43
0.0
10
293.24294097630059
20
-76.000013900821301
10
293.24294097635999
20
-70.000000000000071
42
-0.99999999999999989
10
299.74294097641325
20
-70.000000000000071
10
299.74294097635089
20
-76.000000000000099
42
-0.99999786140011226
0
LWPOLYLINE
5
198
100
AcDbEntity
8
0
100
AcDbPolyline
90
4
70
1
43
0.0
10
290.24294097627978
20
-105.99999999999395
42
0.99999999999999989
10
302.74294097638654
20
-106.0000000000062
10
302.74294097641331
20
-70.000000000004675
42
0.99999999999999989
10
290.2429409763065
20
-69.999999999995438
0
LWPOLYLINE
5
199
100
AcDbEntity
8
0
100
AcDbPolyline
90
4
70
1
43
0.0
10
307.44583952708462
20
-106.00000000000007
42
0.99999999999999989
10
313.9458395270309
20
-106.00000000000007
10
313.94583952710218
20
-100.00000000000007
42
1.000001788140942
10
307.44583952704301
20
-100.00001162290576
0
LWPOLYLINE
5
200
100
AcDbEntity
8
0
100
AcDbPolyline
90
4
70
1
43
0.0
10
307.44583952702521
20
-76.000013900821301
10
307.44583952708462
20
-70.000000000000071
42
-0.99999999999999989
10
313.94583952713788
20
-70.000000000000071
10
313.94583952707546
20
-76.000000000000099
42
-0.99999786140011226
0
LWPOLYLINE
5
201
100
AcDbEntity
8
0
100
AcDbPolyline
90
4
70
1
43
0.0
10
304.44583952700441
20
-105.99999999999395
42
0.99999999999999989
10
316.94583952711116
20
-106.0000000000062
10
316.94583952713793
20
-70.000000000004675
42
0.99999999999999989
10
304.44583952703113
20
-69.999999999995438
0
LWPOLYLINE
5
202
100
AcDbEntity
8
0
100
AcDbPolyline
90
4
70
1
43
0.0
10
321.64873807780918
20
-106.00000000000007
42
0.99999999999999989
10
328.14873807775552
20
-106.00000000000007
10
328.14873807782698
20
-100.00000000000007
42
1.000001788140942
10
321.64873807776769
20
-100.00001162290576
0
LWPOLYLINE
5
203
100
AcDbEntity
8
0
100
AcDbPolyline
90
4
70
1
43
0.0
10
321.6487380777499
20
-76.000013900821301
10
321.64873807780936
20
-70.000000000000071
42
-0.99999999999999989
10
328.14873807786256
20
-70.000000000000071
10
328.14873807780026
20
-76.000000000000099
42
-0.99999786140011226
0
LWPOLYLINE
5
204
100
AcDbEntity
8
0
100
AcDbPolyline
90
4
70
1
43
0.0
10
318.64873807772909
20
-105.99999999999395
42
0.99999999999999989
10
331.14873807783579
20
-106.0000000000062
10
331.14873807786267
20
-70.000000000004675
42
0.99999999999999989
10
318.64873807775581
20
-69.999999999995438
0
LWPOLYLINE
5
205
100
AcDbEntity
8
0
100
AcDbPolyline
90
4
70
1
43
0.0
10
335.85163662853392
20
-106.00000000000007
42
0.99999999999999989
10
342.35163662848015
20
-106.00000000000007
10
342.35163662855149
20
-100.00000000000007
42
1.000001788140942
10
335.85163662849226
20
-100.00001162290576
0
LWPOLYLINE
5
206
100
AcDbEntity
8
0
100
AcDbPolyline
90
4
70
1
43
0.0
10
335.85163662847447
20
-76.000013900821301
10
335.85163662853392
20
-70.000000000000071
42
-0.99999999999999989
10
342.35163662858719
20
-70.000000000000071
10
342.35163662852477
20
-76.000000000000099
42
-0.99999786140011226
0
LWPOLYLINE
5
207
100
AcDbEntity
8
0
100
AcDbPolyline
90
4
70
1
43
0.0
10
332.85163662845372
20
-105.99999999999395
42
0.99999999999999989
10
345.35163662856041
20
-106.0000000000062
10
345.35163662858724
20
-70.000000000004675
42
0.99999999999999989
10
332.85163662848038
20
-69.999999999995438
0
LWPOLYLINE
5
208
100
AcDbEntity
8
0
100
AcDbPolyline
90
4
70
1
43
0.0
10
350.05453517925855
20
-106.00000000000007
42
0.99999999999999989
10
356.55453517920483
20
-106.00000000000007
10
356.55453517927617
20
-100.00000000000007
42
1.000001788140942
10
350.05453517921694
20
-100.00001162290576
0
LWPOLYLINE
5
209
100
AcDbEntity
8
0
100
AcDbPolyline
90
4
70
1
43
0.0
10
350.05453517919921
20
-76.000013900821301
10
350.05453517925855
20
-70.000000000000071
42
-0.99999999999999989
10
356.55453517931187
20
-70.000000000000071
10
356.55453517924946
20
-76.000000000000099
42
-0.99999786140011226
0
LWPOLYLINE
5
210
100
AcDbEntity
8
0
100
AcDbPolyline
90
4
70
1
43
0.0
10
347.0545351791784
20
-105.99999999999395
42
0.99999999999999989
10
359.5545351792851
20
-106.0000000000062
10
359.55453517931187
20
-70.000000000004675
42
0.99999999999999989
10
347.054535179205
20
-69.999999999995438
0
LWPOLYLINE
5
211
100
AcDbEntity
8
0
100
AcDbPolyline
90
4
70
1
43
0.0
10
364.25743372998312
20
-106.00000000000007
42
0.99999999999999989
10
370.75743372992946
20
-106.00000000000007
10
370.75743373000086
20
-100.00000000000007
42
1.000001788140942
10
364.25743372994162
20
-100.00001162290576
0
LWPOLYLINE
5
212
100
AcDbEntity
8
0
100
AcDbPolyline
90
4
70
1
43
0.0
10
364.25743372992378
20
-76.000013900821301
10
364.25743372998329
20
-70.000000000000071
42
-0.99999999999999989
10
370.7574337300365
20
-70.000000000000071
10
370.75743372997414
20
-76.000000000000099
42
-0.99999786140011226
0
LWPOLYLINE
5
213
100
AcDbEntity
8
0
100
AcDbPolyline
90
4
70
1
43
0.0
10
361.25743372990303
20
-105.99999999999395
42
0.99999999999999989
10
373.75743373000972
20
-106.0000000000062
10
373.75743373003661
20
-70.000000000004675
42
0.99999999999999989
10
361.25743372992974
20
-69.999999999995438
0
LWPOLYLINE
5
214
100
AcDbEntity
8
0
100
AcDbPolyline
90
4
70
1
43
0.0
10
378.4603322807078
20
-106.00000000000007
42
0.99999999999999989
10
384.96033228065409
20
-106.00000000000007
10
384.96033228072542
20
-100.00000000000007
42
1.000001788140942
10
378.46033228066619
20
-100.00001162290576
0
LWPOLYLINE
5
215
100
AcDbEntity
8
0
100
AcDbPolyline
90
4
70
1
43
0.0
10
378.4603322806484
20
-76.000013900821301
10
378.4603322807078
20
-70.000000000000071
42
-0.99999999999999989
10
384.96033228076107
20
-70.000000000000071
10
384.96033228069871
20
-76.000000000000099
42
-0.99999786140011226
0
LWPOLYLINE
5
216
100
AcDbEntity
8
0
100
AcDbPolyline
90
4
70
1
43
0.0
10
375.4603322806276
20
-105.99999999999395
42
0.99999999999999989
10
387.96033228073435
20
-106.0000000000062
10
387.96033228076112
20
-70.000000000004675
42
0.99999999999999989
10
375.46033228065426
20
-69.999999999995438
0
LWPOLYLINE
5
217
100
AcDbEntity
8
0
100
AcDbPolyline
90
4
70
1
43
0.0
10
392.66323083143249
20
-106.00000000000007
42
0.99999999999999989
10
399.16323083137877
20
-106.00000000000007
10
399.16323083145011
20
-100.00000000000007
42
1.000001788140942
10
392.66323083139082
20
-100.00001162290576
0
LWPOLYLINE
5
218
100
AcDbEntity
8
0
100
AcDbPolyline
90
4
70
1
43
0.0
10
392.66323083137308
20
-76.000013900821301
10
392.66323083143249
20
-70.000000000000071
42
-0.99999999999999989
10
399.16323083148575
20
-70.000000000000071
10
399.16323083142339
20
-76.000000000000099
42
-0.99999786140011226
0
LWPOLYLINE
5
219
100
AcDbEntity
8
0
100
AcDbPolyline
90
4
70
1
43
0.0
10
389.66323083135228
20
-105.99999999999395
42
0.99999999999999989
10
402.16323083145903
20
-106.0000000000062
10
402.16323083148581
20
-70.000000000004675
42
0.99999999999999989
10
389.66323083137894
20
-69.999999999995438
0
LWPOLYLINE
5
220
100
AcDbEntity
8
0
100
AcDbPolyline
90
4
70
1
43
0.0
10
406.86612938215706
20
-106.00000000000007
42
0.99999999999999989
10
413.3661293821034
20
-106.00000000000007
10
413.36612938217479
20
-100.00000000000007
42
1.000001788140942
10
406.86612938211556
20
-100.00001162290576
0
LWPOLYLINE
5
221
100
AcDbEntity
8
0
100
AcDbPolyline
90
4
70
1
43
0.0
10
406.86612938209771
20
-76.000013900821301
10
406.86612938215717
20
-70.000000000000071
42
-0.99999999999999989
10
413.36612938221037
20
-70.000000000000071
10
413.36612938214807
20
-76.000000000000099
42
-0.99999786140011226
0
LWPOLYLINE
5
222
100
AcDbEntity
8
0
100
AcDbPolyline
90
4
70
1
43
0.0
10
403.86612938207691
20
-105.99999999999395
42
0.99999999999999989
10
416.36612938218366
20
-106.0000000000062
10
416.36612938221049
20
-70.000000000004675
42
0.99999999999999989
10
403.86612938210362
20
-69.999999999995438
0
LWPOLYLINE
5
223
100
AcDbEntity
8
0
100
AcDbPolyline
90
4
70
1
43
0.0
10
421.06902793288168
20
-106.00000000000007
42
0.99999999999999989
10
427.56902793282796
20
-106.00000000000007
10
427.5690279328993
20
-100.00000000000007
42
1.000001788140942
10
421.06902793284007
20
-100.00001162290576
0
LWPOLYLINE
5
224
100
AcDbEntity
8
0
100
AcDbPolyline
90
4
70
1
43
0.0
10
421.06902793282234
20
-76.000013900821301
10
421.06902793288168
20
-70.000000000000071
42
-0.99999999999999989
10
427.569027932935
20
-70.000000000000071
10
427.56902793287259
20
-76.000000000000099
42
-0.99999786140011226
0
LWPOLYLINE
5
225
100
AcDbEntity
8
0
100
AcDbPolyline
90
4
70
1
43
0.0
10
418.06902793280153
20
-105.99999999999395
42
0.99999999999999989
10
430.56902793290823
20
-106.0000000000062
10
430.569027932935
20
-70.000000000004675
42
0.99999999999999989
10
418.06902793282813
20
-69.999999999995438
0
LWPOLYLINE
5
226
100
AcDbEntity
8
0
100
AcDbPolyline
90
4
70
1
43
0.0
10
435.27192648360642
20
-106.00000000000007
42
0.99999999999999989
10
441.77192648355265
20
-106.00000000000007
10
441.77192648362399
20
-100.00000000000007
42
1.000001788140942
10
435.27192648356476
20
-100.00001162290576
0
LWPOLYLINE
5
227
100
AcDbEntity
8
0
100
AcDbPolyline
90
4
70
1
43
0.0
10
435.27192648354696
20
-76.000013900821301
10
435.27192648360642
20
-70.000000000000071
42
-0.99999999999999989
10
441.77192648365968
20
-70.000000000000071
10
441.77192648359727
20
-76.000000000000099
42
-0.99999786140011226
0
LWPOLYLINE
5
228
100
AcDbEntity
8
0
100
AcDbPolyline
90
4
70
1
43
0.0
10
432.27192648352622
20
-105.99999999999395
42
0.99999999999999989
10
444.77192648363291
20
-106.0000000000062
10
444.77192648365974
20
-70.000000000004675
42
0.99999999999999989
10
432.27192648355287
20
-69.999999999995438
0
LWPOLYLINE
5
229
100
AcDbEntity
8
0
100
AcDbPolyline
90
4
70
1
43
0.0
10
449.47482503433093
20
-106.00000000000007
42
0.99999999999999989
10
455.97482503427727
20
-106.00000000000007
10
455.97482503434867
20
-100.00000000000007
42
1.000001788140942
10
449.47482503428944
20
-100.00001162290576
0
LWPOLYLINE
5
230
100
AcDbEntity
8
0
100
AcDbPolyline
90
4
70
1
43
0.0
10
449.47482503427159
20
-76.000013900821301
10
449.47482503433105
20
-70.000000000000071
42
-0.99999999999999989
10
455.97482503438425
20
-70.000000000000071
10
455.97482503432195
20
-76.000000000000099
42
-0.99999786140011226
0
LWPOLYLINE
5
231
100
AcDbEntity
8
0
100
AcDbPolyline
90
4
70
1
43
0.0
10
446.47482503425078
20
-105.99999999999395
42
0.99999999999999989
10
458.97482503435754
20
-106.0000000000062
10
458.97482503438437
20
-70.000000000004675
42
0.99999999999999989
10
446.4748250342775
20
-69.999999999995438
0
LWPOLYLINE
5
232
100
AcDbEntity
8
0
100
AcDbPolyline
90
4
70
1
43
0.0
10
463.67772358505562
20
-106.00000000000007
42
0.99999999999999989
10
470.1777235850019
20
-106.00000000000007
10
470.17772358507324
20
-100.00000000000007
42
1.000001788140942
10
463.67772358501395
20
-100.00001162290576
0
LWPOLYLINE
5
233
100
AcDbEntity
8
0
100
AcDbPolyline
90
4
70
1
43
0.0
10
463.67772358499622
20
-76.000013900821301
10
463.67772358505562
20
-70.000000000000071
42
-0.99999999999999989
10
470.17772358510888
20
-70.000000000000071
10
470.17772358504652
20
-76.000000000000099
42
-0.99999786140011226
0
LWPOLYLINE
5
234
100
AcDbEntity
8
0
100
AcDbPolyline
90
4
70
1
43
0.0
10
460.67772358497541
20
-105.99999999999395
42
0.99999999999999989
10
473.17772358508216
20
-106.0000000000062
10
473.17772358510894
20
-70.000000000004675
42
0.99999999999999989
10
460.67772358500207
20
-69.999999999995438
0
LWPOLYLINE
5
235
100
AcDbEntity
8
0
100
AcDbPolyline
90
4
70
1
43
0.0
10
477.8806221357803
20
-106.00000000000007
42
0.99999999999999989
10
484.38062213572658
20
-106.00000000000007
10
484.38062213579792
20
-100.00000000000007
42
1.000001788140942
10
477.88062213573869
20
-100.00001162290576
0
LWPOLYLINE
5
236
100
AcDbEntity
8
0
100
AcDbPolyline
90
4
70
1
43
0.0
10
477.8806221357209
20
-76.000013900821301
10
477.8806221357803
20
-70.000000000000071
42
-0.99999999999999989
10
484.38062213583356
20
-70.000000000000071
10
484.3806221357712
20
-76.000000000000099
42
-0.99999786140011226
0
LWPOLYLINE
5
237
100
AcDbEntity
8
0
100
AcDbPolyline
90
4
70
1
43
0.0
10
474.88062213570009
20
-105.99999999999395
42
0.99999999999999989
10
487.38062213580685
20
-106.0000000000062
10
487.38062213583362
20
-70.000000000004675
42
0.99999999999999989
10
474.88062213572675
20
-69.999999999995438
0
LWPOLYLINE
5
238
100
AcDbEntity
8
0
100
AcDbPolyline
90
4
70
1
43
0.0
10
492.08352068650498
20
-106.00000000000007
42
0.99999999999999989
10
498.58352068645127
20
-106.00000000000007
10
498.5835206865226
20
-100.00000000000007
42
1.000001788140942
10
492.08352068646332
20
-100.00001162290576
0
LWPOLYLINE
5
239
100
AcDbEntity
8
0
100
AcDbPolyline
90
4
70
1
43
0.0
10
492.08352068644558
20
-76.000013900821301
10
492.08352068650498
20
-70.000000000000071
42
-0.99999999999999989
10
498.58352068655824
20
-70.000000000000071
10
498.58352068649589
20
-76.000000000000099
42
-0.99999786140011226
0
LWPOLYLINE
5
240
100
AcDbEntity
8
0
100
AcDbPolyline
90
4
70
1
43
0.0
10
489.08352068642478
20
-105.99999999999395
42
0.99999999999999989
10
501.58352068653153
20
-106.0000000000062
10
501.5835206865583
20
-70.000000000004675
42
0.99999999999999989
10
489.08352068645144
20
-69.999999999995438
0
LWPOLYLINE
5
241
100
AcDbEntity
8
0
100
AcDbPolyline
90
4
70
1
43
0.0
10
506.28641923722955
20
-106.00000000000007
42
0.99999999999999989
10
512.78641923717578
20
-106.00000000000007
10
512.78641923724717
20
-100.00000000000007
42
1.000001788140942
10
506.28641923718789
20
-100.00001162290576
0
LWPOLYLINE
5
242
100
AcDbEntity
8
0
100
AcDbPolyline
90
4
70
1
43
0.0
10
506.28641923717009
20
-76.000013900821301
10
506.28641923722955
20
-70.000000000000071
42
-0.99999999999999989
10
512.78641923728276
20
-70.000000000000071
10
512.78641923722046
20
-76.000000000000099
42
-0.99999786140011226
0
LWPOLYLINE
5
243
100
AcDbEntity
8
0
100
AcDbPolyline
90
4
70
1
43
0.0
10
503.28641923714935
20
-105.99999999999395
42
0.99999999999999989
10
515.78641923725604
20
-106.0000000000062
10
515.78641923728287
20
-70.000000000004675
42
0.99999999999999989
10
503.28641923717601
20
-69.999999999995438
0
LWPOLYLINE
5
244
100
AcDbEntity
8
0
100
AcDbPolyline
90
4
70
1
43
0.0
10
520.48931778795418
20
-106.00000000000007
42
0.99999999999999989
10
526.98931778790052
20
-106.00000000000007
10
526.9893177879718
20
-100.00000000000007
42
1.000001788140942
10
520.48931778791257
20
-100.00001162290576
0
LWPOLYLINE
5
245
100
AcDbEntity
8
0
100
AcDbPolyline
90
4
70
1
43
0.0
10
520.48931778789483
20
-76.000013900821301
10
520.48931778795418
20
-70.000000000000071
42
-0.99999999999999989
10
526.9893177880075
20
-70.000000000000071
10
526.98931778794508
20
-76.000000000000099
42
-0.99999786140011226
0
LWPOLYLINE
5
246
100
AcDbEntity
8
0
100
AcDbPolyline
90
4
70
1
43
0.0
10
517.48931778787403
20
-105.99999999999395
42
0.99999999999999989
10
529.98931778798078
20
-106.0000000000062
10
529.9893177880075
20
-70.000000000004675
42
0.99999999999999989
10
517.48931778790063
20
-69.999999999995438
0
LWPOLYLINE
5
247
100
AcDbEntity
8
0
100
AcDbPolyline
90
4
70
1
43
0.0
10
534.69221633867892
20
-106.00000000000007
42
0.99999999999999989
10
541.19221633862514
20
-106.00000000000007
10
541.19221633869654
20
-100.00000000000007
42
1.000001788140942
10
534.69221633863731
20
-100.00001162290576
0
LWPOLYLINE
5
248
100
AcDbEntity
8
0
100
AcDbPolyline
90
4
70
1
43
0.0
10
534.69221633861946
20
-76.000013900821301
10
534.69221633867892
20
-70.000000000000071
42
-0.99999999999999989
10
541.19221633873212
20
-70.000000000000071
10
541.19221633866982
20
-76.000000000000099
42
-0.99999786140011226
0
LWPOLYLINE
5
249
100
AcDbEntity
8
0
100
AcDbPolyline
90
4
70
1
43
0.0
10
531.69221633859866
20
-105.99999999999395
42
0.99999999999999989
10
544.19221633870541
20
-106.0000000000062
10
544.19221633873224
20
-70.000000000004675
42
0.99999999999999989
10
531.69221633862537
20
-69.999999999995438
0
LWPOLYLINE
5
250
100
AcDbEntity
8
0
100
AcDbPolyline
90
4
70
1
43
0.0
10
548.89511488940343
20
-106.00000000000007
42
0.99999999999999989
10
555.39511488934966
20
-106.00000000000007
10
555.39511488942105
20
-100.00000000000007
42
1.000001788140942
10
548.89511488936182
20
-100.00001162290576
0
LWPOLYLINE
5
251
100
AcDbEntity
8
0
100
AcDbPolyline
90
4
70
1
43
0.0
10
548.89511488934409
20
-76.000013900821301
10
548.89511488940343
20
-70.000000000000071
42
-0.99999999999999989
10
555.39511488945675
20
-70.000000000000071
10
555.39511488939434
20
-76.000000000000099
42
-0.99999786140011226
0
LWPOLYLINE
5
252
100
AcDbEntity
8
0
100
AcDbPolyline
90
4
70
1
43
0.0
10
545.89511488932328
20
-105.99999999999395
42
0.99999999999999989
10
558.39511488942992
20
-106.0000000000062
10
558.39511488945675
20
-70.000000000004675
42
0.99999999999999989
10
545.89511488934988
20
-69.999999999995438
0
LWPOLYLINE
5
253
100
AcDbEntity
8
0
100
AcDbPolyline
90
4
70
1
43
0.0
10
563.09801344012817
20
-106.00000000000007
42
0.99999999999999989
10
569.5980134400744
20
-106.00000000000007
10
569.59801344014568
20
-100.00000000000007
42
1.000001788140942
10
563.09801344008645
20
-100.00001162290576
0
LWPOLYLINE
5
254
100
AcDbEntity
8
0
100
AcDbPolyline
90
4
70
1
43
0.0
10
563.09801344006871
20
-76.000013900821301
10
563.09801344012817
20
-70.000000000000071
42
-0.99999999999999989
10
569.59801344018138
20
-70.000000000000071
10
569.59801344011896
20
-76.000000000000099
42
-0.99999786140011226
0
LWPOLYLINE
5
255
100
AcDbEntity
8
0
100
AcDbPolyline
90
4
70
1
43
0.0
10
560.09801344004791
20
-105.99999999999395
42
0.99999999999999989
10
572.59801344015466
20
-106.0000000000062
10
572.59801344018138
20
-70.000000000004675
42
0.99999999999999989
10
560.09801344007451
20
-69.999999999995438
0
LWPOLYLINE
5
256
100
AcDbEntity
8
0
100
AcDbPolyline
90
4
70
1
43
0.0
10
577.3009119908528
20
-106.00000000000007
42
0.99999999999999989
10
583.80091199079902
20
-106.00000000000007
10
583.80091199087042
20
-100.00000000000007
42
1.000001788140942
10
577.30091199081119
20
-100.00001162290576
0
LWPOLYLINE
5
257
100
AcDbEntity
8
0
100
AcDbPolyline
90
4
70
1
43
0.0
10
577.30091199079334
20
-76.000013900821301
10
577.3009119908528
20
-70.000000000000071
42
-0.99999999999999989
10
583.80091199090612
20
-70.000000000000071
10
583.8009119908437
20
-76.000000000000099
42
-0.99999786140011226
0
LWPOLYLINE
5
258
100
AcDbEntity
8
0
100
AcDbPolyline
90
4
70
1
43
0.0
10
574.30091199077265
20
-105.99999999999395
42
0.99999999999999989
10
586.80091199087929
20
-106.0000000000062
10
586.80091199090612
20
-70.000000000004675
42
0.99999999999999989
10
574.30091199079925
20
-69.999999999995438
0
LWPOLYLINE
5
259
100
AcDbEntity
8
0
100
AcDbPolyline
90
4
70
1
43
0.0
10
591.50381054157731
20
-106.00000000000007
42
0.99999999999999989
10
598.00381054152365
20
-106.00000000000007
10
598.00381054159493
20
-100.00000000000007
42
1.000001788140942
10
591.5038105415357
20
-100.00001162290576
0
LWPOLYLINE
5
260
100
AcDbEntity
8
0
100
AcDbPolyline
90
4
70
1
43
0.0
10
591.50381054151796
20
-76.000013900821301
10
591.50381054157731
20
-70.000000000000071
42
-0.99999999999999989
10
598.00381054163063
20
-70.000000000000071
10
598.00381054156821
20
-76.000000000000099
42
-0.99999786140011226
0
LWPOLYLINE
5
261
100
AcDbEntity
8
0
100
AcDbPolyline
90
4
70
1
43
0.0
10
588.50381054149716
20
-105.99999999999395
42
0.99999999999999989
10
601.00381054160391
20
-106.0000000000062
10
601.00381054163063
20
-70.000000000004675
42
0.99999999999999989
10
588.50381054152376
20
-69.999999999995438
0
LWPOLYLINE
5
262
100
AcDbEntity
8
0
100
AcDbPolyline
90
4
70
1
43
0.0
10
605.70670909230205
20
-106.00000000000007
42
0.99999999999999989
10
612.20670909224827
20
-106.00000000000007
10
612.20670909231967
20
-100.00000000000007
42
1.000001788140942
10
605.70670909226033
20
-100.00001162290576
0
LWPOLYLINE
5
263
100
AcDbEntity
8
0
100
AcDbPolyline
90
4
70
1
43
0.0
10
605.70670909224259
20
-76.000013900821301
10
605.70670909230205
20
-70.000000000000071
42
-0.99999999999999989
10
612.20670909235525
20
-70.000000000000071
10
612.20670909229295
20
-76.000000000000099
42
-0.99999786140011226
0
LWPOLYLINE
5
264
100
AcDbEntity
8
0
100
AcDbPolyline
90
4
70
1
43
0.0
10
602.70670909222179
20
-105.99999999999395
42
0.99999999999999989
10
615.20670909232854
20
-106.0000000000062
10
615.20670909235537
20
-70.000000000004675
42
0.99999999999999989
10
602.7067090922485
20
-69.999999999995438
0
LWPOLYLINE
5
265
100
AcDbEntity
8
0
100
AcDbPolyline
90
4
70
1
43
0.0
10
619.90960764302667
20
-106.00000000000007
42
0.99999999999999989
10
626.40960764297301
20
-106.00000000000007
10
626.4096076430443
20
-100.00000000000007
42
1.000001788140942
10
619.90960764298507
20
-100.00001162290576
0
LWPOLYLINE
5
266
100
AcDbEntity
8
0
100
AcDbPolyline
90
4
70
1
43
0.0
10
619.90960764296733
20
-76.000013900821301
10
619.90960764302667
20
-70.000000000000071
42
-0.99999999999999989
10
626.40960764307999
20
-70.000000000000071
10
626.40960764301758
20
-76.000000000000099
42
-0.99999786140011226
0
LWPOLYLINE
5
267
100
AcDbEntity
8
0
100
AcDbPolyline
90
4
70
1
43
0.0
10
616.90960764294653
20
-105.99999999999395
42
0.99999999999999989
10
629.40960764305328
20
-106.0000000000062
10
629.40960764307999
20
-70.000000000004675
42
0.99999999999999989
10
616.90960764297313
20
-69.999999999995438
0
LWPOLYLINE
5
268
100
AcDbEntity
8
0
100
AcDbPolyline
90
4
70
1
43
0.0
10
634.11250619375119
20
-106.00000000000007
42
0.99999999999999989
10
640.61250619369753
20
-106.00000000000007
10
640.61250619376881
20
-100.00000000000007
42
1.000001788140942
10
634.11250619370958
20
-100.00001162290576
0
LWPOLYLINE
5
269
100
AcDbEntity
8
0
100
AcDbPolyline
90
4
70
1
43
0.0
10
634.11250619369184
20
-76.000013900821301
10
634.11250619375119
20
-70.000000000000071
42
-0.99999999999999989
10
640.61250619380462
20
-70.000000000000071
10
640.61250619374209
20
-76.000000000000099
42
-0.99999786140011226
0
LWPOLYLINE
5
270
100
AcDbEntity
8
0
100
AcDbPolyline
90
4
70
1
43
0.0
10
631.11250619367104
20
-105.99999999999395
42
0.99999999999999989
10
643.61250619377779
20
-106.0000000000062
10
643.61250619380462
20
-70.000000000004675
42
0.99999999999999989
10
631.11250619369775
20
-69.999999999995438
0
LWPOLYLINE
5
271
100
AcDbEntity
8
0
100
AcDbPolyline
90
4
70
1
43
0.0
10
648.31540474447593
20
-106.00000000000007
42
0.99999999999999989
10
654.81540474442227
20
-106.00000000000007
10
654.81540474449343
20
-100.00000000000007
42
1.000001788140942
10
648.31540474443432
20
-100.00001162290576
0
LWPOLYLINE
5
272
100
AcDbEntity
8
0
100
AcDbPolyline
90
4
70
1
43
0.0
10
648.31540474441658
20
-76.000013900821301
10
648.31540474447593
20
-70.000000000000071
42
-0.99999999999999989
10
654.81540474452925
20
-70.000000000000071
10
654.81540474446672
20
-76.000000000000099
42
-0.99999786140011226
0
LWPOLYLINE
5
273
100
AcDbEntity
8
0
100
AcDbPolyline
90
4
70
1
43
0.0
10
645.31540474439566
20
-105.99999999999395
42
0.99999999999999989
10
657.81540474450253
20
-106.0000000000062
10
657.81540474452925
20
-70.000000000004675
42
0.99999999999999989
10
645.31540474442238
20
-69.999999999995438
0
LWPOLYLINE
5
274
100
AcDbEntity
8
0
100
AcDbPolyline
90
4
70
1
43
0.0
10
662.51830329520067
20
-106.00000000000007
42
0.99999999999999989
10
669.01830329514701
20
-106.00000000000007
10
669.01830329521817
20
-100.00000000000007
42
1.000001788140942
10
662.51830329515894
20
-100.00001162290576
0
LWPOLYLINE
5
275
100
AcDbEntity
8
0
100
AcDbPolyline
90
4
70
1
43
0.0
10
662.51830329514121
20
-76.000013900821301
10
662.51830329520067
20
-70.000000000000071
42
-0.99999999999999989
10
669.01830329525399
20
-70.000000000000071
10
669.01830329519146
20
-76.000000000000099
42
-0.99999786140011226
0
LWPOLYLINE
5
276
100
AcDbEntity
8
0
100
AcDbPolyline
90
4
70
1
43
0.0
10
659.5183032951204
20
-105.99999999999395
42
0.99999999999999989
10
672.01830329522727
20
-106.0000000000062
10
672.01830329525387
20
-70.000000000004675
42
0.99999999999999989
10
659.51830329514701
20
-69.999999999995438
0
LWPOLYLINE
5
277
100
AcDbEntity
8
0
100
AcDbPolyline
90
4
70
1
43
0.0
10
676.72120184592529
20
-106.00000000000007
42
0.99999999999999989
10
683.22120184587163
20
-106.00000000000007
10
683.2212018459428
20
-100.00000000000007
42
1.000001788140942
10
676.72120184588368
20
-100.00001162290576
0
LWPOLYLINE
5
278
100
AcDbEntity
8
0
100
AcDbPolyline
90
4
70
1
43
0.0
10
676.72120184586583
20
-76.000013900821301
10
676.72120184592529
20
-70.000000000000071
42
-0.99999999999999989
10
683.22120184597861
20
-70.000000000000071
10
683.22120184591608
20
-76.000000000000099
42
-0.99999786140011226
0
LWPOLYLINE
5
279
100
AcDbEntity
8
0
100
AcDbPolyline
90
4
70
1
43
0.0
10
673.72120184584503
20
-105.99999999999395
42
0.99999999999999989
10
686.2212018459519
20
-106.0000000000062
10
686.22120184597861
20
-70.000000000004675
42
0.99999999999999989
10
673.72120184587175
20
-69.999999999995438
0
LWPOLYLINE
5
280
100
AcDbEntity
8
0
100
AcDbPolyline
90
4
70
1
43
0.0
10
690.92410039664981
20
-106.00000000000007
42
0.99999999999999989
10
697.42410039659603
20
-106.00000000000007
10
697.42410039666743
20
-100.00000000000007
42
1.000001788140942
10
690.9241003966082
20
-100.00001162290576
0
LWPOLYLINE
5
281
100
AcDbEntity
8
0
100
AcDbPolyline
90
4
70
1
43
0.0
10
690.92410039659046
20
-76.000013900821301
10
690.92410039664981
20
-70.000000000000071
42
-0.99999999999999989
10
697.42410039670301
20
-70.000000000000071
10
697.4241003966406
20
-76.000000000000099
42
-0.99999786140011226
0
LWPOLYLINE
5
282
100
AcDbEntity
8
0
100
AcDbPolyline
90
4
70
1
43
0.0
10
687.92410039656954
20
-105.99999999999395
42
0.99999999999999989
10
700.42410039667629
20
-106.0000000000062
10
700.42410039670312
20
-70.000000000004675
42
0.99999999999999989
10
687.92410039659626
20
-69.999999999995438
0
LWPOLYLINE
5
283
100
AcDbEntity
8
0
100
AcDbPolyline
90
4
70
1
43
0.0
10
705.12699894737455
20
-106.00000000000007
42
0.99999999999999989
10
711.62699894732077
20
-106.00000000000007
10
711.62699894739205
20
-100.00000000000007
42
1.000001788140942
10
705.12699894733282
20
-100.00001162290576
0
LWPOLYLINE
5
284
100
AcDbEntity
8
0
100
AcDbPolyline
90
4
70
1
43
0.0
10
705.12699894731509
20
-76.000013900821301
10
705.12699894737455
20
-70.000000000000071
42
-0.99999999999999989
10
711.62699894742775
20
-70.000000000000071
10
711.62699894736534
20
-76.000000000000099
42
-0.99999786140011226
0
LWPOLYLINE
5
285
100
AcDbEntity
8
0
100
AcDbPolyline
90
4
70
1
43
0.0
10
702.12699894729428
20
-105.99999999999395
42
0.99999999999999989
10
714.62699894740103
20
-106.0000000000062
10
714.62699894742786
20
-70.000000000004675
42
0.99999999999999989
10
702.126998947321
20
-69.999999999995438
0
LWPOLYLINE
5
286
100
AcDbEntity
8
0
100
AcDbPolyline
90
4
70
1
43
0.0
10
719.32989749809917
20
-106.00000000000007
42
0.99999999999999989
10
725.8298974980454
20
-106.00000000000007
10
725.82989749811668
20
-100.00000000000007
42
1.000001788140942
10
719.32989749805756
20
-100.00001162290576
0
LWPOLYLINE
5
287
100
AcDbEntity
8
0
100
AcDbPolyline
90
4
70
1
43
0.0
10
719.32989749803983
20
-76.000013900821301
10
719.32989749809917
20
-70.000000000000071
42
-0.99999999999999989
10
725.82989749815238
20
-70.000000000000071
10
725.82989749809008
20
-76.000000000000099
42
-0.99999786140011226
0
LWPOLYLINE
5
288
100
AcDbEntity
8
0
100
AcDbPolyline
90
4
70
1
43
0.0
10
716.32989749801891
20
-105.99999999999395
42
0.99999999999999989
10
728.82989749812566
20
-106.0000000000062
10
728.82989749815249
20
-70.000000000004675
42
0.99999999999999989
10
716.32989749804563
20
-69.999999999995438
0
LWPOLYLINE
5
289
100
AcDbEntity
8
0
100
AcDbPolyline
90
4
70
1
43
0.0
10
733.53279604882368
20
-106.00000000000007
42
0.99999999999999989
10
740.03279604877002
20
-106.00000000000007
10
740.03279604884131
20
-100.00000000000007
42
1.000001788140942
10
733.53279604878207
20
-100.00001162290576
0
LWPOLYLINE
5
290
100
AcDbEntity
8
0
100
AcDbPolyline
90
4
70
1
43
0.0
10
733.53279604876434
20
-76.000013900821301
10
733.53279604882368
20
-70.000000000000071
42
-0.99999999999999989
10
740.03279604887712
20
-70.000000000000071
10
740.03279604881459
20
-76.000000000000099
42
-0.99999786140011226
0
LWPOLYLINE
5
291
100
AcDbEntity
8
0
100
AcDbPolyline
90
4
70
1
43
0.0
10
730.53279604874342
20
-105.99999999999395
42
0.99999999999999989
10
743.03279604885029
20
-106.0000000000062
10
743.03279604887712
20
-70.000000000004675
42
0.99999999999999989
10
730.53279604877025
20
-69.999999999995438
0
LWPOLYLINE
5
292
100
AcDbEntity
8
0
100
AcDbPolyline
90
4
70
1
43
0.0
10
747.73569459954842
20
-106.00000000000007
42
0.99999999999999989
10
754.23569459949476
20
-106.00000000000007
10
754.23569459956593
20
-100.00000000000007
42
1.000001788140942
10
747.73569459950681
20
-100.00001162290576
0
LWPOLYLINE
5
293
100
AcDbEntity
8
0
100
AcDbPolyline
90
4
70
1
43
0.0
10
747.73569459948908
20
-76.000013900821301
10
747.73569459954842
20
-70.000000000000071
42
-0.99999999999999989
10
754.23569459960174
20
-70.000000000000071
10
754.23569459953922
20
-76.000000000000099
42
-0.99999786140011226
0
LWPOLYLINE
5
294
100
AcDbEntity
8
0
100
AcDbPolyline
90
4
70
1
43
0.0
10
744.73569459946816
20
-105.99999999999395
42
0.99999999999999989
10
757.23569459957503
20
-106.0000000000062
10
757.23569459960174
20
-70.000000000004675
42
0.99999999999999989
10
744.73569459949488
20
-69.999999999995438
0
LWPOLYLINE
5
295
100
AcDbEntity
8
0
100
AcDbPolyline
90
4
70
1
43
0.0
10
761.93859315027316
20
-106.00000000000007
42
0.99999999999999989
10
768.4385931502195
20
-106.00000000000007
10
768.43859315029067
20
-100.00000000000007
42
1.000001788140942
10
761.93859315023144
20
-100.00001162290576
0
LWPOLYLINE
5
296
100
AcDbEntity
8
0
100
AcDbPolyline
90
4
70
1
43
0.0
10
761.93859315021371
20
-76.000013900821301
10
761.93859315027316
20
-70.000000000000071
42
-0.99999999999999989
10
768.43859315032648
20
-70.000000000000071
10
768.43859315026396
20
-76.000000000000099
42
-0.99999786140011226
0
LWPOLYLINE
5
297
100
AcDbEntity
8
0
100
AcDbPolyline
90
4
70
1
43
0.0
10
758.9385931501929
20
-105.99999999999395
42
0.99999999999999989
10
771.43859315029977
20
-106.0000000000062
10
771.43859315032637
20
-70.000000000004675
42
0.99999999999999989
10
758.9385931502195
20
-69.999999999995438
0
LWPOLYLINE
5
298
100
AcDbEntity
8
0
100
AcDbPolyline
90
4
70
1
43
0.0
10
776.14149170099768
20
-106.00000000000007
42
0.99999999999999989
10
782.64149170094379
20
-106.00000000000007
10
782.64149170101518
20
-100.00000000000007
42
1.000001788140942
10
776.14149170095607
20
-100.00001162290576
0
LWPOLYLINE
5
299
100
AcDbEntity
8
0
100
AcDbPolyline
90
4
70
1
43
0.0
10
776.14149170093822
20
-76.000013900821301
10
776.14149170099768
20
-70.000000000000071
42
-0.99999999999999989
10
782.64149170105088
20
-70.000000000000071
10
782.64149170098847
20
-76.000000000000099
42
-0.99999786140011226
0
LWPOLYLINE
5
300
100
AcDbEntity
8
0
100
AcDbPolyline
90
4
70
1
43
0.0
10
773.14149170091741
20
-105.99999999999395
42
0.99999999999999989
10
785.64149170102405
20
-106.0000000000062
10
785.641491701051
20
-70.000000000004675
42
0.99999999999999989
10
773.14149170094413
20
-69.999999999995438
0
LWPOLYLINE
5
301
100
AcDbEntity
8
0
100
AcDbPolyline
90
4
70
1
43
0.0
10
790.3443902517223
20
-106.00000000000007
42
0.99999999999999989
10
796.84439025166853
20
-106.00000000000007
10
796.84439025173992
20
-100.00000000000007
42
1.000001788140942
10
790.34439025168069
20
-100.00001162290576
0
LWPOLYLINE
5
302
100
AcDbEntity
8
0
100
AcDbPolyline
90
4
70
1
43
0.0
10
790.34439025166296
20
-76.000013900821301
10
790.3443902517223
20
-70.000000000000071
42
-0.99999999999999989
10
796.84439025177551
20
-70.000000000000071
10
796.84439025171309
20
-76.000000000000099
42
-0.99999786140011226
0
LWPOLYLINE
5
303
100
AcDbEntity
8
0
100
AcDbPolyline
90
4
70
1
43
0.0
10
787.34439025164204
20
-105.99999999999395
42
0.99999999999999989
10
799.84439025174879
20
-106.0000000000062
10
799.84439025177562
20
-70.000000000004675
42
0.99999999999999989
10
787.34439025166876
20
-69.999999999995438
0
LWPOLYLINE
5
304
100
AcDbEntity
8
0
100
AcDbPolyline
90
4
70
1
43
0.0
10
804.54728880244704
20
-106.00000000000007
42
0.99999999999999989
10
811.04728880239327
20
-106.00000000000007
10
811.04728880246455
20
-100.00000000000007
42
1.000001788140942
10
804.54728880240532
20
-100.00001162290576
0
LWPOLYLINE
5
305
100
AcDbEntity
8
0
100
AcDbPolyline
90
4
70
1
43
0.0
10
804.54728880238758
20
-76.000013900821301
10
804.54728880244704
20
-70.000000000000071
42
-0.99999999999999989
10
811.04728880250025
20
-70.000000000000071
10
811.04728880243783
20
-76.000000000000099
42
-0.99999786140011226
0
LWPOLYLINE
5
306
100
AcDbEntity
8
0
100
AcDbPolyline
90
4
70
1
43
0.0
10
801.54728880236678
20
-105.99999999999395
42
0.99999999999999989
10
814.04728880247353
20
-106.0000000000062
10
814.04728880250036
20
-70.000000000004675
42
0.99999999999999989
10
801.5472888023935
20
-69.999999999995438
0
LWPOLYLINE
5
307
100
AcDbEntity
8
0
100
AcDbPolyline
90
4
70
1
43
0.0
10
818.75018735317155
20
-106.00000000000007
42
0.99999999999999989
10
825.25018735311789
20
-106.00000000000007
10
825.25018735318906
20
-100.00000000000007
42
1.000001788140942
10
818.75018735312995
20
-100.00001162290576
0
LWPOLYLINE
5
308
100
AcDbEntity
8
0
100
AcDbPolyline
90
4
70
1
43
0.0
10
818.7501873531121
20
-76.000013900821301
10
818.75018735317155
20
-70.000000000000071
42
-0.99999999999999989
10
825.25018735322487
20
-70.000000000000071
10
825.25018735316235
20
-76.000000000000099
42
-0.99999786140011226
0
LWPOLYLINE
5
309
100
AcDbEntity
8
0
100
AcDbPolyline
90
4
70
1
43
0.0
10
815.75018735309129
20
-105.99999999999395
42
0.99999999999999989
10
828.25018735319816
20
-106.0000000000062
10
828.25018735322487
20
-70.000000000004675
42
0.99999999999999989
10
815.75018735311801
20
-69.999999999995438
0
ENDSEC
0
SECTION
2
OBJECTS
0
DICTIONARY
5
C
100
AcDbDictionary
3
ACAD_GROUP
350
D
3
ACAD_MLINESTYLE
350
17
0
DICTIONARY
5
D
100
AcDbDictionary
0
DICTIONARY
5
1A
330
C
100
AcDbDictionary
0
DICTIONARY
5
17
100
AcDbDictionary
0
ENDSEC
0
EOF
